<?xml version="1.0" encoding="UTF-8"?>
<svg id="Ministry" xmlns="http://www.w3.org/2000/svg" viewBox="0 0 619.75 244.63">
  <defs>
    <style>
      .cls-1 {
        fill: #e3a82b;
      }

      .cls-1, .cls-2, .cls-3, .cls-4, .cls-5 {
        stroke-width: 0px;
      }

      .cls-2 {
        fill: none;
      }

      .cls-3 {
        fill: #7b8cac;
      }

      .cls-4 {
        fill: #e3a82b;
      }

      .cls-5 {
        fill: #fff;
      }
    </style>
  </defs>
  <g>
    <g>
      <path class="cls-5" d="M286.65,108.62c.89,1.81,1.73,3.58,2.66,5.27h.08c1.04-1.81,2-3.81,2.96-5.77l3.62-7.35c1.73-3.5,2.85-5.62,2.93-7.39,1.31.12,2.12.12,2.89.12.96,0,2.23-.04,3.43-.12.23.15.23.81.04.96l-.81.08c-2.43.23-2.73.96-2.69,3.66.08,4.08.12,11.2.42,16.75.12,1.92.08,2.96,1.89,3.12l1.23.12c.23.23.19.81-.08.96-1.58-.08-3.16-.12-4.54-.12s-3.08.04-4.66.12c-.27-.19-.31-.73-.08-.96l1.12-.12c1.89-.19,1.89-.81,1.89-3.27l-.12-16.05h-.08c-.27.42-1.73,3.5-2.5,5l-3.43,6.74c-1.73,3.39-3.46,7.01-4.16,8.78-.08.12-.23.15-.38.15-.08,0-.27-.04-.35-.15-.65-2.04-2.5-5.81-3.39-7.7l-3.46-7.43c-.81-1.77-1.62-3.77-2.46-5.54h-.08c-.15,2.39-.27,4.62-.38,6.85-.12,2.35-.27,5.77-.27,9.05,0,2.85.23,3.46,1.73,3.58l1.46.12c.27.23.23.85-.04.96-1.31-.08-2.81-.12-4.27-.12-1.23,0-2.62.04-3.93.12-.23-.19-.31-.77-.08-.96l.85-.12c1.62-.23,2.16-.46,2.39-3.16.23-2.54.42-4.66.65-8.47.19-3.2.35-6.47.42-8.59.08-2.43-.23-3-2.58-3.31l-.62-.08c-.19-.23-.15-.81.15-.96,1.16.08,2.08.12,3.04.12.89,0,1.92,0,3.2-.12-.15,1.5.81,3.89,2,6.35l4.39,8.89Z"/>
      <path class="cls-5" d="M309.71,107.85c0-1.5,0-1.69-1.04-2.39l-.35-.23c-.15-.15-.15-.58.04-.69.88-.31,3.08-1.31,3.96-1.89.19,0,.35.08.38.23-.08,1.35-.15,3.2-.15,4.77v6.93c0,2.77.08,3.16,1.46,3.35l.81.12c.27.19.19.85-.08.96-1.16-.08-2.27-.12-3.62-.12s-2.54.04-3.62.12c-.27-.12-.35-.77-.08-.96l.81-.12c1.42-.19,1.46-.58,1.46-3.35v-6.74ZM312.91,96.88c0,1.39-.96,2-2.04,2-1.19,0-1.96-.89-1.96-1.92,0-1.27.92-2.08,2.08-2.08s1.92.92,1.92,2Z"/>
      <path class="cls-5" d="M319.22,107.85c0-1.5,0-1.69-1.04-2.39l-.35-.23c-.15-.15-.15-.58.04-.69.88-.31,3.08-1.31,3.85-1.89.15,0,.35.08.42.27-.08.89-.08,1.46-.08,1.81,0,.23.15.42.42.42,1.62-1,3.43-1.96,5.39-1.96,3.2,0,4.5,2.19,4.5,4.77v6.62c0,2.77.08,3.16,1.46,3.35l.85.12c.27.19.19.85-.08.96-1.16-.08-2.27-.12-3.62-.12s-2.54.04-3.58.12c-.27-.12-.35-.77-.08-.96l.73-.12c1.42-.23,1.46-.58,1.46-3.35v-5.74c0-2.19-1-3.81-3.62-3.81-1.46,0-2.73.62-3.27,1.35-.5.65-.58,1.19-.58,2.31v5.89c0,2.77.08,3.12,1.46,3.35l.69.12c.27.19.19.85-.08.96-1.04-.08-2.16-.12-3.5-.12s-2.54.04-3.62.12c-.27-.12-.35-.77-.08-.96l.81-.12c1.42-.19,1.46-.58,1.46-3.35v-6.74Z"/>
      <path class="cls-5" d="M339.05,107.85c0-1.5,0-1.69-1.04-2.39l-.35-.23c-.15-.15-.15-.58.04-.69.88-.31,3.08-1.31,3.96-1.89.19,0,.35.08.38.23-.08,1.35-.15,3.2-.15,4.77v6.93c0,2.77.08,3.16,1.46,3.35l.81.12c.27.19.19.85-.08.96-1.16-.08-2.27-.12-3.62-.12s-2.54.04-3.62.12c-.27-.12-.35-.77-.08-.96l.81-.12c1.42-.19,1.46-.58,1.46-3.35v-6.74ZM342.24,96.88c0,1.39-.96,2-2.04,2-1.19,0-1.96-.89-1.96-1.92,0-1.27.92-2.08,2.08-2.08s1.92.92,1.92,2Z"/>
      <path class="cls-5" d="M355.33,103.89c.35.85.62,2.08.62,3.12-.15.27-.73.35-.92.12-.65-1.69-1.81-2.81-3.39-2.81s-2.46.96-2.46,2.35c0,1.58,1.62,2.42,2.96,3.2,2.04,1.16,3.93,2.46,3.93,5.2,0,2.93-2.7,4.39-5.54,4.39-1.81,0-3.16-.38-4.12-1.16-.31-.73-.54-2.62-.46-3.89.19-.23.69-.27.88-.04.66,2.12,1.89,3.97,4.08,3.97,1.39,0,2.58-.81,2.58-2.46,0-1.77-1.54-2.73-2.96-3.54-2.23-1.27-3.81-2.62-3.81-4.74,0-2.81,2.31-4.39,5.24-4.39,1.62,0,3.04.38,3.39.69Z"/>
      <path class="cls-5" d="M363.76,105.35c-.65,0-.69.12-.69.92v7.2c0,2.23.27,4.27,2.81,4.27.38,0,.73-.08,1.04-.19.35-.12.85-.54.96-.54.31,0,.46.42.38.65-.69.81-2.08,1.77-4.04,1.77-3.31,0-4-1.85-4-4.16v-8.82c0-1.04-.04-1.12-.81-1.12h-1.08c-.23-.15-.27-.58-.12-.81,1.12-.35,2.08-.85,2.46-1.19.5-.46,1.23-1.5,1.62-2.27.19-.08.65-.08.81.19v1.73c0,.69.04.73.69.73h4.27c.46.35.38,1.39.04,1.62h-4.35Z"/>
      <path class="cls-5" d="M372.04,107.85c0-1.5,0-1.69-1.04-2.39l-.35-.23c-.15-.15-.15-.58.04-.69.88-.31,2.93-1.31,3.89-1.89.19.04.31.12.31.27v2.23c0,.19.04.31.12.35,1.35-1.12,2.81-2.31,4.23-2.31.96,0,1.73.62,1.73,1.54,0,1.27-1.04,1.77-1.66,1.77-.38,0-.58-.12-.85-.27-.58-.38-1.16-.62-1.69-.62-.62,0-1.08.35-1.39.77-.38.54-.5,1.66-.5,2.96v5.24c0,2.77.08,3.23,1.54,3.35l1.39.12c.27.19.19.85-.08.96-1.81-.08-2.93-.12-4.27-.12s-2.54.04-3.54.12c-.27-.12-.35-.77-.08-.96l.73-.12c1.42-.23,1.46-.58,1.46-3.35v-6.74Z"/>
      <path class="cls-5" d="M382.28,126.83c0-1.04.69-1.54,1.54-1.54h.73c.62,0,1-.27,1.27-.69,1.12-1.73,1.89-3.35,2.23-4.27.12-.31.39-1.12.39-1.66,0-.77-.15-1.23-.66-2.66l-3-8.24c-.66-1.81-.92-2.73-2.27-3l-.96-.19c-.23-.19-.19-.85.12-.96,1.23.08,2.39.12,3.66.12,1.04,0,2.12-.04,3.35-.12.31.12.35.77.08.96l-.96.19c-.54.12-.85.23-.85.5,0,.46.89,2.96,1.12,3.62l1.23,3.54c.23.62.96,2.66,1.12,2.73.12-.08.73-1.27,1.42-2.85l1.31-3.04c.85-2,1.35-3.43,1.35-3.85,0-.27-.23-.54-.92-.65l-1.19-.19c-.27-.19-.23-.85.08-.96,1.23.08,2.39.12,3.39.12s1.85-.04,2.93-.12c.31.15.35.73.08.96l-.66.12c-1.27.23-1.96,1.35-3.27,4.08l-2.16,4.43c-1.27,2.58-4.43,9.28-6.31,13.47-.65,1.46-1.58,1.81-2.46,1.81-1.12,0-1.69-.69-1.69-1.66Z"/>
      <path class="cls-5" d="M424.44,111.16c0,4.81-3.31,8.28-8.12,8.28-4.43,0-7.89-3.12-7.89-7.93s3.66-8.32,8.2-8.32,7.81,3.23,7.81,7.97ZM416.16,104.35c-2.54,0-4.43,2.42-4.43,6.66,0,3.5,1.58,7.28,4.97,7.28s4.43-3.54,4.43-6.51c0-3.27-1.31-7.43-4.97-7.43Z"/>
      <path class="cls-5" d="M432.56,105.35c-.65,0-.65.08-.65,1.12v8.12c0,2.77.08,3.23,1.46,3.35l1.39.12c.27.19.19.85-.08.96-1.73-.08-2.85-.12-4.2-.12s-2.54.04-3.7.12c-.27-.12-.35-.77-.08-.96l.89-.12c1.42-.19,1.46-.58,1.46-3.35v-8.12c0-1.04,0-1.12-.77-1.12h-1.35c-.23-.15-.27-.5-.12-.73l1.66-.81c.31-.15.58-.39.58-.77,0-2.23.27-4.62,1.19-6.78.96-2.19,3.12-4.89,6.93-4.89,2.04,0,3.77.92,3.77,2.31,0,.77-.73,1.39-1.46,1.39-.42,0-.65-.15-.92-.46-.73-.85-1.81-1.69-3.08-1.69-1.19,0-2.16.73-2.73,2.12-.69,1.77-.85,4.58-.85,6.51v1.12c0,1.04,0,1.08.65,1.08h4.39c.42.38.15,1.46-.27,1.62h-4.12Z"/>
      <path class="cls-5" d="M278.22,134.65c2.81-2.19,6.39-3.27,10.39-3.27,2.08,0,5,.42,6.81.92.46.12.73.19,1.08.15.04.88.23,3.31.54,5.66-.19.27-.77.31-1.04.08-.58-2.62-2.31-5.62-7.89-5.62-5.89,0-10.89,3.73-10.89,11.7s5.12,12.55,11.43,12.55c4.97,0,7.16-3.23,8.05-5.51.27-.19.85-.12,1,.15-.27,2-1.27,4.54-1.85,5.27-.46.08-.92.23-1.35.38-.85.31-3.62.89-6.08.89-3.46,0-6.78-.69-9.59-2.58-3.08-2.12-5.47-5.62-5.47-10.59,0-4.27,1.92-7.93,4.85-10.2Z"/>
      <path class="cls-5" d="M301.47,135.69c0-2.27-.04-2.5-1.19-3.2l-.38-.23c-.19-.12-.19-.66,0-.77.96-.31,2.77-.89,4.16-1.62.15,0,.31.08.38.23-.04,1.16-.12,3.08-.12,4.77v8.08c0,.35.04.65.15.73,1.39-1.08,3.23-2,5.2-2,3.66,0,4.97,2.27,4.97,4.97v6.43c0,2.77.08,3.2,1.46,3.35l1.04.12c.27.19.19.85-.08.96-1.39-.08-2.5-.12-3.85-.12s-2.54.04-3.58.12c-.27-.12-.35-.77-.08-.96l.77-.12c1.42-.23,1.46-.58,1.46-3.35v-5.51c0-2.46-1.19-4.12-3.66-4.12-1.31,0-2.31.46-3,1.04-.69.58-.81.77-.81,2.12v6.47c0,2.77.08,3.16,1.46,3.35l.81.12c.27.15.19.85-.08.96-1.15-.08-2.27-.12-3.62-.12s-2.54.04-3.77.12c-.27-.12-.35-.77-.08-.96l.96-.12c1.42-.15,1.46-.58,1.46-3.35v-17.4Z"/>
      <path class="cls-5" d="M321.3,146.35c0-1.5,0-1.69-1.04-2.39l-.35-.23c-.15-.15-.15-.58.04-.69.88-.31,3.08-1.31,3.96-1.89.19,0,.35.08.38.23-.08,1.35-.15,3.2-.15,4.77v6.93c0,2.77.08,3.16,1.46,3.35l.81.12c.27.19.19.85-.08.96-1.16-.08-2.27-.12-3.62-.12s-2.54.04-3.62.12c-.27-.12-.35-.77-.08-.96l.81-.12c1.42-.19,1.46-.58,1.46-3.35v-6.74ZM324.5,135.38c0,1.39-.96,2-2.04,2-1.19,0-1.96-.89-1.96-1.92,0-1.27.92-2.08,2.08-2.08s1.92.92,1.92,2Z"/>
      <path class="cls-5" d="M333.27,153.09c0,2.77.08,3.16,1.46,3.35l.92.12c.27.19.19.85-.08.96-1.27-.08-2.39-.12-3.73-.12s-2.54.04-3.7.12c-.27-.12-.35-.77-.08-.96l.89-.12c1.42-.19,1.46-.58,1.46-3.35v-17.4c0-2.27-.04-2.5-1.19-3.2l-.38-.23c-.19-.12-.19-.66,0-.77.96-.31,2.77-.89,4.16-1.62.15,0,.31.08.39.23-.04,1.16-.12,3.08-.12,4.77v18.21Z"/>
      <path class="cls-5" d="M352.48,151.78c0,3.04.04,4.47,1.12,4.47.42,0,1.08-.19,1.66-.38.27.08.31,1.04-.04,1.23-1.62.23-4,.81-5.08,1.23-.23,0-.42-.12-.42-.31v-.65c0-.58,0-1.04-.08-1.19h-.15c-1.69,1.16-3,1.77-4.85,1.77-4.27,0-7.12-3.35-7.12-7.39,0-5.39,4.08-8.85,9.32-8.85,1.31,0,2.16.19,2.58.35.19,0,.23-.23.23-.54v-5.81c0-2.27-.04-2.5-1.19-3.2l-.39-.23c-.19-.12-.19-.66,0-.77.96-.31,2.77-.89,4.16-1.62.15,0,.31.08.38.23-.04,1.16-.12,3.08-.12,4.77v16.9ZM349.63,146c0-.77-.15-1.12-.42-1.5-.58-.81-1.73-1.62-3.23-1.62-3.5,0-5.31,3.04-5.31,6.39s1.96,6.81,5.74,6.81c1.04,0,2.35-.46,2.96-1.08.23-.23.27-.81.27-1.42v-7.58Z"/>
      <path class="cls-5" d="M359.14,146.35c0-1.5,0-1.69-1.04-2.39l-.35-.23c-.15-.15-.15-.58.04-.69.88-.31,2.93-1.31,3.89-1.89.19.04.31.12.31.27v2.23c0,.19.04.31.12.35,1.35-1.12,2.81-2.31,4.23-2.31.96,0,1.73.62,1.73,1.54,0,1.27-1.04,1.77-1.66,1.77-.38,0-.58-.12-.85-.27-.58-.38-1.16-.62-1.69-.62-.62,0-1.08.35-1.39.77-.38.54-.5,1.66-.5,2.96v5.24c0,2.77.08,3.23,1.54,3.35l1.39.12c.27.19.19.85-.08.96-1.81-.08-2.93-.12-4.27-.12s-2.54.04-3.54.12c-.27-.12-.35-.77-.08-.96l.73-.12c1.42-.23,1.46-.58,1.46-3.35v-6.74Z"/>
      <path class="cls-5" d="M372.39,147.54c-1,0-1.04.08-1.04,1.04,0,3.89,2.27,7.2,6.39,7.2,1.27,0,2.35-.38,3.54-1.89.39-.12.65.12.69.46-1.27,2.62-4.04,3.58-6.04,3.58-2.5,0-4.47-1.08-5.58-2.54-1.15-1.5-1.62-3.31-1.62-5,0-4.74,3.12-8.7,7.74-8.7,3.31,0,5.47,2.27,5.47,4.58,0,.54-.08.85-.15,1-.12.23-.65.27-2.27.27h-7.12ZM374.77,146.39c2.85,0,3.7-.15,4-.38.12-.08.23-.23.23-.73,0-1.08-.73-2.42-2.96-2.42s-4.23,2.08-4.27,3.35c0,.08,0,.19.27.19h2.73Z"/>
      <path class="cls-5" d="M386.02,146.35c0-1.5,0-1.69-1.04-2.39l-.35-.23c-.15-.15-.15-.58.04-.69.88-.31,3.08-1.31,3.85-1.89.15,0,.35.08.42.27-.08.89-.08,1.46-.08,1.81,0,.23.15.42.42.42,1.62-1,3.43-1.96,5.39-1.96,3.2,0,4.5,2.19,4.5,4.77v6.62c0,2.77.08,3.16,1.46,3.35l.85.12c.27.19.19.85-.08.96-1.16-.08-2.27-.12-3.62-.12s-2.54.04-3.58.12c-.27-.12-.35-.77-.08-.96l.73-.12c1.42-.23,1.46-.58,1.46-3.35v-5.74c0-2.19-1-3.81-3.62-3.81-1.46,0-2.73.62-3.27,1.35-.5.65-.58,1.19-.58,2.31v5.89c0,2.77.08,3.12,1.46,3.35l.69.12c.27.19.19.85-.08.96-1.04-.08-2.16-.12-3.5-.12s-2.54.04-3.62.12c-.27-.12-.35-.77-.08-.96l.81-.12c1.42-.19,1.46-.58,1.46-3.35v-6.74Z"/>
      <path class="cls-5" d="M420.44,149.43c.58-.19.65-.54.65-1.12l.04-1.77c.04-1.42-.42-3.35-2.81-3.35-1.08,0-2.39.54-2.46,1.73-.04.62-.08,1.08-.38,1.31-.58.46-1.62.73-2.19.73-.35,0-.54-.19-.54-.54,0-2,4.35-4.74,7.16-4.74s4.12,1.62,4,4.5l-.23,6.7c-.08,1.77.27,3.35,1.77,3.35.38,0,.73-.12.96-.23.19-.12.39-.27.5-.27.15,0,.27.23.27.5,0,.19-1.35,1.69-3.23,1.69-.92,0-1.85-.35-2.5-1.19-.15-.23-.38-.54-.62-.54-.27,0-.73.35-1.5.77-.85.46-1.69.96-2.77.96s-2.04-.31-2.69-.89c-.73-.65-1.19-1.62-1.19-2.69,0-1.5.73-2.39,3.2-3.27l4.58-1.66ZM418.05,156.21c.77,0,1.96-.58,2.35-.96.46-.46.46-1,.5-1.81l.08-2.27c0-.42-.15-.5-.38-.5s-.89.15-1.58.38c-2.27.77-3.39,1.35-3.39,2.85,0,.65.46,2.31,2.43,2.31Z"/>
      <path class="cls-5" d="M430.25,146.35c0-1.5,0-1.69-1.04-2.39l-.35-.23c-.15-.15-.15-.58.04-.69.88-.31,3.08-1.31,3.85-1.89.15,0,.35.08.42.27-.08.89-.08,1.46-.08,1.81,0,.23.15.42.42.42,1.62-1,3.43-1.96,5.39-1.96,3.2,0,4.5,2.19,4.5,4.77v6.62c0,2.77.08,3.16,1.46,3.35l.85.12c.27.19.19.85-.08.96-1.16-.08-2.27-.12-3.62-.12s-2.54.04-3.58.12c-.27-.12-.35-.77-.08-.96l.73-.12c1.42-.23,1.46-.58,1.46-3.35v-5.74c0-2.19-1-3.81-3.62-3.81-1.46,0-2.73.62-3.27,1.35-.5.65-.58,1.19-.58,2.31v5.89c0,2.77.08,3.12,1.46,3.35l.69.12c.27.19.19.85-.08.96-1.04-.08-2.16-.12-3.5-.12s-2.54.04-3.62.12c-.27-.12-.35-.77-.08-.96l.81-.12c1.42-.19,1.46-.58,1.46-3.35v-6.74Z"/>
      <path class="cls-5" d="M462.63,151.78c0,3.04.04,4.47,1.12,4.47.42,0,1.08-.19,1.66-.38.27.08.31,1.04-.04,1.23-1.62.23-4,.81-5.08,1.23-.23,0-.42-.12-.42-.31v-.65c0-.58,0-1.04-.08-1.19h-.15c-1.69,1.16-3,1.77-4.85,1.77-4.27,0-7.12-3.35-7.12-7.39,0-5.39,4.08-8.85,9.32-8.85,1.31,0,2.16.19,2.58.35.19,0,.23-.23.23-.54v-5.81c0-2.27-.04-2.5-1.19-3.2l-.39-.23c-.19-.12-.19-.66,0-.77.96-.31,2.77-.89,4.16-1.62.15,0,.31.08.38.23-.04,1.16-.12,3.08-.12,4.77v16.9ZM459.78,146c0-.77-.15-1.12-.42-1.5-.58-.81-1.73-1.62-3.23-1.62-3.5,0-5.31,3.04-5.31,6.39s1.96,6.81,5.74,6.81c1.04,0,2.35-.46,2.96-1.08.23-.23.27-.81.27-1.42v-7.58Z"/>
      <path class="cls-5" d="M482.84,142.85c0,1.04.12,1.04,1.27,1.04h2.62c1.58,0,2.81-.08,3.27-.23.42-.15.73-.35.96-1.35l.35-1.54c.19-.23.85-.23,1,0,0,.92-.15,2.46-.15,3.89s.15,2.85.15,3.73c-.15.23-.73.23-1,0l-.38-1.5c-.19-.69-.5-1.23-1.23-1.46-.54-.15-1.5-.19-2.96-.19h-2.62c-1.16,0-1.27.04-1.27,1.04v5.35c0,4.04.08,4.62,2.35,4.81l1.31.12c.23.15.15.85-.08.96-2.27-.08-3.58-.12-5.12-.12-1.69,0-3,.04-4.81.12-.23-.12-.31-.73-.08-.96l.96-.12c2.23-.27,2.31-.77,2.31-4.81v-13.86c0-4.04-.08-4.58-2.31-4.85l-.62-.08c-.23-.15-.15-.85.08-.96,1.62.08,2.93.12,4.47.12h7.08c2.46,0,4.7,0,5.2-.12,0,1.77.04,3.62.12,5.08-.12.23-.66.35-.92.12-.31-1.73-.77-3.16-2.69-3.66-.85-.23-2.12-.23-3.73-.23h-2.35c-1.15,0-1.15.08-1.15,1.54v8.12Z"/>
      <path class="cls-5" d="M502.36,149.43c.58-.19.65-.54.65-1.12l.04-1.77c.04-1.42-.42-3.35-2.81-3.35-1.08,0-2.39.54-2.46,1.73-.04.62-.08,1.08-.38,1.31-.58.46-1.62.73-2.19.73-.35,0-.54-.19-.54-.54,0-2,4.35-4.74,7.16-4.74s4.12,1.62,4,4.5l-.23,6.7c-.08,1.77.27,3.35,1.77,3.35.38,0,.73-.12.96-.23.19-.12.39-.27.5-.27.15,0,.27.23.27.5,0,.19-1.35,1.69-3.23,1.69-.92,0-1.85-.35-2.5-1.19-.15-.23-.38-.54-.62-.54-.27,0-.73.35-1.5.77-.85.46-1.69.96-2.77.96s-2.04-.31-2.69-.89c-.73-.65-1.19-1.62-1.19-2.69,0-1.5.73-2.39,3.2-3.27l4.58-1.66ZM499.98,156.21c.77,0,1.96-.58,2.35-.96.46-.46.46-1,.5-1.81l.08-2.27c0-.42-.15-.5-.38-.5s-.89.15-1.58.38c-2.27.77-3.39,1.35-3.39,2.85,0,.65.46,2.31,2.43,2.31Z"/>
      <path class="cls-5" d="M532.58,147.51c0-2.62-1.16-3.97-3.58-3.97-1.46,0-2.66.65-3.2,1.35-.46.58-.58.96-.58,2.31v5.89c0,2.77.08,3.16,1.46,3.35l.81.12c.27.19.19.85-.08.96-1.15-.08-2.27-.12-3.62-.12s-2.43.04-3.5.12c-.27-.12-.35-.77-.08-.96l.69-.12c1.42-.23,1.46-.58,1.46-3.35v-5.58c0-2.58-1.16-3.97-3.54-3.97-1.58,0-2.66.69-3.23,1.39-.38.46-.58.96-.58,2.19v5.97c0,2.77.08,3.12,1.46,3.35l.69.12c.27.19.19.85-.08.96-1.04-.08-2.16-.12-3.5-.12s-2.54.04-3.73.12c-.27-.12-.35-.77-.08-.96l.92-.12c1.42-.19,1.46-.58,1.46-3.35v-6.74c0-1.5,0-1.69-1.04-2.39l-.35-.23c-.15-.15-.15-.58.04-.69.88-.31,3.08-1.31,3.85-1.89.15,0,.35.08.42.27-.08.89-.08,1.46-.08,1.81,0,.23.15.42.42.42,1.46-1.04,3.27-1.96,5.12-1.96s3,.69,4.08,2.27c.35.08.62-.08.96-.31,1.54-1.08,3.43-1.96,5.24-1.96,3.08,0,4.58,2.12,4.58,4.77v6.62c0,2.77.08,3.16,1.46,3.35l.92.12c.27.19.19.85-.08.96-1.27-.08-2.39-.12-3.73-.12s-2.43.04-3.5.12c-.27-.12-.35-.77-.08-.96l.69-.12c1.42-.23,1.46-.58,1.46-3.35v-5.58Z"/>
      <path class="cls-5" d="M542.09,146.35c0-1.5,0-1.69-1.04-2.39l-.35-.23c-.15-.15-.15-.58.04-.69.88-.31,3.08-1.31,3.96-1.89.19,0,.35.08.38.23-.08,1.35-.15,3.2-.15,4.77v6.93c0,2.77.08,3.16,1.46,3.35l.81.12c.27.19.19.85-.08.96-1.16-.08-2.27-.12-3.62-.12s-2.54.04-3.62.12c-.27-.12-.35-.77-.08-.96l.81-.12c1.42-.19,1.46-.58,1.46-3.35v-6.74ZM545.29,135.38c0,1.39-.96,2-2.04,2-1.19,0-1.96-.89-1.96-1.92,0-1.27.92-2.08,2.08-2.08s1.92.92,1.92,2Z"/>
      <path class="cls-5" d="M554.07,153.09c0,2.77.08,3.16,1.46,3.35l.92.12c.27.19.19.85-.08.96-1.27-.08-2.39-.12-3.73-.12s-2.54.04-3.7.12c-.27-.12-.35-.77-.08-.96l.89-.12c1.42-.19,1.46-.58,1.46-3.35v-17.4c0-2.27-.04-2.5-1.19-3.2l-.38-.23c-.19-.12-.19-.66,0-.77.96-.31,2.77-.89,4.16-1.62.15,0,.31.08.39.23-.04,1.16-.12,3.08-.12,4.77v18.21Z"/>
      <path class="cls-5" d="M557.88,165.33c0-1.04.69-1.54,1.54-1.54h.73c.62,0,1-.27,1.27-.69,1.12-1.73,1.89-3.35,2.23-4.27.12-.31.39-1.12.39-1.66,0-.77-.15-1.23-.66-2.66l-3-8.24c-.66-1.81-.92-2.73-2.27-3l-.96-.19c-.23-.19-.19-.85.12-.96,1.23.08,2.39.12,3.66.12,1.04,0,2.12-.04,3.35-.12.31.12.35.77.08.96l-.96.19c-.54.12-.85.23-.85.5,0,.46.89,2.96,1.12,3.62l1.23,3.54c.23.62.96,2.66,1.12,2.73.12-.08.73-1.27,1.42-2.85l1.31-3.04c.85-2,1.35-3.43,1.35-3.85,0-.27-.23-.54-.92-.65l-1.19-.19c-.27-.19-.23-.85.08-.96,1.23.08,2.39.12,3.39.12s1.85-.04,2.93-.12c.31.15.35.73.08.96l-.66.12c-1.27.23-1.96,1.35-3.27,4.08l-2.16,4.43c-1.27,2.58-4.43,9.28-6.31,13.47-.65,1.46-1.58,1.81-2.46,1.81-1.12,0-1.69-.69-1.69-1.66Z"/>
      <path class="cls-5" d="M276.6,175.5c0-2.69-.19-3.5-1.81-3.73l-.85-.12c-.31-.19-.35-.81.04-.96,3.27-.19,6.39-.31,9.66-.31s5.97.23,8.47,1.16c5.2,1.89,7.81,6.28,7.81,11.36s-2.35,9.09-6.74,11.47c-2.5,1.35-5.66,1.85-8.62,1.85-2.46,0-4.93-.31-6.28-.31-1.62,0-3,.04-4.81.12-.23-.12-.31-.73-.08-.96l.89-.12c2.23-.31,2.31-.77,2.31-4.81v-14.63ZM279.76,189.24c0,2.04.12,3.27.77,4.2.85,1.19,2.31,1.58,4.74,1.58,7.47,0,10.82-4.89,10.82-12.05,0-4.23-2.04-11.4-12.13-11.4-2.27,0-3.5.31-3.81.54-.31.23-.39,1.19-.39,2.93v14.21Z"/>
      <path class="cls-5" d="M306.09,186.04c-1,0-1.04.08-1.04,1.04,0,3.89,2.27,7.2,6.39,7.2,1.27,0,2.35-.38,3.54-1.89.39-.12.65.12.69.46-1.27,2.62-4.04,3.58-6.04,3.58-2.5,0-4.47-1.08-5.58-2.54-1.15-1.5-1.62-3.31-1.62-5,0-4.74,3.12-8.7,7.74-8.7,3.31,0,5.47,2.27,5.47,4.58,0,.54-.08.85-.15,1-.12.23-.65.27-2.27.27h-7.12ZM308.48,184.89c2.85,0,3.7-.15,4-.38.12-.08.23-.23.23-.73,0-1.08-.73-2.42-2.96-2.42s-4.23,2.08-4.27,3.35c0,.08,0,.19.27.19h2.73Z"/>
      <path class="cls-5" d="M319.11,184.54c-.58-1.42-.92-2.66-2.31-2.85l-.77-.12c-.23-.31-.19-.85.12-.96.96.08,2.31.12,3.62.12,1.04,0,1.81-.04,3.12-.12.27.15.31.77.04.96l-.46.08c-1.19.19-1.23.38-.85,1.54.89,2.66,2,5.35,2.89,7.35.35.77.5,1.12.62,1.23.15-.12.42-.65.73-1.46.5-1.31,1.81-4.66,2.19-5.66.54-1.35.69-2.16.69-2.39,0-.35-.23-.5-.69-.58l-.88-.12c-.23-.27-.19-.81.08-.96,1.19.08,2.16.12,2.89.12.96,0,1.62-.04,2.7-.12.27.15.31.73.08.96l-.58.08c-1.35.19-1.69,1.19-2.81,3.35-.54,1.04-2.93,6.62-3.54,8.2-.39.96-.77,1.85-1.27,3.16-.08.12-.23.15-.38.15-.19,0-.39-.04-.5-.15-.31-1.08-.89-2.58-1.46-4l-3.23-7.81Z"/>
      <path class="cls-5" d="M336.97,186.04c-1,0-1.04.08-1.04,1.04,0,3.89,2.27,7.2,6.39,7.2,1.27,0,2.35-.38,3.54-1.89.39-.12.65.12.69.46-1.27,2.62-4.04,3.58-6.04,3.58-2.5,0-4.47-1.08-5.58-2.54-1.15-1.5-1.62-3.31-1.62-5,0-4.74,3.12-8.7,7.74-8.7,3.31,0,5.47,2.27,5.47,4.58,0,.54-.08.85-.15,1-.12.23-.65.27-2.27.27h-7.12ZM339.36,184.89c2.85,0,3.7-.15,4-.38.12-.08.23-.23.23-.73,0-1.08-.73-2.42-2.96-2.42s-4.23,2.08-4.27,3.35c0,.08,0,.19.27.19h2.73Z"/>
      <path class="cls-5" d="M353.06,191.59c0,2.77.08,3.16,1.46,3.35l.92.12c.27.19.19.85-.08.96-1.27-.08-2.39-.12-3.73-.12s-2.54.04-3.7.12c-.27-.12-.35-.77-.08-.96l.89-.12c1.42-.19,1.46-.58,1.46-3.35v-17.4c0-2.27-.04-2.5-1.19-3.2l-.38-.23c-.19-.12-.19-.66,0-.77.96-.31,2.77-.89,4.16-1.62.15,0,.31.08.39.23-.04,1.16-.12,3.08-.12,4.77v18.21Z"/>
      <path class="cls-5" d="M373.31,188.16c0,4.81-3.31,8.28-8.12,8.28-4.43,0-7.89-3.12-7.89-7.93s3.66-8.32,8.2-8.32,7.81,3.23,7.81,7.97ZM365.04,181.35c-2.54,0-4.43,2.42-4.43,6.66,0,3.5,1.58,7.28,4.97,7.28s4.43-3.54,4.43-6.51c0-3.27-1.31-7.43-4.97-7.43Z"/>
      <path class="cls-5" d="M377.55,184.85c0-1.5,0-1.69-1.04-2.39l-.35-.23c-.15-.15-.15-.58.04-.69,1-.42,2.81-1.35,3.81-2.08.23,0,.38.08.46.27-.08.69-.15,1.27-.15,1.77,0,.27.08.5.35.5.5-.23,2.93-1.81,5.39-1.81,3.89,0,6.39,3.16,6.39,7.04,0,5.35-3.93,9.2-9.39,9.2-.69,0-1.77-.08-2.12-.15-.35.08-.54.27-.54,1.08v4.04c0,2.73.08,3.08,1.46,3.27l1.5.19c.27.19.19.85-.08.96-1.85-.08-2.96-.12-4.31-.12s-2.54.04-3.62.12c-.27-.12-.35-.77-.08-.96l.81-.12c1.42-.19,1.46-.58,1.46-3.35v-16.55ZM380.4,192.01c0,1.23.38,1.69,1.16,2.31.77.58,1.96.85,2.77.85,3.16,0,5-2.93,5-6.93,0-3.08-1.73-6.2-5.2-6.2-1.66,0-2.85.62-3.27,1.08-.35.42-.46,1-.46,2.27v6.62Z"/>
      <path class="cls-5" d="M417.59,186.01c0-2.62-1.16-3.97-3.58-3.97-1.46,0-2.66.65-3.2,1.35-.46.58-.58.96-.58,2.31v5.89c0,2.77.08,3.16,1.46,3.35l.81.12c.27.19.19.85-.08.96-1.15-.08-2.27-.12-3.62-.12s-2.43.04-3.5.12c-.27-.12-.35-.77-.08-.96l.69-.12c1.42-.23,1.46-.58,1.46-3.35v-5.58c0-2.58-1.16-3.97-3.54-3.97-1.58,0-2.66.69-3.23,1.39-.38.46-.58.96-.58,2.19v5.97c0,2.77.08,3.12,1.46,3.35l.69.12c.27.19.19.85-.08.96-1.04-.08-2.16-.12-3.5-.12s-2.54.04-3.73.12c-.27-.12-.35-.77-.08-.96l.92-.12c1.42-.19,1.46-.58,1.46-3.35v-6.74c0-1.5,0-1.69-1.04-2.39l-.35-.23c-.15-.15-.15-.58.04-.69.88-.31,3.08-1.31,3.85-1.89.15,0,.35.08.42.27-.08.89-.08,1.46-.08,1.81,0,.23.15.42.42.42,1.46-1.04,3.27-1.96,5.12-1.96s3,.69,4.08,2.27c.35.08.62-.08.96-.31,1.54-1.08,3.43-1.96,5.24-1.96,3.08,0,4.58,2.12,4.58,4.77v6.62c0,2.77.08,3.16,1.46,3.35l.92.12c.27.19.19.85-.08.96-1.27-.08-2.39-.12-3.73-.12s-2.43.04-3.5.12c-.27-.12-.35-.77-.08-.96l.69-.12c1.42-.23,1.46-.58,1.46-3.35v-5.58Z"/>
      <path class="cls-5" d="M428.33,186.04c-1,0-1.04.08-1.04,1.04,0,3.89,2.27,7.2,6.39,7.2,1.27,0,2.35-.38,3.54-1.89.39-.12.65.12.69.46-1.27,2.62-4.04,3.58-6.04,3.58-2.5,0-4.47-1.08-5.58-2.54-1.15-1.5-1.62-3.31-1.62-5,0-4.74,3.12-8.7,7.74-8.7,3.31,0,5.47,2.27,5.47,4.58,0,.54-.08.85-.15,1-.12.23-.65.27-2.27.27h-7.12ZM430.71,184.89c2.85,0,3.7-.15,4-.38.12-.08.23-.23.23-.73,0-1.08-.73-2.42-2.96-2.42s-4.23,2.08-4.27,3.35c0,.08,0,.19.27.19h2.73Z"/>
      <path class="cls-5" d="M441.96,184.85c0-1.5,0-1.69-1.04-2.39l-.35-.23c-.15-.15-.15-.58.04-.69.88-.31,3.08-1.31,3.85-1.89.15,0,.35.08.42.27-.08.89-.08,1.46-.08,1.81,0,.23.15.42.42.42,1.62-1,3.43-1.96,5.39-1.96,3.2,0,4.5,2.19,4.5,4.77v6.62c0,2.77.08,3.16,1.46,3.35l.85.12c.27.19.19.85-.08.96-1.16-.08-2.27-.12-3.62-.12s-2.54.04-3.58.12c-.27-.12-.35-.77-.08-.96l.73-.12c1.42-.23,1.46-.58,1.46-3.35v-5.74c0-2.19-1-3.81-3.62-3.81-1.46,0-2.73.62-3.27,1.35-.5.65-.58,1.19-.58,2.31v5.89c0,2.77.08,3.12,1.46,3.35l.69.12c.27.19.19.85-.08.96-1.04-.08-2.16-.12-3.5-.12s-2.54.04-3.62.12c-.27-.12-.35-.77-.08-.96l.81-.12c1.42-.19,1.46-.58,1.46-3.35v-6.74Z"/>
      <path class="cls-5" d="M464.94,182.35c-.65,0-.69.12-.69.92v7.2c0,2.23.27,4.27,2.81,4.27.38,0,.73-.08,1.04-.19.35-.12.85-.54.96-.54.31,0,.46.42.38.65-.69.81-2.08,1.77-4.04,1.77-3.31,0-4-1.85-4-4.16v-8.82c0-1.04-.04-1.12-.81-1.12h-1.08c-.23-.15-.27-.58-.12-.81,1.12-.35,2.08-.85,2.46-1.19.5-.46,1.23-1.5,1.62-2.27.19-.08.65-.08.81.19v1.73c0,.69.04.73.69.73h4.27c.46.35.38,1.39.04,1.62h-4.35Z"/>
    </g>
    <rect class="cls-2" x="0" y="0" width="619.75" height="244.63"/>
  </g>
  <rect class="cls-4" x="246.83" y="49.34" width="1.55" height="147.13"/>
  <g>
    <path class="cls-5" d="M73.74,148.15c0-2.67-.19-3.38-1.99-3.53l-1.25-.09c-.2-.16-.15-.88.04-.9,2.16-.19,4.89-.29,8.62-.29,2.52,0,4.93.18,6.73,1.01,1.72.76,3.05,2.2,3.05,4.51,0,2.6-1.68,3.94-4.09,4.95,0,.36.32.47.76.54,2.16.36,5.37,2.17,5.37,6.03,0,4.19-3.45,7.01-10.66,7.01-1.16,0-3.13-.11-4.81-.11s-3.13.07-4.61.11c-.24-.11-.32-.69-.08-.9l.72-.11c2.12-.33,2.2-.72,2.2-4.52v-13.72ZM77.03,152.95c0,1.01.04,1.08,2.08,1.01,4.09-.15,6.29-1.23,6.29-4.62s-2.93-4.87-5.97-4.87c-.88,0-1.48.07-1.84.21-.4.11-.56.29-.56.94v7.33ZM77.03,161.33c0,1.3.08,3.14.84,3.94.76.83,1.96,1.01,3.17,1.01,3.57,0,6.29-1.45,6.29-5.05,0-2.85-1.6-6.18-7.98-6.18-2.16,0-2.32.22-2.32.94v5.34Z"/>
    <path class="cls-5" d="M118.83,151.7c0-3.27-.07-3.79-2.09-3.95l-.86-.06c-.2-.12-.14-.68.07-.77,1.71.06,2.88.09,4.31.09s2.53-.03,4.24-.09c.21.09.27.65.07.77l-.86.06c-2.02.15-2.09.68-2.09,3.95v10.98c0,3.27.07,3.7,2.09,3.92l.86.09c.21.12.14.68-.07.77-1.71-.06-2.88-.09-4.24-.09-1.44,0-2.6.03-4.31.09-.2-.09-.27-.59-.07-.77l.86-.09c2.02-.21,2.09-.65,2.09-3.92v-10.98Z"/>
    <path class="cls-5" d="M137.83,162.74c0,3.24.06,3.7,1.92,3.86l1.03.09c.19.12.13.68-.06.77-1.83-.06-2.92-.09-4.2-.09s-2.41.03-4.46.09c-.19-.09-.26-.62,0-.77l1.16-.09c1.83-.15,1.99-.62,1.99-3.86v-13.79c0-.96,0-.98-.96-.98h-1.76c-1.38,0-3.14.06-3.95.77-.77.68-1.09,1.36-1.44,2.13-.26.19-.7.03-.83-.21.51-1.39,1-3.36,1.22-4.6.1-.06.51-.09.61,0,.19.99,1.25.96,2.73.96h12.99c1.73,0,2.02-.06,2.5-.86.16-.06.51-.03.58.09-.35,1.27-.58,3.76-.48,4.69-.13.25-.67.25-.83.06-.1-.77-.32-1.91-.8-2.25-.74-.52-1.96-.77-3.72-.77h-2.28c-.96,0-.93.03-.93,1.05v13.72Z"/>
    <path class="cls-5" d="M151.57,151.7c0-3.27-.07-3.79-2.09-3.95l-.86-.06c-.2-.12-.14-.68.07-.77,1.71.06,2.88.09,4.31.09s2.53-.03,4.25-.09c.21.09.27.65.07.77l-.86.06c-2.02.15-2.09.68-2.09,3.95v10.98c0,3.27.07,3.7,2.09,3.92l.86.09c.2.12.14.68-.07.77-1.71-.06-2.88-.09-4.25-.09-1.44,0-2.6.03-4.31.09-.21-.09-.27-.59-.07-.77l.86-.09c2.02-.21,2.09-.65,2.09-3.92v-10.98Z"/>
    <path class="cls-5" d="M166.91,167.78c-3.06,0-4.99-.8-5.68-1.14-.44-.68-.91-2.87-.98-4.32.18-.22.73-.28.87-.09.54,1.57,2.04,4.59,6.26,4.59,3.06,0,4.55-1.69,4.55-3.54,0-1.36-.33-2.87-2.98-4.32l-3.46-1.91c-1.82-1.02-3.93-2.78-3.93-5.31,0-2.93,2.69-5.3,7.42-5.3,1.13,0,2.44.19,3.38.4.47.12.98.18,1.27.18.33.74.66,2.47.66,3.76-.15.19-.73.28-.91.09-.47-1.48-1.46-3.49-4.95-3.49s-4.33,2-4.33,3.42c0,1.79,1.75,3.08,3.09,3.79l2.91,1.54c2.29,1.2,4.55,2.99,4.55,5.92,0,3.39-3.02,5.71-7.75,5.71Z"/>
    <path class="cls-5" d="M185.23,157.41c-1.59,0-1.66.06-1.66.99v4.35c0,3.24.17,3.67,2.02,3.86l.96.09c.2.12.13.68-.07.77-1.79-.06-2.92-.09-4.21-.09-1.43,0-2.55.06-3.85.09-.2-.09-.27-.59-.07-.77l.56-.09c1.86-.31,1.92-.62,1.92-3.86v-11.1c0-3.24-.23-3.76-1.96-3.89l-.86-.06c-.2-.12-.13-.68.07-.77,1.63.03,2.75.09,4.18.09,1.29,0,2.42-.03,3.85-.09.2.09.27.65.07.77l-.63.06c-1.92.19-1.99.65-1.99,3.89v3.54c0,.96.07.99,1.66.99h9.49c1.59,0,1.66-.03,1.66-.99v-3.54c0-3.24-.07-3.7-2.03-3.89l-.63-.06c-.2-.12-.13-.68.07-.77,1.53.06,2.66.09,4.02.09s2.42-.03,3.92-.09c.2.09.26.65.07.77l-.7.06c-1.92.19-1.99.65-1.99,3.89v11.1c0,3.24.07,3.64,1.99,3.86l.8.09c.2.12.13.68-.06.77-1.59-.06-2.72-.09-4.02-.09-1.36,0-2.55.03-4.02.09-.2-.09-.27-.59-.07-.77l.63-.09c2.03-.31,2.03-.62,2.03-3.86v-4.35c0-.92-.07-.99-1.66-.99h-9.49Z"/>
    <path class="cls-5" d="M54.75,174.24c2.73-2.12,6.2-3.16,10.09-3.16,2.02,0,4.86.41,6.62.89.45.11.71.19,1.05.15.04.86.22,3.2.52,5.47-.19.26-.75.3-1.01.07-.56-2.53-2.24-5.44-7.66-5.44-5.72,0-10.57,3.61-10.57,11.32s4.97,12.14,11.1,12.14c4.82,0,6.95-3.13,7.81-5.33.26-.19.82-.11.97.15-.26,1.94-1.23,4.39-1.79,5.1-.45.07-.9.22-1.31.37-.82.3-3.51.86-5.9.86-3.36,0-6.58-.67-9.3-2.5-2.99-2.05-5.31-5.44-5.31-10.24,0-4.13,1.87-7.67,4.71-9.87Z"/>
    <path class="cls-5" d="M75.19,186.28c0-6.17,4.86-10.89,11.53-10.89,7.48,0,11.24,5.15,11.24,10.58,0,6.23-4.99,10.76-11.24,10.76-7.19,0-11.53-4.9-11.53-10.45ZM94.71,186.93c0-5.09-2.36-10.58-8.55-10.58-3.37,0-7.74,2.19-7.74,8.95,0,4.56,2.33,10.49,8.71,10.49,3.89,0,7.58-2.78,7.58-8.85Z"/>
    <path class="cls-5" d="M134.49,183.63c0-1.91-.07-5.46-.62-6.38-.23-.37-.82-.59-1.63-.65l-.82-.06c-.2-.22-.13-.62.07-.74,1.24.06,2.45.09,3.73.09,1.37,0,2.26-.03,3.43-.09.26.15.23.55.07.74l-.79.06c-.82.06-1.44.34-1.63.74-.46,1.02-.46,4.56-.46,6.29v3.49c0,2.68-.46,5.52-2.29,7.37-1.41,1.45-3.83,2.25-6.25,2.25-2.26,0-4.51-.4-6.11-1.7-1.73-1.36-2.55-3.61-2.55-7.28v-7.28c0-3.21-.07-3.73-1.96-3.88l-.82-.06c-.2-.12-.13-.65.07-.74,1.63.06,2.75.09,4.05.09s2.42-.03,4.02-.09c.2.09.26.62.07.74l-.79.06c-1.9.15-1.96.68-1.96,3.88v6.66c0,4.96,1.63,8.23,6.64,8.23,4.74,0,6.54-3.52,6.54-8.2v-3.55Z"/>
    <path class="cls-5" d="M172.49,179.78c0-2.3-.15-2.9-1.77-3.02l-1.16-.11c-.13-.12-.2-.74.04-.76,1.95-.15,4.41-.25,7.77-.25,2.28,0,4.44.16,6.07.87,1.55.65,2.74,1.9,2.74,3.89,0,2.24-1.52,3.4-3.68,4.27,0,.31.29.41.69.47,1.95.31,4.84,1.87,4.84,5.2,0,3.61-3.11,6.04-9.61,6.04-1.05,0-2.82-.09-4.33-.09s-2.82.06-4.16.09c-.22-.09-.29-.59-.07-.78l.65-.1c1.92-.28,1.99-.62,1.99-3.89v-11.84ZM175.45,183.92c0,.87.04.94,1.88.87,3.69-.12,5.67-1.06,5.67-3.99s-2.64-4.2-5.38-4.2c-.8,0-1.34.06-1.66.19-.36.09-.5.25-.5.81v6.32ZM175.45,191.15c0,1.12.07,2.71.76,3.39.69.72,1.77.87,2.85.87,3.22,0,5.67-1.25,5.67-4.36,0-2.46-1.45-5.33-7.19-5.33-1.95,0-2.1.19-2.1.81v4.61Z"/>
    <path class="cls-5" d="M113.6,166.69l-.86-.07c-.17-.02-.33-.04-.47-.06-1.25-.22-1.75-1.34-2.34-2.37l-2.96-5.16c-.51-.86-1.06-2.02-2.23-2.18,3.03-.36,5.77-2.12,5.77-5.12,0-3.47-3.44-5.02-6.91-5.02-2.08,0-3.98.05-6.1.05-1.17,0-2.56-.05-3.73-.05-.65,0-.66.13-.66.49,0,.54.23.39.91.43,2.47.14,2.37.6,2.37,2.71v13.52c0,1.93.17,2.51-1.86,2.69,0,0-.31.03-.49.05l-.86.09c-.21.19-.14.68.07.77.46-.02,1.27-.05,1.27-.05,1.12-.03,2.25-.12,3.37-.12s2.21.09,3.32.12h0c.4.02.81.03,1.27.04.21-.09.27-.59.07-.77l-.87-.08c-.18-.02-.48-.05-.48-.05-2.05-.14-1.93-.72-1.93-2.7v-5.09c0-.3-.04-1.09.18-1.32.18-.2.51-.17.8-.17,2.78,0,2.74.26,4.06,2.58l3.58,6.45c.29.49.51,1.12,1.24,1.12h3.11c.39.01.81.03,1.26.04.21-.09.27-.59.07-.77ZM101.12,156.56c-.62,0-1.87.23-1.87-.59v-5.92c0-2.31.08-2.64,2.85-2.64,3.25,0,5.26,1.65,5.26,4.69,0,1.32-.48,2.54-1.68,3.37-1.39.96-2.89,1.09-4.57,1.09Z"/>
    <g>
      <path class="cls-5" d="M101.79,180.59c0-3.24-.07-3.73-2.2-3.89l-.85-.06c-.2-.12-.14-.68.07-.77,1.9.06,3.05.09,4.41.09s2.48-.03,4.17-.09c.2.09.27.65.07.77l-.81.06c-2,.15-2.07.65-2.07,3.89v10.73c0,1.94.1,2.74.71,3.33.37.34,1.02.71,3.7.71,2.88,0,3.6-.12,4.14-.4.68-.37,1.56-1.48,2.24-3.05.2-.15.85-.03.85.19,0,.34-.95,3.49-1.42,4.32-1.73-.06-4.95-.09-8.45-.09h-3.12c-1.42,0-2.51.03-4.41.09-.2-.09-.27-.59-.07-.77l1.02-.09c1.97-.19,2.04-.62,2.04-3.86v-11.1Z"/>
      <path class="cls-5" d="M192.68,180.65c0-3.27-.07-3.79-2.03-3.95l-.83-.06c-.2-.12-.13-.68.07-.77,1.67.06,2.8.09,4.2.09s2.46-.03,4.13-.09c.2.09.27.65.07.77l-.83.06c-1.96.15-2.03.68-2.03,3.95v10.98c0,3.27.07,3.7,2.03,3.92l.83.09c.2.12.13.68-.07.77-1.67-.06-2.8-.09-4.13-.09-1.4,0-2.53.03-4.2.09-.2-.09-.27-.59-.07-.77l.83-.09c1.97-.21,2.03-.65,2.03-3.92v-10.98Z"/>
      <path class="cls-5" d="M166.06,195.54c-.17-.02-.49-.04-.49-.04-.35-.04-.67-.08-.92-.36-.43-.46-.4-1.77-.4-2.29v-13.52c0-.59-.14-1.87.29-2.32.22-.24.67-.28,1.07-.3h0c.24-.02.25-.02.46-.03l.86-.06c.21-.12.14-.68-.07-.77-.46.02-.87,0-1.27.02h-3.64c-.4,0-.76,0-.97.43l-7.42,15.45-6.55-14.92c-.22-.53-.25-.95-.94-.95h-3.79c-.39-.01-.83,0-1.29-.02-.21.09-.27.65-.07.77l.85.06c.18.01.5.04.5.04,1.42.09,1.51.41,1.38,1.9l-1.11,14.5c-.1,1.45-.18,2.22-1.7,2.37,0,0-.32.04-.5.06l-.86.09c-.21.18-.14.68.07.77.45-.02,1.25-.04,1.25-.04.77-.04,1.56-.11,2.35-.11.85,0,1.7.08,2.55.11h0c.39.01.81.03,1.27.04.2-.09.27-.58.07-.77l-.86-.09c-.23-.02-.48-.04-.48-.04-2.2-.15-2.15-1.71-2.01-3.6l1.04-13.48h.25l7.09,16.59c.07.23.18.62.54.62.33,0,.43-.36.54-.59l7.99-17.02h.25v14.83c0,.59.07,1.8-.54,2.26-.32.24-1.36.38-1.36.38-.14.02-.3.04-.46.06l-.86.09c-.2.18-.14.68.07.77.45-.01,1.25-.04,1.25-.04,1.16-.03,2.34-.12,3.52-.12.85,0,2.51.08,2.51.08.39,0,.85.05,1.3.07.21-.09.27-.59.07-.77l-.85-.09Z"/>
      <path class="cls-5" d="M221.69,195.63l-.12-.09c-.17-.02-.32-.04-.47-.06-1.33-.3-1.85-1.91-2.35-3.05l-6.86-16.25c-.07-.19-.2-.61-.48-.61-.37,0-.47.45-.58.71l-6.56,16.21c-.24.61-.85,2.1-1.29,2.55-.34.35-.78.41-1.25.46,0,0-.37.04-.55.05l-.81.08c-.2.18-.14.68.07.77.46-.01,1.27-.04,1.27-.04.9-.01,1.79-.12,2.69-.12.75,0,1.51.08,2.27.11,0,0,.81.03,1.27.05.21-.09.27-.59.07-.77l-.86-.09c-.17-.02-.46-.05-.46-.05-.79-.09-1.77-.23-1.77-1.09,0-.58.27-1.26.47-1.78l1.02-2.43c.51-1.16.31-1.3,1.66-1.3h4.62c1.63,0,1.39,0,2.11,1.65l1.09,2.46c.17.42.47,1.13.47,1.59,0,.81-.89.87-1.72.94,0,0-.28.02-.51.04l-.82.06c-.21.18-.14.68.07.77.46-.02,1.27-.05,1.27-.05.97-.04,1.94-.11,2.87-.11,1.19,0,2.38.08,3.57.11h0c.39.01.06.03.51.04.2-.09.27-.59.07-.77ZM212.7,187.99h-4.01c-.14,0-1.25.13-1.25-.2,0-.1.07-.29.11-.39l2.4-5.96c.07-.16.31-.98.59-.98.21,0,.49.85.56.98l2.37,5.56c0,.07.24.59.24.72,0,.36-.8.26-1.01.26Z"/>
    </g>
  </g>
  <path class="cls-5" d="M87.92,125.32c21.68,0,51.67,12.21,73.43,12.21,15.53,0,30.68-4.14,39.31-10.25.6-3.58.92-7.26.92-11.02,0-36.44-29.54-65.98-65.98-65.98s-65.98,29.54-65.98,65.98c0,3.71.31,7.35.9,10.89,2.38-.44,10.46-1.84,17.39-1.84Z"/>
  <g>
    <polygon class="cls-1" points="178.23 101.01 180.83 102.09 186.62 98.06 178.23 101.01"/>
    <path class="cls-4" d="M81.02,96.5l-6.86-2.41.34-.84,7.72,2.58.03-.02,1.02-.58.41-.26-8.42-3.58.36-.88,18.8,7.6.62-.26-18.64-9.08.42-.85,19.75,9.19.27-.14-19.15-10.86.39-.82,27.66,15.05c.23-.42.7-1.18.95-1.59-10.52-9.89-20.66-17.31-20.66-17.31,0,0,10.44,6.99,23.32,13.49.43-.53.77-.96,1.23-1.46l-23.6-20.77.63-.65,19.05,16.23-17.64-17.67.66-.68,19.81,19.14-18.44-20.47.71-.64,17.04,18.25-15.55-19.6.67-.61,19.94,24.27c.51-.45.94-.78,1.48-1.19-6.03-13.05-12.62-23.67-12.62-23.67,0,0,7.01,10.32,16.47,21.13.58-.32,1.16-.64,1.76-.93l-.1-.07-13.97-27.89.83-.37,11.58,22.18-9.74-22.99.87-.39,11.2,25.17-9.43-25.88.89-.33,8.97,23.31-7.08-24,.85-.31,9.32,29.77-.02.08h.02c.62-.22,1.25-.4,1.88-.57-.71-14.3-2.82-26.53-2.82-26.53,0,0,2.62,12.12,7.31,25.64.65-.08,1.31-.15,1.98-.19l-.02-.03h.08l-.05-.07-2.51-31.09.91-.03,2.42,24.91-.42-24.97.95-.03.95,27.53.95-27.53.95.03-.42,24.97,2.42-24.9.91.03-2.51,31.09-.05.07h.01,0s.04,0,.04,0c.65.04,1.29.11,1.93.18,4.69-13.5,7.3-25.61,7.3-25.61,0,0-2.11,12.19-2.82,26.46.64.17,1.27.36,1.9.56l9.29-29.66.85.31-7.08,24,8.97-23.3.89.33-9.43,25.88,11.2-25.17.87.39-9.74,22.99,11.58-22.18.83.37-13.92,27.79h.02c.57.29,1.14.59,1.69.9,9.42-10.77,16.39-21.03,16.39-21.03,0,0-6.54,10.54-12.56,23.53.54.41,1.06.83,1.57,1.26l19.71-24,.67.61-15.56,19.6,17.04-18.25.7.64-18.44,20.47,19.81-19.15.66.69-17.64,17.67,19.04-16.23.63.65-23.31,20.54h.01c.41.47.8.94,1.18,1.41,12.8-6.47,23.14-13.4,23.14-13.4,0,0-10.05,7.35-20.51,17.17.29.48.75,1.29,1.01,1.79l27.27-14.85.4.82-21.77,12.34,22.64-10.54.41.85-21.09,10.28.41.14,21.46-8.68.36.88-19.95,8.48.37.15,13.29-4.43,2-1.4.66.51,4.37-1.46.34.84-3.78,1.33,5.47,4.17,1.75.98c-7.03-29.38-33.46-51.22-64.99-51.22s-58.89,22.62-65.34,52.78c.08-.04.16-.08.25-.12l.8-.36.49-.23,9.22-5.17Z"/>
  </g>
  <path class="cls-3" d="M69.88,128.58s9.86-1.97,18.09-1.97c21.68,0,51.67,12.21,73.43,12.21,15.96,0,31.53-4.38,40.02-10.77.66-3.78,1.01-7.66,1.01-11.63,0-5.37-.64-10.6-1.83-15.6l-9.07-5.06-10.64,7.47-7.16-2.79c-2.42,1.22-17.38,11.23-17.38,11.23l-5.74-4.15-6.16-1.22-8.21-5.98-9.42,6.47s-10.51,6.1-10.87,6.1-12.68-9.76-12.68-9.76l-5.67-5.98c-.97.61-4.83,2.38-4.83,2.38l-.2.05-3.73-1.16-4.54-2.41-13.78,6.25c-.08.04-.16.08-.25.12-.97,4.53-1.48,9.23-1.48,14.05,0,4.15.38,8.21,1.11,12.15Z"/>
</svg>