<svg id="Ministry" xmlns="http://www.w3.org/2000/svg" viewBox="0 0 619.75 244.63"><defs><style>.cls-1{fill:#043673;}.cls-2{fill:none;}.cls-3{fill:#fdb913;}.cls-4{fill:#fff;}.cls-5{fill:#e3a82b;}</style></defs><title>BC_CFD_H_RGB_pos</title><path class="cls-1" d="M286.65,108.62c.89,1.81,1.73,3.58,2.66,5.28h.07c1-1.81,2-3.82,3-5.78l3.62-7.35c1.73-3.51,2.84-5.62,2.92-7.39,1.31.11,2.12.11,2.89.11,1,0,2.23,0,3.43-.11a.8.8,0,0,1,0,1l-.8.08c-2.43.23-2.74,1-2.7,3.65.08,4.08.12,11.21.42,16.75.12,1.92.08,3,1.89,3.12l1.23.11a.72.72,0,0,1-.07,1c-1.58-.08-3.16-.12-4.55-.12s-3.08,0-4.66.12a.72.72,0,0,1-.07-1l1.11-.11c1.89-.19,1.89-.81,1.89-3.27l-.12-16.06h-.07c-.27.43-1.73,3.51-2.5,5l-3.43,6.73c-1.73,3.39-3.47,7-4.16,8.78a.44.44,0,0,1-.38.16.47.47,0,0,1-.35-.16c-.65-2-2.5-5.81-3.39-7.7L281.07,104c-.81-1.77-1.62-3.77-2.47-5.54h-.07c-.16,2.38-.27,4.62-.39,6.85s-.27,5.77-.27,9c0,2.85.23,3.46,1.73,3.58l1.47.11c.27.23.23.85,0,1-1.31-.08-2.81-.12-4.27-.12-1.24,0-2.62,0-3.93.12a.77.77,0,0,1-.08-1l.85-.11c1.62-.23,2.15-.46,2.39-3.16.23-2.54.42-4.66.65-8.47.19-3.19.35-6.47.42-8.58.08-2.43-.23-3-2.58-3.31l-.61-.08a.72.72,0,0,1,.15-1c1.16.07,2.08.11,3,.11s1.93,0,3.2-.11c-.15,1.5.81,3.88,2,6.35Z" transform="translate(0 0)"/><path class="cls-1" d="M309.71,107.85c0-1.5,0-1.69-1-2.39l-.34-.23a.52.52,0,0,1,0-.69,26.47,26.47,0,0,0,4-1.89c.19,0,.35.08.38.23-.07,1.35-.15,3.2-.15,4.78v6.93c0,2.77.08,3.16,1.46,3.35l.81.11a.68.68,0,0,1-.08,1c-1.15-.08-2.27-.12-3.61-.12s-2.55,0-3.62.12a.68.68,0,0,1-.08-1l.81-.11c1.42-.19,1.46-.58,1.46-3.35Zm3.2-11a2,2,0,0,1-4,.08A2,2,0,0,1,311,94.88,1.92,1.92,0,0,1,312.91,96.88Z" transform="translate(0 0)"/><path class="cls-1" d="M319.22,107.85c0-1.5,0-1.69-1-2.39l-.35-.23a.53.53,0,0,1,0-.69,20.82,20.82,0,0,0,3.85-1.89.46.46,0,0,1,.43.27c-.08.89-.08,1.47-.08,1.81a.41.41,0,0,0,.42.43,10.59,10.59,0,0,1,5.39-2c3.2,0,4.51,2.2,4.51,4.78v6.62c0,2.77.07,3.16,1.46,3.35l.85.11a.68.68,0,0,1-.08,1c-1.16-.08-2.27-.12-3.62-.12s-2.54,0-3.58.12a.68.68,0,0,1-.08-1l.73-.11c1.43-.23,1.47-.58,1.47-3.35v-5.74c0-2.19-1-3.81-3.62-3.81a4.2,4.2,0,0,0-3.27,1.35,3.23,3.23,0,0,0-.58,2.31v5.89c0,2.77.08,3.12,1.46,3.35l.69.11a.68.68,0,0,1-.07,1c-1-.08-2.16-.12-3.51-.12s-2.54,0-3.61.12a.68.68,0,0,1-.08-1l.81-.11c1.42-.19,1.46-.58,1.46-3.35Z" transform="translate(0 0)"/><path class="cls-1" d="M339.05,107.85c0-1.5,0-1.69-1-2.39l-.35-.23a.53.53,0,0,1,0-.69,26.47,26.47,0,0,0,4-1.89.36.36,0,0,1,.38.23c-.08,1.35-.15,3.2-.15,4.78v6.93c0,2.77.07,3.16,1.46,3.35l.81.11a.68.68,0,0,1-.08,1c-1.15-.08-2.27-.12-3.62-.12s-2.54,0-3.62.12a.68.68,0,0,1-.07-1l.8-.11c1.43-.19,1.47-.58,1.47-3.35Zm3.19-11a2,2,0,0,1-4,.08,2,2,0,0,1,2.08-2.08A1.92,1.92,0,0,1,342.24,96.88Z" transform="translate(0 0)"/><path class="cls-1" d="M355.33,103.89A8.83,8.83,0,0,1,356,107a.68.68,0,0,1-.93.12c-.65-1.69-1.81-2.81-3.38-2.81a2.28,2.28,0,0,0-2.47,2.35c0,1.58,1.62,2.42,3,3.19,2,1.16,3.92,2.47,3.92,5.2,0,2.93-2.69,4.39-5.54,4.39a6.4,6.4,0,0,1-4.12-1.16,11.27,11.27,0,0,1-.46-3.88.65.65,0,0,1,.88,0c.66,2.11,1.89,4,4.09,4a2.37,2.37,0,0,0,2.57-2.46c0-1.77-1.54-2.73-3-3.54-2.23-1.27-3.81-2.62-3.81-4.74,0-2.81,2.31-4.39,5.23-4.39A6.75,6.75,0,0,1,355.33,103.89Z" transform="translate(0 0)"/><path class="cls-1" d="M363.76,105.35c-.65,0-.69.11-.69.92v7.2c0,2.24.27,4.28,2.81,4.28a2.83,2.83,0,0,0,1-.2c.35-.11.85-.54,1-.54.31,0,.46.43.39.66a5.32,5.32,0,0,1-4,1.77c-3.31,0-4-1.85-4-4.16v-8.81c0-1,0-1.12-.81-1.12h-1.08a.65.65,0,0,1-.11-.81,7.74,7.74,0,0,0,2.46-1.19,9.56,9.56,0,0,0,1.62-2.27c.19-.08.66-.08.81.19V103c0,.69,0,.73.69.73h4.28a1.23,1.23,0,0,1,0,1.62Z" transform="translate(0 0)"/><path class="cls-1" d="M372,107.85c0-1.5,0-1.69-1-2.39l-.34-.23a.52.52,0,0,1,0-.69,29.38,29.38,0,0,0,3.89-1.89c.19,0,.31.12.31.27v2.24c0,.19,0,.3.12.34,1.34-1.11,2.81-2.31,4.23-2.31a1.6,1.6,0,0,1,1.73,1.54,1.71,1.71,0,0,1-1.65,1.77,1.44,1.44,0,0,1-.85-.27,3.18,3.18,0,0,0-1.69-.61,1.7,1.7,0,0,0-1.39.77,5.89,5.89,0,0,0-.5,3v5.24c0,2.77.08,3.23,1.54,3.35l1.39.11a.68.68,0,0,1-.08,1c-1.81-.08-2.93-.12-4.27-.12s-2.55,0-3.55.12a.68.68,0,0,1-.07-1l.73-.11c1.42-.23,1.46-.58,1.46-3.35Z" transform="translate(0 0)"/><path class="cls-1" d="M382.28,126.83a1.43,1.43,0,0,1,1.54-1.54h.73a1.4,1.4,0,0,0,1.27-.69,24.71,24.71,0,0,0,2.24-4.27,6.08,6.08,0,0,0,.38-1.66,7.33,7.33,0,0,0-.65-2.66l-3-8.24c-.65-1.81-.92-2.73-2.27-3l-1-.19c-.23-.19-.19-.85.12-1,1.23.07,2.38.11,3.65.11,1,0,2.12,0,3.35-.11.31.11.35.77.08,1l-1,.19c-.54.12-.85.23-.85.5a29.22,29.22,0,0,0,1.12,3.62l1.23,3.54a22.27,22.27,0,0,0,1.11,2.74,17.88,17.88,0,0,0,1.43-2.85l1.31-3a18.65,18.65,0,0,0,1.35-3.85c0-.27-.24-.54-.93-.66l-1.19-.19c-.27-.19-.23-.85.08-1,1.23.07,2.38.11,3.38.11s1.85,0,2.93-.11a.65.65,0,0,1,.08,1l-.66.11c-1.27.24-2,1.35-3.27,4.09l-2.16,4.42c-1.27,2.58-4.42,9.28-6.31,13.48a2.56,2.56,0,0,1-2.46,1.81A1.55,1.55,0,0,1,382.28,126.83Z" transform="translate(0 0)"/><path class="cls-1" d="M424.44,111.16c0,4.81-3.31,8.28-8.13,8.28a7.61,7.61,0,0,1-7.89-7.93,8.1,8.1,0,0,1,8.2-8.32A7.7,7.7,0,0,1,424.44,111.16Zm-8.28-6.81c-2.54,0-4.43,2.42-4.43,6.66,0,3.5,1.58,7.27,5,7.27s4.43-3.54,4.43-6.5C421.13,108.51,419.82,104.35,416.16,104.35Z" transform="translate(0 0)"/><path class="cls-1" d="M432.56,105.35c-.65,0-.65.08-.65,1.12v8.12c0,2.77.07,3.23,1.46,3.35l1.39.11a.69.69,0,0,1-.08,1c-1.73-.08-2.85-.12-4.2-.12s-2.54,0-3.69.12a.68.68,0,0,1-.08-1l.88-.11c1.43-.19,1.47-.58,1.47-3.35v-8.12c0-1,0-1.12-.77-1.12h-1.35a.53.53,0,0,1-.11-.73l1.65-.81a.87.87,0,0,0,.58-.77,17.37,17.37,0,0,1,1.19-6.78,7.58,7.58,0,0,1,6.93-4.89c2,0,3.77.93,3.77,2.31a1.48,1.48,0,0,1-1.46,1.39,1.09,1.09,0,0,1-.92-.46,4.31,4.31,0,0,0-3.08-1.7A3,3,0,0,0,432.75,95a20.51,20.51,0,0,0-.84,6.51v1.11c0,1,0,1.08.65,1.08H437a1.2,1.2,0,0,1-.27,1.62Z" transform="translate(0 0)"/><path class="cls-1" d="M278.22,134.65a16.55,16.55,0,0,1,10.39-3.27,29.78,29.78,0,0,1,6.82.92,2.75,2.75,0,0,0,1.07.15c0,.89.24,3.31.54,5.66a.81.81,0,0,1-1,.08c-.57-2.62-2.31-5.62-7.89-5.62-5.89,0-10.89,3.73-10.89,11.7s5.12,12.55,11.43,12.55a8.21,8.21,0,0,0,8.05-5.5.81.81,0,0,1,1,.15,14.54,14.54,0,0,1-1.85,5.28,7.72,7.72,0,0,0-1.35.38,22.52,22.52,0,0,1-6.08.89,17,17,0,0,1-9.59-2.58,12.41,12.41,0,0,1-5.46-10.59A12.77,12.77,0,0,1,278.22,134.65Z" transform="translate(0 0)"/><path class="cls-1" d="M301.47,135.69c0-2.27,0-2.5-1.19-3.2l-.39-.23a.59.59,0,0,1,0-.77,26.2,26.2,0,0,0,4.16-1.62.43.43,0,0,1,.39.24c0,1.15-.12,3.08-.12,4.77V143c0,.35,0,.66.16.74a8.71,8.71,0,0,1,5.19-2c3.66,0,5,2.27,5,5v6.43c0,2.77.08,3.19,1.46,3.35l1,.11a.68.68,0,0,1-.08,1c-1.38-.08-2.5-.12-3.85-.12s-2.54,0-3.58.12a.69.69,0,0,1-.07-1l.77-.11c1.42-.23,1.46-.58,1.46-3.35v-5.51c0-2.46-1.19-4.12-3.66-4.12a4.63,4.63,0,0,0-3,1c-.69.58-.81.77-.81,2.12v6.47c0,2.77.08,3.16,1.46,3.35l.81.11c.27.16.2.85-.07,1-1.16-.08-2.28-.12-3.62-.12s-2.54,0-3.78.12a.69.69,0,0,1-.07-1l1-.11c1.42-.16,1.46-.58,1.46-3.35Z" transform="translate(0 0)"/><path class="cls-1" d="M321.3,146.35c0-1.5,0-1.69-1-2.39l-.35-.23a.53.53,0,0,1,0-.69,26.47,26.47,0,0,0,4-1.89.36.36,0,0,1,.38.23c-.07,1.35-.15,3.2-.15,4.78v6.93c0,2.77.08,3.16,1.46,3.35l.81.11a.68.68,0,0,1-.08,1c-1.15-.08-2.27-.12-3.62-.12s-2.54,0-3.61.12a.68.68,0,0,1-.08-1l.81-.11c1.42-.19,1.46-.58,1.46-3.35Zm3.2-11a2,2,0,0,1-4,.08,2,2,0,0,1,2.08-2.08A1.92,1.92,0,0,1,324.5,135.38Z" transform="translate(0 0)"/><path class="cls-1" d="M333.27,153.09c0,2.77.08,3.16,1.47,3.35l.92.11a.68.68,0,0,1-.08,1c-1.27-.08-2.38-.12-3.73-.12s-2.54,0-3.7.12a.68.68,0,0,1-.07-1l.88-.11c1.43-.19,1.46-.58,1.46-3.35v-17.4c0-2.27,0-2.5-1.19-3.2l-.38-.23a.57.57,0,0,1,0-.77,26.51,26.51,0,0,0,4.15-1.62.43.43,0,0,1,.39.24c0,1.15-.12,3.08-.12,4.77Z" transform="translate(0 0)"/><path class="cls-1" d="M352.48,151.78c0,3,0,4.47,1.12,4.47a6.35,6.35,0,0,0,1.65-.39c.27.08.31,1,0,1.23a29.26,29.26,0,0,0-5.09,1.23c-.23,0-.42-.11-.42-.3v-.66a4.08,4.08,0,0,0-.08-1.19h-.15a8,8,0,0,1-4.85,1.77,7.07,7.07,0,0,1-7.12-7.39c0-5.39,4.08-8.86,9.31-8.86a8,8,0,0,1,2.58.35c.2,0,.23-.23.23-.54v-5.81c0-2.27,0-2.5-1.19-3.2l-.38-.23a.57.57,0,0,1,0-.77,26.51,26.51,0,0,0,4.15-1.62.43.43,0,0,1,.39.24c0,1.15-.12,3.08-.12,4.77ZM349.63,146a2.28,2.28,0,0,0-.42-1.5,4,4,0,0,0-3.23-1.61c-3.51,0-5.32,3-5.32,6.39,0,3.5,2,6.81,5.74,6.81a4.71,4.71,0,0,0,3-1.08,2.33,2.33,0,0,0,.26-1.42Z" transform="translate(0 0)"/><path class="cls-1" d="M359.14,146.35c0-1.5,0-1.69-1-2.39l-.34-.23a.51.51,0,0,1,0-.69,29.9,29.9,0,0,0,3.88-1.89c.2,0,.31.12.31.27v2.24c0,.19,0,.3.12.34,1.35-1.11,2.81-2.31,4.23-2.31a1.6,1.6,0,0,1,1.74,1.54,1.71,1.71,0,0,1-1.66,1.77,1.46,1.46,0,0,1-.85-.27,3.15,3.15,0,0,0-1.69-.61,1.7,1.7,0,0,0-1.39.77,5.89,5.89,0,0,0-.5,3v5.24c0,2.77.08,3.23,1.54,3.35l1.39.11a.68.68,0,0,1-.08,1c-1.81-.08-2.92-.12-4.27-.12s-2.54,0-3.54.12a.68.68,0,0,1-.08-1l.73-.11c1.43-.23,1.46-.58,1.46-3.35Z" transform="translate(0 0)"/><path class="cls-1" d="M372.39,147.54c-1,0-1,.08-1,1,0,3.89,2.27,7.2,6.39,7.2a4.14,4.14,0,0,0,3.54-1.88.5.5,0,0,1,.69.46,6.72,6.72,0,0,1-6,3.58,6.9,6.9,0,0,1-5.58-2.54,8.15,8.15,0,0,1-1.62-5c0-4.73,3.12-8.7,7.74-8.7,3.31,0,5.46,2.27,5.46,4.58a2.42,2.42,0,0,1-.15,1c-.11.23-.65.26-2.27.26Zm2.38-1.15c2.85,0,3.7-.15,4-.39.11-.07.23-.23.23-.73,0-1.07-.73-2.42-3-2.42s-4.23,2.08-4.27,3.35c0,.07,0,.19.27.19Z" transform="translate(0 0)"/><path class="cls-1" d="M386,146.35c0-1.5,0-1.69-1-2.39l-.35-.23a.53.53,0,0,1,0-.69,21.14,21.14,0,0,0,3.85-1.89.45.45,0,0,1,.42.27c-.07.89-.07,1.47-.07,1.81a.41.41,0,0,0,.42.43,10.59,10.59,0,0,1,5.39-2c3.19,0,4.5,2.2,4.5,4.78v6.62c0,2.77.08,3.16,1.47,3.35l.84.11a.68.68,0,0,1-.07,1c-1.16-.08-2.28-.12-3.62-.12s-2.54,0-3.58.12a.68.68,0,0,1-.08-1l.73-.11c1.43-.23,1.46-.58,1.46-3.35v-5.74c0-2.19-1-3.81-3.61-3.81a4.21,4.21,0,0,0-3.28,1.35,3.23,3.23,0,0,0-.57,2.31v5.89c0,2.77.07,3.12,1.46,3.35l.69.11a.68.68,0,0,1-.08,1c-1-.08-2.15-.12-3.5-.12s-2.54,0-3.62.12a.68.68,0,0,1-.07-1l.8-.11c1.43-.19,1.47-.58,1.47-3.35Z" transform="translate(0 0)"/><path class="cls-1" d="M420.44,149.43c.57-.19.65-.54.65-1.12l0-1.77c0-1.42-.42-3.35-2.81-3.35-1.08,0-2.39.54-2.47,1.74,0,.61-.07,1.07-.38,1.31a4.17,4.17,0,0,1-2.19.73.49.49,0,0,1-.54-.54c0-2,4.35-4.74,7.16-4.74s4.12,1.62,4,4.51l-.23,6.7c-.08,1.77.27,3.35,1.77,3.35a2.11,2.11,0,0,0,1-.24,1.71,1.71,0,0,1,.5-.26c.16,0,.27.23.27.5a4,4,0,0,1-3.23,1.69,3.07,3.07,0,0,1-2.5-1.19c-.16-.24-.39-.54-.62-.54a5.68,5.68,0,0,0-1.5.77,5.71,5.71,0,0,1-2.77,1,4,4,0,0,1-2.7-.89,3.58,3.58,0,0,1-1.19-2.69c0-1.5.73-2.39,3.19-3.27Zm-2.39,6.78a4.34,4.34,0,0,0,2.35-1c.46-.46.46-1,.5-1.8l.07-2.28c0-.42-.15-.5-.38-.5a7.41,7.41,0,0,0-1.58.39c-2.27.77-3.39,1.35-3.39,2.85A2.32,2.32,0,0,0,418.05,156.21Z" transform="translate(0 0)"/><path class="cls-1" d="M430.25,146.35c0-1.5,0-1.69-1-2.39l-.34-.23a.51.51,0,0,1,0-.69,21.14,21.14,0,0,0,3.85-1.89.46.46,0,0,1,.42.27c-.08.89-.08,1.47-.08,1.81a.41.41,0,0,0,.43.43,10.53,10.53,0,0,1,5.39-2c3.19,0,4.5,2.2,4.5,4.78v6.62c0,2.77.08,3.16,1.46,3.35l.85.11a.68.68,0,0,1-.08,1c-1.15-.08-2.27-.12-3.62-.12s-2.54,0-3.58.12a.68.68,0,0,1-.07-1l.73-.11c1.42-.23,1.46-.58,1.46-3.35v-5.74c0-2.19-1-3.81-3.62-3.81a4.2,4.2,0,0,0-3.27,1.35,3.23,3.23,0,0,0-.58,2.31v5.89c0,2.77.08,3.12,1.47,3.35l.69.11a.68.68,0,0,1-.08,1c-1-.08-2.15-.12-3.5-.12s-2.54,0-3.62.12a.68.68,0,0,1-.08-1l.81-.11c1.42-.19,1.46-.58,1.46-3.35Z" transform="translate(0 0)"/><path class="cls-1" d="M462.63,151.78c0,3,0,4.47,1.12,4.47a6.35,6.35,0,0,0,1.65-.39c.27.08.31,1,0,1.23a29.36,29.36,0,0,0-5.08,1.23c-.23,0-.42-.11-.42-.3v-.66a4.08,4.08,0,0,0-.08-1.19h-.15a8.05,8.05,0,0,1-4.85,1.77,7.07,7.07,0,0,1-7.12-7.39c0-5.39,4.08-8.86,9.31-8.86a8,8,0,0,1,2.58.35c.19,0,.23-.23.23-.54v-5.81c0-2.27,0-2.5-1.19-3.2l-.39-.23a.59.59,0,0,1,0-.77,26.2,26.2,0,0,0,4.16-1.62.43.43,0,0,1,.39.24c0,1.15-.12,3.08-.12,4.77ZM459.78,146a2.28,2.28,0,0,0-.42-1.5,4,4,0,0,0-3.23-1.61c-3.51,0-5.32,3-5.32,6.39,0,3.5,2,6.81,5.74,6.81a4.66,4.66,0,0,0,3-1.08,2.32,2.32,0,0,0,.27-1.42Z" transform="translate(0 0)"/><path class="cls-1" d="M482.84,142.85c0,1,.12,1,1.27,1h2.62a14.74,14.74,0,0,0,3.27-.23c.43-.16.73-.35,1-1.35l.34-1.54a.81.81,0,0,1,1,0c0,.92-.15,2.46-.15,3.89s.15,2.85.15,3.73c-.15.23-.73.23-1,0l-.38-1.5a1.86,1.86,0,0,0-1.23-1.46,12.86,12.86,0,0,0-3-.19h-2.62c-1.15,0-1.27,0-1.27,1v5.36c0,4,.08,4.62,2.35,4.81l1.31.11c.23.16.15.85-.08,1-2.27-.08-3.58-.12-5.12-.12-1.69,0-3,0-4.81.12a.76.76,0,0,1-.08-1l1-.11c2.23-.27,2.31-.77,2.31-4.81V137.77c0-4.05-.08-4.58-2.31-4.85l-.62-.08c-.23-.16-.15-.85.08-1,1.61.07,2.92.11,4.46.11h7.09c2.46,0,4.69,0,5.19-.11,0,1.77,0,3.62.12,5.08a.7.7,0,0,1-.93.11c-.3-1.73-.77-3.15-2.69-3.65a16.52,16.52,0,0,0-3.73-.23H484c-1.16,0-1.16.07-1.16,1.54Z" transform="translate(0 0)"/><path class="cls-1" d="M502.36,149.43c.58-.19.66-.54.66-1.12l0-1.77c0-1.42-.43-3.35-2.81-3.35-1.08,0-2.39.54-2.47,1.74,0,.61-.08,1.07-.38,1.31a4.18,4.18,0,0,1-2.2.73.49.49,0,0,1-.54-.54c0-2,4.35-4.74,7.16-4.74s4.12,1.62,4,4.51l-.23,6.7c-.08,1.77.27,3.35,1.77,3.35a2.15,2.15,0,0,0,1-.24c.19-.11.38-.26.5-.26s.27.23.27.5a4,4,0,0,1-3.23,1.69,3.1,3.1,0,0,1-2.51-1.19c-.15-.24-.38-.54-.61-.54a5.68,5.68,0,0,0-1.5.77,5.75,5.75,0,0,1-2.78,1,4,4,0,0,1-2.69-.89,3.58,3.58,0,0,1-1.19-2.69c0-1.5.73-2.39,3.19-3.27ZM500,156.21a4.28,4.28,0,0,0,2.34-1c.47-.46.47-1,.5-1.8l.08-2.28c0-.42-.15-.5-.38-.5a7.41,7.41,0,0,0-1.58.39c-2.27.77-3.39,1.35-3.39,2.85A2.32,2.32,0,0,0,500,156.21Z" transform="translate(0 0)"/><path class="cls-1" d="M532.58,147.51c0-2.62-1.15-4-3.58-4a4.15,4.15,0,0,0-3.19,1.35c-.46.58-.58,1-.58,2.31v5.89c0,2.77.08,3.16,1.46,3.35l.81.11a.68.68,0,0,1-.08,1c-1.15-.08-2.27-.12-3.61-.12s-2.43,0-3.51.12a.68.68,0,0,1-.07-1l.69-.11c1.42-.23,1.46-.58,1.46-3.35v-5.58c0-2.58-1.15-4-3.54-4a4.08,4.08,0,0,0-3.23,1.39,3,3,0,0,0-.58,2.19v6c0,2.77.08,3.12,1.46,3.35l.69.11a.68.68,0,0,1-.07,1c-1-.08-2.16-.12-3.51-.12s-2.54,0-3.73.12a.68.68,0,0,1-.08-1l.93-.11c1.42-.19,1.46-.58,1.46-3.35v-6.74c0-1.5,0-1.69-1-2.39l-.35-.23a.53.53,0,0,1,0-.69,20.82,20.82,0,0,0,3.85-1.89.46.46,0,0,1,.43.27c-.08.89-.08,1.47-.08,1.81a.41.41,0,0,0,.42.43,9.27,9.27,0,0,1,5.12-2,4.39,4.39,0,0,1,4.08,2.27,1.21,1.21,0,0,0,1-.3,9.62,9.62,0,0,1,5.23-2c3.08,0,4.58,2.12,4.58,4.78v6.62c0,2.77.08,3.16,1.47,3.35l.92.11a.68.68,0,0,1-.08,1c-1.27-.08-2.38-.12-3.73-.12s-2.43,0-3.51.12a.69.69,0,0,1-.07-1l.69-.11c1.43-.23,1.46-.58,1.46-3.35Z" transform="translate(0 0)"/><path class="cls-1" d="M542.09,146.35c0-1.5,0-1.69-1-2.39l-.34-.23a.51.51,0,0,1,0-.69,26.37,26.37,0,0,0,4-1.89.37.37,0,0,1,.39.23c-.08,1.35-.16,3.2-.16,4.78v6.93c0,2.77.08,3.16,1.47,3.35l.8.11a.68.68,0,0,1-.07,1c-1.16-.08-2.27-.12-3.62-.12s-2.54,0-3.62.12a.68.68,0,0,1-.08-1l.81-.11c1.43-.19,1.46-.58,1.46-3.35Zm3.2-11a2,2,0,0,1-4,.08,2,2,0,0,1,2.07-2.08A1.92,1.92,0,0,1,545.29,135.38Z" transform="translate(0 0)"/><path class="cls-1" d="M554.07,153.09c0,2.77.07,3.16,1.46,3.35l.92.11a.68.68,0,0,1-.07,1c-1.27-.08-2.39-.12-3.74-.12s-2.54,0-3.69.12a.68.68,0,0,1-.08-1l.88-.11c1.43-.19,1.47-.58,1.47-3.35v-17.4c0-2.27,0-2.5-1.2-3.2l-.38-.23a.59.59,0,0,1,0-.77,27,27,0,0,0,4.16-1.62.41.41,0,0,1,.38.24c0,1.15-.11,3.08-.11,4.77Z" transform="translate(0 0)"/><path class="cls-1" d="M557.88,165.33a1.43,1.43,0,0,1,1.54-1.54h.73a1.4,1.4,0,0,0,1.27-.69,23.82,23.82,0,0,0,2.23-4.27,5.71,5.71,0,0,0,.39-1.66,7.41,7.41,0,0,0-.66-2.66l-3-8.24c-.65-1.81-.92-2.73-2.27-3l-1-.19c-.23-.19-.2-.85.11-1,1.23.07,2.39.11,3.66.11,1,0,2.12,0,3.35-.11.31.11.35.77.08,1l-1,.19c-.54.12-.84.23-.84.5a29.06,29.06,0,0,0,1.11,3.62l1.23,3.54a23.72,23.72,0,0,0,1.12,2.74,18.89,18.89,0,0,0,1.43-2.85l1.3-3a18,18,0,0,0,1.35-3.85c0-.27-.23-.54-.92-.66l-1.2-.19c-.26-.19-.23-.85.08-1,1.23.07,2.39.11,3.39.11s1.85,0,2.93-.11a.65.65,0,0,1,.07,1l-.65.11c-1.27.24-2,1.35-3.27,4.09l-2.16,4.42c-1.27,2.58-4.43,9.28-6.31,13.48a2.57,2.57,0,0,1-2.47,1.81A1.55,1.55,0,0,1,557.88,165.33Z" transform="translate(0 0)"/><path class="cls-1" d="M276.6,175.5c0-2.7-.19-3.51-1.81-3.74l-.84-.11a.58.58,0,0,1,0-1c3.28-.19,6.39-.3,9.67-.3a24.27,24.27,0,0,1,8.47,1.15,11.55,11.55,0,0,1,7.81,11.36,12.63,12.63,0,0,1-6.74,11.47,18.53,18.53,0,0,1-8.62,1.85c-2.46,0-4.93-.31-6.27-.31-1.62,0-3,0-4.82.12a.76.76,0,0,1-.07-1l.88-.11c2.23-.31,2.31-.77,2.31-4.81Zm3.16,13.74c0,2,.11,3.27.77,4.2.85,1.19,2.31,1.57,4.73,1.57,7.47,0,10.82-4.88,10.82-12,0-4.23-2-11.39-12.13-11.39-2.27,0-3.5.31-3.81.54s-.38,1.19-.38,2.92Z" transform="translate(0 0)"/><path class="cls-1" d="M306.09,186c-1,0-1,.08-1,1,0,3.89,2.27,7.2,6.39,7.2A4.16,4.16,0,0,0,315,192.4a.5.5,0,0,1,.69.46,6.72,6.72,0,0,1-6.05,3.58,6.91,6.91,0,0,1-5.58-2.54,8.2,8.2,0,0,1-1.61-5c0-4.73,3.11-8.7,7.73-8.7,3.31,0,5.47,2.27,5.47,4.58a2.61,2.61,0,0,1-.15,1c-.12.23-.66.26-2.28.26Zm2.39-1.15c2.85,0,3.7-.15,4-.39.12-.07.23-.23.23-.73,0-1.07-.73-2.42-3-2.42s-4.23,2.08-4.27,3.35c0,.07,0,.19.27.19Z" transform="translate(0 0)"/><path class="cls-1" d="M319.11,184.54c-.58-1.42-.93-2.65-2.31-2.85l-.77-.11c-.24-.31-.2-.85.11-1,1,.07,2.31.11,3.62.11,1,0,1.81,0,3.12-.11a.67.67,0,0,1,0,1l-.46.08c-1.2.19-1.24.38-.85,1.54.88,2.65,2,5.35,2.89,7.35a6.19,6.19,0,0,0,.61,1.23,4.3,4.3,0,0,0,.73-1.46c.5-1.31,1.81-4.66,2.2-5.66a8.61,8.61,0,0,0,.69-2.39c0-.34-.23-.5-.69-.58l-.89-.11a.7.7,0,0,1,.08-1c1.19.07,2.15.11,2.89.11,1,0,1.61,0,2.69-.11a.71.71,0,0,1,.08,1l-.58.08c-1.35.19-1.69,1.19-2.81,3.35-.54,1-2.93,6.62-3.54,8.2-.39,1-.77,1.84-1.27,3.15a.44.44,0,0,1-.39.16.7.7,0,0,1-.5-.16,41.08,41.08,0,0,0-1.46-4Z" transform="translate(0 0)"/><path class="cls-1" d="M337,186c-1,0-1,.08-1,1,0,3.89,2.27,7.2,6.39,7.2a4.14,4.14,0,0,0,3.54-1.88.51.51,0,0,1,.7.46,6.73,6.73,0,0,1-6.05,3.58,6.91,6.91,0,0,1-5.58-2.54,8.15,8.15,0,0,1-1.62-5c0-4.73,3.12-8.7,7.74-8.7,3.31,0,5.47,2.27,5.47,4.58a2.37,2.37,0,0,1-.16,1c-.11.23-.65.26-2.27.26Zm2.39-1.15c2.85,0,3.69-.15,4-.39.12-.07.23-.23.23-.73,0-1.07-.73-2.42-3-2.42s-4.24,2.08-4.28,3.35c0,.07,0,.19.27.19Z" transform="translate(0 0)"/><path class="cls-1" d="M353.06,191.59c0,2.77.08,3.16,1.46,3.35l.93.11a.68.68,0,0,1-.08,1c-1.27-.08-2.39-.12-3.73-.12s-2.54,0-3.7.12a.68.68,0,0,1-.08-1l.89-.11c1.42-.19,1.46-.58,1.46-3.35v-17.4c0-2.27,0-2.5-1.19-3.2l-.39-.23a.59.59,0,0,1,0-.77,26.2,26.2,0,0,0,4.16-1.62.43.43,0,0,1,.39.24c0,1.15-.12,3.08-.12,4.77Z" transform="translate(0 0)"/><path class="cls-1" d="M373.31,188.16c0,4.81-3.31,8.28-8.12,8.28a7.61,7.61,0,0,1-7.89-7.93,8.09,8.09,0,0,1,8.2-8.32A7.69,7.69,0,0,1,373.31,188.16ZM365,181.35c-2.55,0-4.43,2.42-4.43,6.66,0,3.5,1.58,7.27,5,7.27s4.43-3.54,4.43-6.5C370,185.51,368.69,181.35,365,181.35Z" transform="translate(0 0)"/><path class="cls-1" d="M377.55,184.85c0-1.5,0-1.69-1-2.39l-.35-.23a.53.53,0,0,1,0-.69,23.12,23.12,0,0,0,3.81-2.08.43.43,0,0,1,.46.27c-.07.69-.15,1.27-.15,1.77,0,.27.08.5.35.5.5-.23,2.92-1.81,5.39-1.81,3.88,0,6.39,3.16,6.39,7.05,0,5.35-3.93,9.2-9.4,9.2a15.54,15.54,0,0,1-2.11-.15c-.35.07-.54.26-.54,1.07v4c0,2.73.07,3.08,1.46,3.27l1.5.19a.67.67,0,0,1-.08,1c-1.84-.07-3-.11-4.31-.11s-2.54,0-3.62.11a.67.67,0,0,1-.07-1l.8-.12c1.43-.19,1.47-.57,1.47-3.34ZM380.4,192a2.47,2.47,0,0,0,1.15,2.31,5,5,0,0,0,2.77.85c3.16,0,5-2.93,5-6.93,0-3.08-1.73-6.2-5.2-6.2a4.74,4.74,0,0,0-3.27,1.08c-.35.42-.46,1-.46,2.27Z" transform="translate(0 0)"/><path class="cls-1" d="M417.59,186c0-2.62-1.16-4-3.58-4a4.16,4.16,0,0,0-3.2,1.35c-.46.58-.58,1-.58,2.31v5.89c0,2.77.08,3.16,1.47,3.35l.8.11a.68.68,0,0,1-.07,1c-1.16-.08-2.27-.12-3.62-.12s-2.43,0-3.51.12a.69.69,0,0,1-.07-1l.69-.11c1.43-.23,1.46-.58,1.46-3.35V186c0-2.58-1.15-4-3.54-4a4.1,4.1,0,0,0-3.23,1.39,3,3,0,0,0-.58,2.19v6c0,2.77.08,3.12,1.46,3.35l.7.11a.68.68,0,0,1-.08,1c-1-.08-2.16-.12-3.5-.12s-2.54,0-3.74.12a.69.69,0,0,1-.08-1l.93-.11c1.42-.19,1.46-.58,1.46-3.35v-6.74c0-1.5,0-1.69-1-2.39l-.34-.23a.52.52,0,0,1,0-.69,20.82,20.82,0,0,0,3.85-1.89.46.46,0,0,1,.43.27c-.08.89-.08,1.47-.08,1.81a.41.41,0,0,0,.42.43,9.3,9.3,0,0,1,5.12-2,4.42,4.42,0,0,1,4.09,2.27,1.2,1.2,0,0,0,1-.3,9.62,9.62,0,0,1,5.23-2c3.08,0,4.58,2.12,4.58,4.78v6.62c0,2.77.08,3.16,1.47,3.35l.92.11a.68.68,0,0,1-.08,1c-1.27-.08-2.38-.12-3.73-.12s-2.43,0-3.5.12a.68.68,0,0,1-.08-1l.69-.11c1.43-.23,1.47-.58,1.47-3.35Z" transform="translate(0 0)"/><path class="cls-1" d="M428.33,186c-1,0-1,.08-1,1,0,3.89,2.27,7.2,6.39,7.2a4.14,4.14,0,0,0,3.54-1.88.5.5,0,0,1,.69.46,6.72,6.72,0,0,1-6,3.58,6.9,6.9,0,0,1-5.58-2.54,8.15,8.15,0,0,1-1.62-5c0-4.73,3.12-8.7,7.74-8.7,3.31,0,5.47,2.27,5.47,4.58a2.37,2.37,0,0,1-.16,1c-.11.23-.65.26-2.27.26Zm2.38-1.15c2.85,0,3.7-.15,4-.39.11-.07.23-.23.23-.73,0-1.07-.73-2.42-3-2.42s-4.24,2.08-4.28,3.35c0,.07,0,.19.27.19Z" transform="translate(0 0)"/><path class="cls-1" d="M442,184.85c0-1.5,0-1.69-1-2.39l-.35-.23a.53.53,0,0,1,0-.69,20.82,20.82,0,0,0,3.85-1.89.45.45,0,0,1,.42.27c-.07.89-.07,1.47-.07,1.81a.41.41,0,0,0,.42.43,10.59,10.59,0,0,1,5.39-2c3.19,0,4.5,2.2,4.5,4.78v6.62c0,2.77.08,3.16,1.47,3.35l.84.11a.68.68,0,0,1-.07,1c-1.16-.08-2.28-.12-3.62-.12s-2.54,0-3.58.12a.68.68,0,0,1-.08-1l.73-.11c1.43-.23,1.46-.58,1.46-3.35v-5.74c0-2.19-1-3.81-3.61-3.81a4.21,4.21,0,0,0-3.28,1.35,3.23,3.23,0,0,0-.57,2.31v5.89c0,2.77.07,3.12,1.46,3.35l.69.11a.68.68,0,0,1-.08,1c-1-.08-2.15-.12-3.5-.12s-2.54,0-3.62.12a.68.68,0,0,1-.07-1l.8-.11c1.43-.19,1.47-.58,1.47-3.35Z" transform="translate(0 0)"/><path class="cls-1" d="M464.94,182.35c-.65,0-.69.11-.69.92v7.2c0,2.24.27,4.28,2.81,4.28a2.87,2.87,0,0,0,1-.2c.34-.11.85-.54,1-.54.31,0,.46.43.39.66a5.34,5.34,0,0,1-4.05,1.77c-3.31,0-4-1.85-4-4.16v-8.81c0-1,0-1.12-.81-1.12h-1.08a.63.63,0,0,1-.11-.81,7.85,7.85,0,0,0,2.46-1.19,9.85,9.85,0,0,0,1.62-2.27.73.73,0,0,1,.81.19V180c0,.69,0,.73.69.73h4.27a1.23,1.23,0,0,1,0,1.62Z" transform="translate(0 0)"/><rect class="cls-2" width="619.75" height="244.63"/><rect class="cls-3" x="246.83" y="49.34" width="1.55" height="147.13"/><path class="cls-1" d="M73.74,148.15c0-2.68-.18-3.38-2-3.53l-1.25-.08c-.21-.16-.15-.89,0-.91,2.16-.19,4.89-.28,8.61-.28a16.8,16.8,0,0,1,6.74,1,4.71,4.71,0,0,1,3,4.51c0,2.6-1.68,3.93-4.09,4.94,0,.37.33.48.77.55a6.19,6.19,0,0,1,5.37,6c0,4.19-3.45,7-10.66,7-1.17,0-3.13-.1-4.81-.1s-3.13.07-4.61.1a.65.65,0,0,1-.08-.9l.72-.11c2.12-.32,2.2-.72,2.2-4.51ZM77,153c0,1,0,1.08,2.08,1,4.09-.15,6.3-1.23,6.3-4.62,0-3.54-2.93-4.88-6-4.88a5.51,5.51,0,0,0-1.84.22c-.4.11-.56.29-.56.94Zm0,8.38c0,1.3.08,3.14.84,3.93a4.15,4.15,0,0,0,3.17,1c3.56,0,6.29-1.44,6.29-5.05,0-2.85-1.6-6.18-8-6.18-2.16,0-2.32.22-2.32.94Z" transform="translate(0 0)"/><path class="cls-1" d="M118.83,151.7c0-3.27-.06-3.79-2.08-3.95l-.86-.06c-.21-.12-.14-.68.07-.77,1.71.06,2.87.09,4.31.09s2.53,0,4.25-.09c.2.09.27.65.06.77l-.85.06c-2,.16-2.09.68-2.09,3.95v11c0,3.27.07,3.7,2.09,3.92l.85.09c.21.12.14.68-.06.77-1.72-.06-2.88-.09-4.25-.09s-2.6,0-4.31.09a.55.55,0,0,1-.07-.77l.86-.09c2-.22,2.08-.65,2.08-3.92Z" transform="translate(0 0)"/><path class="cls-1" d="M137.83,162.74c0,3.24.06,3.7,1.92,3.86l1,.09c.19.12.13.68-.07.77-1.83-.06-2.92-.09-4.2-.09s-2.4,0-4.46.09a.53.53,0,0,1,0-.77l1.16-.09c1.83-.16,2-.62,2-3.86V149c0-1,0-1-1-1h-1.76c-1.38,0-3.14.06-3.95.77a5.59,5.59,0,0,0-1.44,2.13.63.63,0,0,1-.83-.22,32.4,32.4,0,0,0,1.22-4.59.81.81,0,0,1,.61,0c.19,1,1.25.95,2.72.95h13c1.73,0,2-.06,2.5-.86.16-.06.52,0,.58.09a18,18,0,0,0-.48,4.69.61.61,0,0,1-.83.06c-.1-.77-.32-1.91-.81-2.25A6.61,6.61,0,0,0,141,148h-2.27c-1,0-.93,0-.93,1.05Z" transform="translate(0 0)"/><path class="cls-1" d="M151.57,151.7c0-3.27-.07-3.79-2.08-3.95l-.86-.06c-.21-.12-.14-.68.07-.77,1.71.06,2.87.09,4.31.09s2.53,0,4.25-.09c.2.09.27.65.07.77l-.86.06c-2,.16-2.09.68-2.09,3.95v11c0,3.27.07,3.7,2.09,3.92l.86.09c.2.12.13.68-.07.77-1.72-.06-2.88-.09-4.25-.09s-2.6,0-4.31.09a.55.55,0,0,1-.07-.77l.86-.09c2-.22,2.08-.65,2.08-3.92Z" transform="translate(0 0)"/><path class="cls-1" d="M166.92,167.78a13.13,13.13,0,0,1-5.68-1.14,12.26,12.26,0,0,1-1-4.32c.18-.22.72-.28.87-.09a6.3,6.3,0,0,0,6.26,4.59c3.06,0,4.55-1.69,4.55-3.54,0-1.36-.33-2.87-3-4.32L165.5,157c-1.82-1-3.94-2.77-3.94-5.3,0-2.93,2.7-5.31,7.43-5.31a16,16,0,0,1,3.38.41,6,6,0,0,0,1.28.18,11.84,11.84,0,0,1,.65,3.76.82.82,0,0,1-.91.1c-.47-1.49-1.45-3.49-4.95-3.49s-4.33,2-4.33,3.42c0,1.79,1.75,3.09,3.1,3.8l2.91,1.54c2.29,1.2,4.55,3,4.55,5.92C174.67,165.46,171.65,167.78,166.92,167.78Z" transform="translate(0 0)"/><path class="cls-1" d="M185.23,157.41c-1.59,0-1.66.06-1.66,1v4.35c0,3.24.17,3.67,2,3.86l1,.09c.2.12.13.68-.07.77-1.79-.06-2.92-.09-4.21-.09s-2.56.06-3.85.09a.56.56,0,0,1-.07-.77l.57-.09c1.86-.31,1.92-.62,1.92-3.86v-11.1c0-3.24-.23-3.76-2-3.89l-.86-.06c-.2-.12-.13-.68.07-.77,1.62,0,2.75.09,4.18.09s2.42,0,3.85-.09c.2.09.26.65.07.77l-.63.06c-1.93.19-2,.65-2,3.89v3.55c0,.95.07,1,1.66,1h9.49c1.6,0,1.67,0,1.67-1v-3.55c0-3.24-.07-3.7-2-3.89l-.63-.06c-.2-.12-.13-.68.07-.77,1.52.06,2.65.09,4,.09s2.42,0,3.92-.09c.2.09.26.65.06.77l-.69.06c-1.93.19-2,.65-2,3.89v11.1c0,3.24.06,3.64,2,3.86l.79.09c.2.12.14.68-.06.77-1.6-.06-2.72-.09-4-.09s-2.55,0-4,.09a.56.56,0,0,1-.07-.77l.63-.09c2-.31,2-.62,2-3.86v-4.35c0-.92-.07-1-1.67-1Z" transform="translate(0 0)"/><path class="cls-1" d="M54.75,174.24a16.16,16.16,0,0,1,10.09-3.17,28.5,28.5,0,0,1,6.61.9,3,3,0,0,0,1,.15c0,.85.22,3.2.52,5.47a.78.78,0,0,1-1,.07c-.56-2.53-2.24-5.43-7.66-5.43-5.71,0-10.57,3.61-10.57,11.32s5,12.14,11.09,12.14a8,8,0,0,0,7.82-5.33.8.8,0,0,1,1,.15,13.92,13.92,0,0,1-1.8,5.1,8.88,8.88,0,0,0-1.3.37,22.09,22.09,0,0,1-5.91.86,16.42,16.42,0,0,1-9.3-2.49A12,12,0,0,1,50,184.11,12.35,12.35,0,0,1,54.75,174.24Z" transform="translate(0 0)"/><path class="cls-1" d="M75.19,186.28c0-6.16,4.85-10.89,11.52-10.89C94.2,175.39,98,180.54,98,186c0,6.24-5,10.77-11.24,10.77C79.53,196.74,75.19,191.84,75.19,186.28Zm19.52.65c0-5.09-2.36-10.58-8.55-10.58-3.36,0-7.74,2.19-7.74,9,0,4.56,2.34,10.48,8.72,10.48C91,195.78,94.71,193,94.71,186.93Z" transform="translate(0 0)"/><path class="cls-1" d="M134.49,183.63c0-1.91-.07-5.46-.62-6.38a2.08,2.08,0,0,0-1.64-.65l-.82-.06a.54.54,0,0,1,.07-.74c1.24.06,2.45.09,3.73.09s2.25,0,3.43-.09a.52.52,0,0,1,.07.74l-.79.06a1.93,1.93,0,0,0-1.63.74c-.46,1-.46,4.56-.46,6.29v3.49c0,2.68-.46,5.52-2.29,7.37a8.92,8.92,0,0,1-6.25,2.25,9.66,9.66,0,0,1-6.11-1.7c-1.73-1.35-2.55-3.61-2.55-7.28v-7.28c0-3.2-.06-3.73-2-3.88l-.82-.06a.54.54,0,0,1,.07-.74c1.63.06,2.74.09,4,.09s2.42,0,4-.09a.54.54,0,0,1,.07.74l-.79.06c-1.89.15-2,.68-2,3.88v6.67c0,5,1.64,8.23,6.64,8.23,4.74,0,6.54-3.51,6.54-8.2Z" transform="translate(0 0)"/><path class="cls-1" d="M172.49,179.78c0-2.31-.15-2.9-1.78-3l-1.15-.12c-.13-.11-.2-.74,0-.76,2-.14,4.41-.25,7.77-.25a15.7,15.7,0,0,1,6.08.88,4.08,4.08,0,0,1,2.74,3.89c0,2.24-1.52,3.4-3.68,4.27,0,.31.28.4.68.47,1.95.31,4.84,1.87,4.84,5.2,0,3.61-3.1,6-9.61,6-1,0-2.82-.09-4.33-.09s-2.82.06-4.16.09a.53.53,0,0,1-.07-.77l.65-.1c1.91-.28,2-.62,2-3.89Zm3,4.14c0,.87,0,.94,1.88.87,3.68-.12,5.67-1.06,5.67-4s-2.64-4.2-5.38-4.2a5,5,0,0,0-1.67.19c-.36.09-.5.25-.5.81Zm0,7.23c0,1.12.07,2.71.76,3.39a3.82,3.82,0,0,0,2.85.88c3.22,0,5.68-1.25,5.68-4.37,0-2.45-1.45-5.32-7.2-5.32-1.95,0-2.09.18-2.09.81Z" transform="translate(0 0)"/><path class="cls-1" d="M113.6,166.69l-.86-.07-.47-.07c-1.25-.22-1.75-1.34-2.34-2.37L107,159c-.51-.86-1.06-2-2.23-2.19,3-.36,5.77-2.11,5.77-5.12,0-3.47-3.43-5-6.91-5-2.08,0-4,.05-6.1.05-1.17,0-2.56-.05-3.73-.05-.65,0-.65.13-.65.49,0,.54.22.39.91.43,2.47.14,2.37.6,2.37,2.71v13.52c0,1.93.17,2.51-1.86,2.69l-.49.06-.86.08a.56.56,0,0,0,.07.77l1.27,0c1.12,0,2.25-.11,3.37-.11s2.22.08,3.33.11h0l1.26,0a.55.55,0,0,0,.07-.77l-.86-.08-.48,0c-2-.14-1.93-.72-1.93-2.7v-5.09c0-.3,0-1.09.18-1.32s.52-.17.81-.17c2.78,0,2.74.27,4.06,2.58l3.58,6.45c.29.49.51,1.12,1.24,1.12h3.11l1.26,0A.55.55,0,0,0,113.6,166.69Zm-12.48-10.13c-.62,0-1.86.23-1.86-.6V150c0-2.31.07-2.64,2.85-2.64,3.25,0,5.26,1.65,5.26,4.7a3.87,3.87,0,0,1-1.68,3.37A7.61,7.61,0,0,1,101.12,156.56Z" transform="translate(0 0)"/><path class="cls-1" d="M101.79,180.59c0-3.24-.06-3.73-2.2-3.89l-.85-.06c-.2-.12-.13-.68.07-.77,1.9.06,3,.09,4.41.09s2.48,0,4.17-.09c.21.09.27.65.07.77l-.81.06c-2,.16-2.07.65-2.07,3.89v10.73c0,2,.1,2.75.71,3.33.37.34,1,.71,3.7.71,2.88,0,3.59-.12,4.14-.4a6.69,6.69,0,0,0,2.24-3.05c.2-.15.84,0,.84.18a23.3,23.3,0,0,1-1.42,4.32c-1.73-.06-5-.09-8.45-.09h-3.12c-1.43,0-2.51,0-4.41.09a.57.57,0,0,1-.07-.77l1-.09c2-.19,2-.62,2-3.86Z" transform="translate(0 0)"/><path class="cls-1" d="M192.68,180.65c0-3.27-.07-3.79-2-4l-.84-.06c-.2-.12-.13-.68.07-.77,1.67.06,2.8.09,4.2.09s2.46,0,4.13-.09c.2.09.26.65.06.77l-.83.06c-2,.16-2,.68-2,4v11c0,3.27.07,3.7,2,3.92l.83.09c.2.12.14.68-.06.77-1.67-.06-2.8-.09-4.13-.09s-2.53,0-4.2.09a.57.57,0,0,1-.07-.77l.84-.09c2-.22,2-.65,2-3.92Z" transform="translate(0 0)"/><path class="cls-1" d="M166.06,195.54l-.49,0a1.32,1.32,0,0,1-.91-.36c-.44-.46-.4-1.77-.4-2.29V179.33c0-.58-.14-1.86.29-2.32a1.57,1.57,0,0,1,1.06-.3h0l.47,0,.85-.06c.21-.12.14-.68-.07-.77-.45,0-.87,0-1.26,0H162c-.4,0-.76,0-1,.42l-7.41,15.45L147,176.82c-.22-.53-.25-.95-.94-.95h-3.79c-.39,0-.83,0-1.28,0-.21.09-.28.65-.07.77l.85.06.5,0c1.42.09,1.51.41,1.38,1.9l-1.11,14.5c-.1,1.45-.18,2.23-1.71,2.37l-.5.06-.85.09a.55.55,0,0,0,.07.77l1.25,0c.77,0,1.56-.11,2.35-.11s1.7.08,2.55.12h0l1.27,0a.56.56,0,0,0,.06-.77l-.85-.09-.48-.05c-2.2-.15-2.15-1.7-2-3.6l1-13.48H145L152.09,195c.08.23.18.62.54.62s.44-.36.54-.59l8-17h.26v14.83c0,.59.07,1.8-.54,2.26a4.75,4.75,0,0,1-1.36.38l-.47.06-.85.09a.55.55,0,0,0,.07.77l1.25,0c1.16,0,2.34-.12,3.52-.12.84,0,2.5.08,2.5.08.4,0,.85.06,1.31.07a.56.56,0,0,0,.07-.77Z" transform="translate(0 0)"/><path class="cls-1" d="M221.69,195.63l-.12-.1-.47-.06c-1.33-.3-1.85-1.91-2.34-3.05l-6.87-16.24c-.06-.2-.2-.62-.47-.62s-.48.45-.58.71l-6.56,16.22A10.53,10.53,0,0,1,203,195a1.82,1.82,0,0,1-1.25.46l-.54.06-.81.08a.55.55,0,0,0,.07.77l1.27,0c.89,0,1.79-.13,2.69-.13s1.51.08,2.27.11l1.26.05a.55.55,0,0,0,.07-.77l-.85-.09-.47,0c-.79-.09-1.77-.23-1.77-1.1a5.33,5.33,0,0,1,.47-1.77l1-2.43c.51-1.16.31-1.3,1.67-1.3h4.62c1.63,0,1.39,0,2.11,1.66L215.9,193a5.49,5.49,0,0,1,.48,1.59c0,.81-.89.87-1.72.94l-.51,0-.82.06a.56.56,0,0,0,.06.77l1.27-.05c1,0,1.94-.11,2.88-.11,1.19,0,2.38.08,3.57.11h0c.39,0,.06,0,.51.05A.57.57,0,0,0,221.69,195.63Zm-9-7.64h-4c-.14,0-1.25.13-1.25-.2a2,2,0,0,1,.1-.39l2.4-6c.07-.16.32-1,.6-1s.48.85.55,1l2.37,5.56c0,.07.25.59.25.72C213.71,188.09,212.9,188,212.7,188Z" transform="translate(0 0)"/><path class="cls-4" d="M87.92,125.32c21.68,0,51.67,12.21,73.43,12.21,15.53,0,30.68-4.15,39.31-10.25a66,66,0,1,0-131-11,67.46,67.46,0,0,0,.9,10.9A107.48,107.48,0,0,1,87.92,125.32Z" transform="translate(0 0)"/><polygon class="cls-5" points="178.23 101.01 180.84 102.09 186.62 98.06 178.23 101.01"/><path class="cls-3" d="M81,96.5l-6.86-2.41.34-.84,7.73,2.57h0l1-.58.4-.26-8.42-3.58.36-.88,18.8,7.6.61-.26L76.39,88.77l.42-.85,19.75,9.19.28-.14L77.68,86.11l.4-.82,27.65,15c.23-.42.71-1.18,1-1.59A249,249,0,0,0,86,81.44a245.94,245.94,0,0,0,23.31,13.49c.43-.53.78-1,1.23-1.46L87,72.69,87.6,72l19,16.23L89,70.6l.66-.68,19.81,19.14L91,68.6l.7-.64,17,18.25L93.22,66.61l.67-.61,19.94,24.27c.52-.45.94-.78,1.48-1.19A245.84,245.84,0,0,0,102.7,65.41a246.31,246.31,0,0,0,16.46,21.12q.87-.48,1.77-.93l-.1-.06-14-27.89.83-.37,11.58,22.19-9.74-23,.87-.39,11.19,25.17-9.43-25.88.9-.33,9,23.31-7.08-24,.85-.32,9.32,29.77,0,.08h0c.62-.21,1.25-.39,1.88-.56a247.21,247.21,0,0,0-2.82-26.53,247.49,247.49,0,0,0,7.31,25.64c.66-.08,1.31-.15,2-.2l0,0h.08l-.05-.06L131,51l.91,0,2.42,24.9-.41-25,1,0,.95,27.53.95-27.53,1,0-.42,25L139.68,51l.91,0-2.51,31.1,0,.06h0c.65,0,1.3.11,1.93.19a247.43,247.43,0,0,0,7.31-25.61,245.63,245.63,0,0,0-2.82,26.46c.64.17,1.27.36,1.89.56l9.29-29.66.86.31-7.09,24,9-23.3.89.32-9.43,25.89L161.07,56.2l.87.38-9.74,23,11.58-22.18.83.37L150.69,85.54h0c.58.28,1.14.58,1.69.89a245.68,245.68,0,0,0,16.39-21,245.51,245.51,0,0,0-12.55,23.53c.53.41,1.06.83,1.57,1.26l19.7-24,.68.61-15.56,19.6,17-18.25.71.63L161.94,89.26l19.81-19.14.66.68L164.76,88.47l19.05-16.23.63.65L161.13,93.43h0c.4.46.8.92,1.18,1.4a245.36,245.36,0,0,0,23.14-13.4A245.52,245.52,0,0,0,165,98.61c.29.48.75,1.29,1,1.79l27.27-14.85.4.82L171.87,98.71l22.64-10.53.41.85L173.84,99.31l.4.14,21.46-8.68.35.88-19.94,8.48.37.16,13.29-4.43,2-1.4.66.51,4.37-1.46.35.84-3.79,1.33,5.47,4.17,1.75,1a66.84,66.84,0,0,0-130.33,1.55l.25-.12.8-.36.49-.23Z" transform="translate(0 0)"/><path class="cls-1" d="M69.88,128.58a110.54,110.54,0,0,1,18.09-2c21.68,0,51.67,12.2,73.43,12.2,16,0,31.53-4.38,40-10.76a67.52,67.52,0,0,0,1-11.63,66.82,66.82,0,0,0-1.84-15.6l-9.07-5.06-10.64,7.46-7.16-2.79c-2.43,1.23-17.38,11.23-17.38,11.23l-5.74-4.15-6.16-1.23-8.21-6-9.42,6.46s-10.51,6.11-10.87,6.11-12.68-9.77-12.68-9.77l-5.68-6c-1,.61-4.83,2.38-4.83,2.38l-.19.06-3.74-1.16L84.28,96l-13.77,6.24-.25.12a67.53,67.53,0,0,0-.38,26.2Z" transform="translate(0 0)"/></svg>