<?xml version="1.0" encoding="UTF-8"?>
<svg id="Mark" xmlns="http://www.w3.org/2000/svg" viewBox="0 0 195.74 198.33">
  <defs>
    <style>
      .cls-1 {
        fill-rule: evenodd;
      }

      .cls-1, .cls-2, .cls-3 {
        stroke-width: 0px;
      }

      .cls-1, .cls-3 {
        fill: #fff;
      }

      .cls-2 {
        fill: none;
      }
    </style>
  </defs>
  <g>
    <g>
      <path class="cls-3" d="M66.33,129.2c.41.85.81,1.67,1.24,2.47h.04c.49-.85.94-1.78,1.39-2.7l1.69-3.44c.81-1.64,1.33-2.63,1.37-3.46.61.05.99.05,1.35.05.45,0,1.04-.02,1.6-.05.11.07.11.38.02.45l-.38.04c-1.13.11-1.28.45-1.26,1.71.04,1.91.05,5.24.2,7.83.05.9.04,1.39.88,1.46l.58.05c.11.11.09.38-.04.45-.74-.04-1.48-.05-2.12-.05s-1.44.02-2.18.05c-.13-.09-.14-.34-.04-.45l.52-.05c.88-.09.88-.38.88-1.53l-.05-7.51h-.04c-.13.2-.81,1.64-1.17,2.34l-1.6,3.15c-.81,1.58-1.62,3.28-1.94,4.11-.04.05-.11.07-.18.07-.04,0-.13-.02-.16-.07-.31-.96-1.17-2.72-1.58-3.6l-1.62-3.47c-.38-.83-.76-1.76-1.15-2.59h-.04c-.07,1.12-.13,2.16-.18,3.21-.05,1.1-.13,2.7-.13,4.23,0,1.33.11,1.62.81,1.67l.68.05c.13.11.11.4-.02.45-.61-.04-1.31-.05-2-.05-.58,0-1.22.02-1.84.05-.11-.09-.14-.36-.04-.45l.4-.05c.76-.11,1.01-.22,1.12-1.48.11-1.19.2-2.18.31-3.96.09-1.49.16-3.03.2-4.02.04-1.13-.11-1.4-1.21-1.55l-.29-.04c-.09-.11-.07-.38.07-.45.54.04.97.05,1.42.05.41,0,.9,0,1.49-.05-.07.7.38,1.82.94,2.97l2.05,4.16Z"/>
      <path class="cls-3" d="M77.11,128.84c0-.7,0-.79-.49-1.12l-.16-.11c-.07-.07-.07-.27.02-.32.41-.14,1.44-.61,1.85-.88.09,0,.16.04.18.11-.04.63-.07,1.49-.07,2.23v3.24c0,1.3.04,1.48.68,1.57l.38.05c.13.09.09.4-.04.45-.54-.04-1.06-.05-1.69-.05s-1.19.02-1.69.05c-.13-.05-.16-.36-.04-.45l.38-.05c.67-.09.68-.27.68-1.57v-3.15ZM78.6,123.71c0,.65-.45.94-.95.94-.56,0-.92-.41-.92-.9,0-.59.43-.97.97-.97s.9.43.9.94Z"/>
      <path class="cls-3" d="M81.55,128.84c0-.7,0-.79-.49-1.12l-.16-.11c-.07-.07-.07-.27.02-.32.41-.14,1.44-.61,1.8-.88.07,0,.16.04.2.13-.04.41-.04.68-.04.85,0,.11.07.2.2.2.76-.47,1.6-.92,2.52-.92,1.49,0,2.11,1.03,2.11,2.23v3.1c0,1.3.04,1.48.68,1.57l.4.05c.13.09.09.4-.04.45-.54-.04-1.06-.05-1.69-.05s-1.19.02-1.67.05c-.13-.05-.16-.36-.04-.45l.34-.05c.67-.11.68-.27.68-1.57v-2.68c0-1.03-.47-1.78-1.69-1.78-.68,0-1.28.29-1.53.63-.23.31-.27.56-.27,1.08v2.75c0,1.3.04,1.46.68,1.57l.32.05c.13.09.09.4-.04.45-.49-.04-1.01-.05-1.64-.05s-1.19.02-1.69.05c-.13-.05-.16-.36-.04-.45l.38-.05c.67-.09.68-.27.68-1.57v-3.15Z"/>
      <path class="cls-3" d="M90.82,128.84c0-.7,0-.79-.49-1.12l-.16-.11c-.07-.07-.07-.27.02-.32.41-.14,1.44-.61,1.85-.88.09,0,.16.04.18.11-.04.63-.07,1.49-.07,2.23v3.24c0,1.3.04,1.48.68,1.57l.38.05c.13.09.09.4-.04.45-.54-.04-1.06-.05-1.69-.05s-1.19.02-1.69.05c-.13-.05-.16-.36-.04-.45l.38-.05c.67-.09.68-.27.68-1.57v-3.15ZM92.32,123.71c0,.65-.45.94-.95.94-.56,0-.92-.41-.92-.9,0-.59.43-.97.97-.97s.9.43.9.94Z"/>
      <path class="cls-3" d="M98.44,126.99c.16.4.29.97.29,1.46-.07.13-.34.16-.43.05-.31-.79-.85-1.31-1.58-1.31s-1.15.45-1.15,1.1c0,.74.76,1.13,1.39,1.49.95.54,1.84,1.15,1.84,2.43,0,1.37-1.26,2.05-2.59,2.05-.85,0-1.48-.18-1.93-.54-.14-.34-.25-1.22-.22-1.82.09-.11.32-.13.41-.02.31.99.88,1.85,1.91,1.85.65,0,1.21-.38,1.21-1.15,0-.83-.72-1.28-1.39-1.66-1.04-.59-1.78-1.22-1.78-2.21,0-1.31,1.08-2.05,2.45-2.05.76,0,1.42.18,1.58.32Z"/>
      <path class="cls-3" d="M102.38,127.67c-.31,0-.32.05-.32.43v3.37c0,1.04.13,2,1.31,2,.18,0,.34-.04.49-.09.16-.05.4-.25.45-.25.14,0,.22.2.18.31-.32.38-.97.83-1.89.83-1.55,0-1.87-.86-1.87-1.94v-4.12c0-.49-.02-.52-.38-.52h-.5c-.11-.07-.13-.27-.05-.38.52-.16.97-.4,1.15-.56.23-.22.58-.7.76-1.06.09-.04.31-.04.38.09v.81c0,.32.02.34.32.34h2c.22.16.18.65.02.76h-2.03Z"/>
      <path class="cls-3" d="M106.25,128.84c0-.7,0-.79-.49-1.12l-.16-.11c-.07-.07-.07-.27.02-.32.41-.14,1.37-.61,1.82-.88.09.02.14.05.14.13v1.05c0,.09.02.14.05.16.63-.52,1.31-1.08,1.98-1.08.45,0,.81.29.81.72,0,.59-.49.83-.77.83-.18,0-.27-.05-.4-.13-.27-.18-.54-.29-.79-.29-.29,0-.5.16-.65.36-.18.25-.23.77-.23,1.39v2.45c0,1.3.04,1.51.72,1.57l.65.05c.13.09.09.4-.04.45-.85-.04-1.37-.05-2-.05s-1.19.02-1.66.05c-.13-.05-.16-.36-.04-.45l.34-.05c.67-.11.68-.27.68-1.57v-3.15Z"/>
      <path class="cls-3" d="M111.03,137.72c0-.49.32-.72.72-.72h.34c.29,0,.47-.13.59-.32.52-.81.88-1.57,1.04-2,.05-.14.18-.52.18-.77,0-.36-.07-.58-.31-1.24l-1.4-3.85c-.31-.85-.43-1.28-1.06-1.41l-.45-.09c-.11-.09-.09-.4.05-.45.58.04,1.12.05,1.71.05.49,0,.99-.02,1.57-.05.14.05.16.36.04.45l-.45.09c-.25.05-.4.11-.4.23,0,.22.42,1.39.52,1.69l.58,1.66c.11.29.45,1.24.52,1.28.05-.04.34-.59.67-1.33l.61-1.42c.4-.94.63-1.6.63-1.8,0-.13-.11-.25-.43-.31l-.56-.09c-.13-.09-.11-.4.04-.45.58.04,1.12.05,1.58.05s.87-.02,1.37-.05c.14.07.16.34.04.45l-.31.05c-.59.11-.92.63-1.53,1.91l-1.01,2.07c-.59,1.21-2.07,4.34-2.95,6.3-.31.68-.74.85-1.15.85-.52,0-.79-.32-.79-.77Z"/>
      <path class="cls-3" d="M130.75,130.39c0,2.25-1.55,3.87-3.8,3.87-2.07,0-3.69-1.46-3.69-3.71s1.71-3.89,3.84-3.89c2.02,0,3.65,1.51,3.65,3.73ZM126.88,127.2c-1.19,0-2.07,1.13-2.07,3.11,0,1.64.74,3.4,2.32,3.4s2.07-1.66,2.07-3.04c0-1.53-.61-3.47-2.32-3.47Z"/>
      <path class="cls-3" d="M134.54,127.67c-.31,0-.31.04-.31.52v3.8c0,1.3.04,1.51.68,1.57l.65.05c.13.09.09.4-.04.45-.81-.04-1.33-.05-1.96-.05s-1.19.02-1.73.05c-.13-.05-.16-.36-.04-.45l.41-.05c.67-.09.68-.27.68-1.57v-3.8c0-.49,0-.52-.36-.52h-.63c-.11-.07-.13-.23-.05-.34l.77-.38c.14-.07.27-.18.27-.36,0-1.04.13-2.16.56-3.17.45-1.03,1.46-2.29,3.24-2.29.95,0,1.76.43,1.76,1.08,0,.36-.34.65-.68.65-.2,0-.31-.07-.43-.22-.34-.4-.85-.79-1.44-.79-.56,0-1.01.34-1.28.99-.32.83-.4,2.14-.4,3.04v.52c0,.49,0,.5.31.5h2.05c.2.18.07.68-.13.76h-1.93Z"/>
      <path class="cls-3" d="M30.3,141.37c1.31-1.03,2.99-1.53,4.86-1.53.97,0,2.34.2,3.19.43.22.05.34.09.5.07.02.42.11,1.55.25,2.65-.09.13-.36.14-.49.04-.27-1.22-1.08-2.63-3.69-2.63-2.75,0-5.1,1.75-5.1,5.47s2.39,5.87,5.35,5.87c2.32,0,3.35-1.51,3.76-2.57.13-.09.4-.05.47.07-.13.94-.59,2.12-.86,2.47-.22.04-.43.11-.63.18-.4.14-1.69.41-2.84.41-1.62,0-3.17-.32-4.48-1.21-1.44-.99-2.56-2.63-2.56-4.95,0-2,.9-3.71,2.27-4.77Z"/>
      <path class="cls-3" d="M41.17,141.85c0-1.06-.02-1.17-.56-1.49l-.18-.11c-.09-.05-.09-.31,0-.36.45-.14,1.3-.41,1.94-.76.07,0,.14.04.18.11-.02.54-.05,1.44-.05,2.23v3.78c0,.16.02.31.07.34.65-.5,1.51-.94,2.43-.94,1.71,0,2.32,1.06,2.32,2.32v3.01c0,1.3.04,1.49.68,1.57l.49.05c.13.09.09.4-.04.45-.65-.04-1.17-.05-1.8-.05s-1.19.02-1.67.05c-.13-.05-.16-.36-.04-.45l.36-.05c.67-.11.68-.27.68-1.57v-2.58c0-1.15-.56-1.93-1.71-1.93-.61,0-1.08.22-1.4.49-.32.27-.38.36-.38.99v3.02c0,1.3.04,1.48.68,1.57l.38.05c.13.07.09.4-.04.45-.54-.04-1.06-.05-1.69-.05s-1.19.02-1.76.05c-.13-.05-.16-.36-.04-.45l.45-.05c.67-.07.68-.27.68-1.57v-8.14Z"/>
      <path class="cls-3" d="M50.44,146.84c0-.7,0-.79-.49-1.12l-.16-.11c-.07-.07-.07-.27.02-.32.41-.14,1.44-.61,1.85-.88.09,0,.16.04.18.11-.04.63-.07,1.49-.07,2.23v3.24c0,1.3.04,1.48.68,1.57l.38.05c.13.09.09.4-.04.45-.54-.04-1.06-.05-1.69-.05s-1.19.02-1.69.05c-.13-.05-.16-.36-.04-.45l.38-.05c.67-.09.68-.27.68-1.57v-3.15ZM51.93,141.71c0,.65-.45.94-.95.94-.56,0-.92-.41-.92-.9,0-.59.43-.97.97-.97s.9.43.9.94Z"/>
      <path class="cls-3" d="M56.04,149.99c0,1.3.04,1.48.68,1.57l.43.05c.13.09.09.4-.04.45-.59-.04-1.12-.05-1.75-.05s-1.19.02-1.73.05c-.13-.05-.16-.36-.04-.45l.41-.05c.67-.09.68-.27.68-1.57v-8.14c0-1.06-.02-1.17-.56-1.49l-.18-.11c-.09-.05-.09-.31,0-.36.45-.14,1.3-.41,1.94-.76.07,0,.14.04.18.11-.02.54-.05,1.44-.05,2.23v8.52Z"/>
      <path class="cls-3" d="M65.02,149.38c0,1.42.02,2.09.52,2.09.2,0,.5-.09.77-.18.13.04.14.49-.02.58-.76.11-1.87.38-2.38.58-.11,0-.2-.05-.2-.14v-.31c0-.27,0-.49-.04-.56h-.07c-.79.54-1.4.83-2.27.83-2,0-3.33-1.57-3.33-3.46,0-2.52,1.91-4.14,4.36-4.14.61,0,1.01.09,1.21.16.09,0,.11-.11.11-.25v-2.72c0-1.06-.02-1.17-.56-1.49l-.18-.11c-.09-.05-.09-.31,0-.36.45-.14,1.3-.41,1.94-.76.07,0,.14.04.18.11-.02.54-.05,1.44-.05,2.23v7.9ZM63.69,146.68c0-.36-.07-.52-.2-.7-.27-.38-.81-.76-1.51-.76-1.64,0-2.48,1.42-2.48,2.99s.92,3.19,2.68,3.19c.49,0,1.1-.22,1.39-.5.11-.11.13-.38.13-.67v-3.55Z"/>
      <path class="cls-3" d="M68.13,146.84c0-.7,0-.79-.49-1.12l-.16-.11c-.07-.07-.07-.27.02-.32.41-.14,1.37-.61,1.82-.88.09.02.14.05.14.13v1.05c0,.09.02.14.05.16.63-.52,1.31-1.08,1.98-1.08.45,0,.81.29.81.72,0,.59-.49.83-.77.83-.18,0-.27-.05-.4-.13-.27-.18-.54-.29-.79-.29-.29,0-.5.16-.65.36-.18.25-.23.77-.23,1.39v2.45c0,1.3.04,1.51.72,1.57l.65.05c.13.09.09.4-.04.45-.85-.04-1.37-.05-2-.05s-1.19.02-1.66.05c-.13-.05-.16-.36-.04-.45l.34-.05c.67-.11.68-.27.68-1.57v-3.15Z"/>
      <path class="cls-3" d="M74.33,147.4c-.47,0-.49.04-.49.49,0,1.82,1.06,3.37,2.99,3.37.59,0,1.1-.18,1.66-.88.18-.05.31.05.32.22-.59,1.22-1.89,1.67-2.83,1.67-1.17,0-2.09-.5-2.61-1.19-.54-.7-.76-1.55-.76-2.34,0-2.21,1.46-4.07,3.62-4.07,1.55,0,2.56,1.06,2.56,2.14,0,.25-.04.4-.07.47-.05.11-.31.13-1.06.13h-3.33ZM75.44,146.86c1.33,0,1.73-.07,1.87-.18.05-.04.11-.11.11-.34,0-.5-.34-1.13-1.39-1.13s-1.98.97-2,1.57c0,.04,0,.09.13.09h1.28Z"/>
      <path class="cls-3" d="M80.7,146.84c0-.7,0-.79-.49-1.12l-.16-.11c-.07-.07-.07-.27.02-.32.41-.14,1.44-.61,1.8-.88.07,0,.16.04.2.13-.04.41-.04.68-.04.85,0,.11.07.2.2.2.76-.47,1.6-.92,2.52-.92,1.49,0,2.11,1.03,2.11,2.23v3.1c0,1.3.04,1.48.68,1.57l.4.05c.13.09.09.4-.04.45-.54-.04-1.06-.05-1.69-.05s-1.19.02-1.67.05c-.13-.05-.16-.36-.04-.45l.34-.05c.67-.11.68-.27.68-1.57v-2.68c0-1.03-.47-1.78-1.69-1.78-.68,0-1.28.29-1.53.63-.23.31-.27.56-.27,1.08v2.75c0,1.3.04,1.46.68,1.57l.32.05c.13.09.09.4-.04.45-.49-.04-1.01-.05-1.64-.05s-1.19.02-1.69.05c-.13-.05-.16-.36-.04-.45l.38-.05c.67-.09.68-.27.68-1.57v-3.15Z"/>
      <path class="cls-3" d="M96.79,148.28c.27-.09.31-.25.31-.52l.02-.83c.02-.67-.2-1.57-1.31-1.57-.5,0-1.12.25-1.15.81-.02.29-.04.5-.18.61-.27.22-.76.34-1.03.34-.16,0-.25-.09-.25-.25,0-.94,2.03-2.21,3.35-2.21s1.93.76,1.87,2.11l-.11,3.13c-.04.83.13,1.57.83,1.57.18,0,.34-.05.45-.11.09-.05.18-.13.23-.13.07,0,.13.11.13.23,0,.09-.63.79-1.51.79-.43,0-.86-.16-1.17-.56-.07-.11-.18-.25-.29-.25-.13,0-.34.16-.7.36-.4.22-.79.45-1.3.45s-.95-.14-1.26-.41c-.34-.31-.56-.76-.56-1.26,0-.7.34-1.12,1.49-1.53l2.14-.77ZM95.67,151.45c.36,0,.92-.27,1.1-.45.22-.22.22-.47.23-.85l.04-1.06c0-.2-.07-.23-.18-.23s-.41.07-.74.18c-1.06.36-1.58.63-1.58,1.33,0,.31.22,1.08,1.13,1.08Z"/>
      <path class="cls-3" d="M101.38,146.84c0-.7,0-.79-.49-1.12l-.16-.11c-.07-.07-.07-.27.02-.32.41-.14,1.44-.61,1.8-.88.07,0,.16.04.2.13-.04.41-.04.68-.04.85,0,.11.07.2.2.2.76-.47,1.6-.92,2.52-.92,1.5,0,2.11,1.03,2.11,2.23v3.1c0,1.3.04,1.48.68,1.57l.4.05c.13.09.09.4-.04.45-.54-.04-1.06-.05-1.69-.05s-1.19.02-1.67.05c-.13-.05-.16-.36-.04-.45l.34-.05c.67-.11.68-.27.68-1.57v-2.68c0-1.03-.47-1.78-1.69-1.78-.68,0-1.28.29-1.53.63-.23.31-.27.56-.27,1.08v2.75c0,1.3.04,1.46.68,1.57l.32.05c.13.09.09.4-.04.45-.49-.04-1.01-.05-1.64-.05s-1.19.02-1.69.05c-.13-.05-.16-.36-.04-.45l.38-.05c.67-.09.68-.27.68-1.57v-3.15Z"/>
      <path class="cls-3" d="M116.52,149.38c0,1.42.02,2.09.52,2.09.2,0,.5-.09.77-.18.13.04.14.49-.02.58-.76.11-1.87.38-2.38.58-.11,0-.2-.05-.2-.14v-.31c0-.27,0-.49-.04-.56h-.07c-.79.54-1.4.83-2.27.83-2,0-3.33-1.57-3.33-3.46,0-2.52,1.91-4.14,4.36-4.14.61,0,1.01.09,1.21.16.09,0,.11-.11.11-.25v-2.72c0-1.06-.02-1.17-.56-1.49l-.18-.11c-.09-.05-.09-.31,0-.36.45-.14,1.3-.41,1.94-.76.07,0,.14.04.18.11-.02.54-.05,1.44-.05,2.23v7.9ZM115.19,146.68c0-.36-.07-.52-.2-.7-.27-.38-.81-.76-1.51-.76-1.64,0-2.49,1.42-2.49,2.99s.92,3.19,2.68,3.19c.49,0,1.1-.22,1.39-.5.11-.11.13-.38.13-.67v-3.55Z"/>
      <path class="cls-3" d="M125.97,145.2c0,.49.05.49.59.49h1.22c.74,0,1.31-.04,1.53-.11.2-.07.34-.16.45-.63l.16-.72c.09-.11.4-.11.47,0,0,.43-.07,1.15-.07,1.82s.07,1.33.07,1.75c-.07.11-.34.11-.47,0l-.18-.7c-.09-.32-.23-.58-.58-.68-.25-.07-.7-.09-1.39-.09h-1.22c-.54,0-.59.02-.59.49v2.5c0,1.89.04,2.16,1.1,2.25l.61.05c.11.07.07.4-.04.45-1.06-.04-1.67-.05-2.4-.05-.79,0-1.4.02-2.25.05-.11-.05-.14-.34-.04-.45l.45-.05c1.04-.13,1.08-.36,1.08-2.25v-6.48c0-1.89-.04-2.14-1.08-2.27l-.29-.04c-.11-.07-.07-.4.04-.45.76.04,1.37.05,2.09.05h3.31c1.15,0,2.2,0,2.43-.05,0,.83.02,1.69.05,2.38-.05.11-.31.16-.43.05-.14-.81-.36-1.48-1.26-1.71-.4-.11-.99-.11-1.75-.11h-1.1c-.54,0-.54.04-.54.72v3.8Z"/>
      <path class="cls-3" d="M135.09,148.28c.27-.09.31-.25.31-.52l.02-.83c.02-.67-.2-1.57-1.31-1.57-.5,0-1.12.25-1.15.81-.02.29-.04.5-.18.61-.27.22-.76.34-1.03.34-.16,0-.25-.09-.25-.25,0-.94,2.04-2.21,3.35-2.21s1.93.76,1.87,2.11l-.11,3.13c-.04.83.13,1.57.83,1.57.18,0,.34-.05.45-.11.09-.05.18-.13.23-.13.07,0,.13.11.13.23,0,.09-.63.79-1.51.79-.43,0-.86-.16-1.17-.56-.07-.11-.18-.25-.29-.25-.13,0-.34.16-.7.36-.4.22-.79.45-1.3.45s-.95-.14-1.26-.41c-.34-.31-.56-.76-.56-1.26,0-.7.34-1.12,1.5-1.53l2.14-.77ZM133.98,151.45c.36,0,.92-.27,1.1-.45.22-.22.22-.47.23-.85l.04-1.06c0-.2-.07-.23-.18-.23s-.41.07-.74.18c-1.06.36-1.58.63-1.58,1.33,0,.31.22,1.08,1.13,1.08Z"/>
      <path class="cls-3" d="M149.23,147.38c0-1.22-.54-1.86-1.67-1.86-.68,0-1.24.31-1.49.63-.22.27-.27.45-.27,1.08v2.75c0,1.3.04,1.48.68,1.57l.38.05c.13.09.09.4-.04.45-.54-.04-1.06-.05-1.69-.05s-1.13.02-1.64.05c-.13-.05-.16-.36-.04-.45l.32-.05c.67-.11.68-.27.68-1.57v-2.61c0-1.21-.54-1.86-1.66-1.86-.74,0-1.24.32-1.51.65-.18.22-.27.45-.27,1.03v2.79c0,1.3.04,1.46.68,1.57l.32.05c.13.09.09.4-.04.45-.49-.04-1.01-.05-1.64-.05s-1.19.02-1.75.05c-.13-.05-.16-.36-.04-.45l.43-.05c.67-.09.68-.27.68-1.57v-3.15c0-.7,0-.79-.49-1.12l-.16-.11c-.07-.07-.07-.27.02-.32.41-.14,1.44-.61,1.8-.88.07,0,.16.04.2.13-.04.41-.04.68-.04.85,0,.11.07.2.2.2.68-.49,1.53-.92,2.39-.92s1.4.32,1.91,1.06c.16.04.29-.04.45-.14.72-.5,1.6-.92,2.45-.92,1.44,0,2.14.99,2.14,2.23v3.1c0,1.3.04,1.48.68,1.57l.43.05c.13.09.09.4-.04.45-.59-.04-1.12-.05-1.75-.05s-1.13.02-1.64.05c-.13-.05-.16-.36-.04-.45l.32-.05c.67-.11.68-.27.68-1.57v-2.61Z"/>
      <path class="cls-3" d="M153.67,146.84c0-.7,0-.79-.49-1.12l-.16-.11c-.07-.07-.07-.27.02-.32.41-.14,1.44-.61,1.85-.88.09,0,.16.04.18.11-.04.63-.07,1.49-.07,2.23v3.24c0,1.3.04,1.48.68,1.57l.38.05c.13.09.09.4-.04.45-.54-.04-1.06-.05-1.69-.05s-1.19.02-1.69.05c-.13-.05-.16-.36-.04-.45l.38-.05c.67-.09.68-.27.68-1.57v-3.15ZM155.16,141.71c0,.65-.45.94-.95.94-.56,0-.92-.41-.92-.9,0-.59.43-.97.97-.97s.9.43.9.94Z"/>
      <path class="cls-3" d="M159.27,149.99c0,1.3.04,1.48.68,1.57l.43.05c.13.09.09.4-.04.45-.59-.04-1.12-.05-1.75-.05s-1.19.02-1.73.05c-.13-.05-.16-.36-.04-.45l.41-.05c.67-.09.68-.27.68-1.57v-8.14c0-1.06-.02-1.17-.56-1.49l-.18-.11c-.09-.05-.09-.31,0-.36.45-.14,1.3-.41,1.94-.76.07,0,.14.04.18.11-.02.54-.05,1.44-.05,2.23v8.52Z"/>
      <path class="cls-3" d="M161.05,155.72c0-.49.32-.72.72-.72h.34c.29,0,.47-.13.59-.32.52-.81.88-1.57,1.04-2,.05-.14.18-.52.18-.77,0-.36-.07-.58-.31-1.24l-1.4-3.85c-.31-.85-.43-1.28-1.06-1.41l-.45-.09c-.11-.09-.09-.4.05-.45.58.04,1.12.05,1.71.05.49,0,.99-.02,1.57-.05.14.05.16.36.04.45l-.45.09c-.25.05-.4.11-.4.23,0,.22.41,1.39.52,1.69l.58,1.66c.11.29.45,1.24.52,1.28.05-.04.34-.59.67-1.33l.61-1.42c.4-.94.63-1.6.63-1.8,0-.13-.11-.25-.43-.31l-.56-.09c-.13-.09-.11-.4.04-.45.58.04,1.12.05,1.58.05s.86-.02,1.37-.05c.14.07.16.34.04.45l-.31.05c-.59.11-.92.63-1.53,1.91l-1.01,2.07c-.59,1.21-2.07,4.34-2.95,6.3-.31.68-.74.85-1.15.85-.52,0-.79-.32-.79-.77Z"/>
      <path class="cls-3" d="M53.85,160.47c0-1.26-.09-1.64-.85-1.75l-.4-.05c-.14-.09-.16-.38.02-.45,1.53-.09,2.99-.14,4.52-.14s2.79.11,3.96.54c2.43.88,3.65,2.93,3.65,5.31s-1.1,4.25-3.15,5.37c-1.17.63-2.65.87-4.03.87-1.15,0-2.3-.14-2.94-.14-.76,0-1.4.02-2.25.05-.11-.05-.14-.34-.04-.45l.41-.05c1.04-.14,1.08-.36,1.08-2.25v-6.84ZM55.33,166.89c0,.95.05,1.53.36,1.96.4.56,1.08.74,2.21.74,3.49,0,5.06-2.29,5.06-5.64,0-1.98-.95-5.33-5.67-5.33-1.06,0-1.64.14-1.78.25-.14.11-.18.56-.18,1.37v6.64Z"/>
      <path class="cls-3" d="M67.64,165.4c-.47,0-.49.04-.49.49,0,1.82,1.06,3.37,2.99,3.37.59,0,1.1-.18,1.66-.88.18-.05.31.05.32.22-.59,1.22-1.89,1.67-2.83,1.67-1.17,0-2.09-.5-2.61-1.19-.54-.7-.76-1.55-.76-2.34,0-2.21,1.46-4.07,3.62-4.07,1.55,0,2.56,1.06,2.56,2.14,0,.25-.04.4-.07.47-.05.11-.31.13-1.06.13h-3.33ZM68.75,164.86c1.33,0,1.73-.07,1.87-.18.05-.04.11-.11.11-.34,0-.5-.34-1.13-1.39-1.13s-1.98.97-2,1.57c0,.04,0,.09.13.09h1.28Z"/>
      <path class="cls-3" d="M73.72,164.7c-.27-.67-.43-1.24-1.08-1.33l-.36-.05c-.11-.14-.09-.4.05-.45.45.04,1.08.05,1.69.05.49,0,.85-.02,1.46-.05.13.07.14.36.02.45l-.22.04c-.56.09-.58.18-.4.72.41,1.24.94,2.5,1.35,3.44.16.36.23.52.29.58.07-.05.2-.31.34-.68.23-.61.85-2.18,1.03-2.65.25-.63.32-1.01.32-1.12,0-.16-.11-.23-.32-.27l-.41-.05c-.11-.13-.09-.38.04-.45.56.04,1.01.05,1.35.05.45,0,.76-.02,1.26-.05.13.07.14.34.04.45l-.27.04c-.63.09-.79.56-1.31,1.57-.25.49-1.37,3.1-1.66,3.83-.18.45-.36.86-.59,1.48-.04.05-.11.07-.18.07-.09,0-.18-.02-.23-.07-.14-.5-.41-1.21-.68-1.87l-1.51-3.66Z"/>
      <path class="cls-3" d="M82.07,165.4c-.47,0-.49.04-.49.49,0,1.82,1.06,3.37,2.99,3.37.59,0,1.1-.18,1.66-.88.18-.05.31.05.32.22-.59,1.22-1.89,1.67-2.83,1.67-1.17,0-2.09-.5-2.61-1.19-.54-.7-.76-1.55-.76-2.34,0-2.21,1.46-4.07,3.62-4.07,1.55,0,2.56,1.06,2.56,2.14,0,.25-.04.4-.07.47-.05.11-.31.13-1.06.13h-3.33ZM83.19,164.86c1.33,0,1.73-.07,1.87-.18.05-.04.11-.11.11-.34,0-.5-.34-1.13-1.39-1.13s-1.98.97-2,1.57c0,.04,0,.09.13.09h1.28Z"/>
      <path class="cls-3" d="M89.6,167.99c0,1.3.04,1.48.68,1.57l.43.05c.13.09.09.4-.04.45-.59-.04-1.12-.05-1.75-.05s-1.19.02-1.73.05c-.13-.05-.16-.36-.04-.45l.41-.05c.67-.09.68-.27.68-1.57v-8.14c0-1.06-.02-1.17-.56-1.49l-.18-.11c-.09-.05-.09-.31,0-.36.45-.14,1.3-.41,1.94-.76.07,0,.14.04.18.11-.02.54-.05,1.44-.05,2.23v8.52Z"/>
      <path class="cls-3" d="M99.07,166.39c0,2.25-1.55,3.87-3.8,3.87-2.07,0-3.69-1.46-3.69-3.71s1.71-3.89,3.83-3.89,3.66,1.51,3.66,3.73ZM95.2,163.2c-1.19,0-2.07,1.13-2.07,3.11,0,1.64.74,3.4,2.32,3.4s2.07-1.66,2.07-3.04c0-1.53-.61-3.47-2.32-3.47Z"/>
      <path class="cls-3" d="M101.05,164.84c0-.7,0-.79-.49-1.12l-.16-.11c-.07-.07-.07-.27.02-.32.47-.2,1.31-.63,1.78-.97.11,0,.18.04.22.13-.04.32-.07.59-.07.83,0,.13.04.23.16.23.23-.11,1.37-.85,2.52-.85,1.82,0,2.99,1.48,2.99,3.29,0,2.5-1.84,4.3-4.39,4.3-.32,0-.83-.04-.99-.07-.16.04-.25.13-.25.5v1.89c0,1.28.04,1.44.68,1.53l.7.09c.13.09.09.4-.04.45-.86-.04-1.39-.05-2.02-.05s-1.19.02-1.69.05c-.13-.05-.16-.36-.04-.45l.38-.05c.67-.09.68-.27.68-1.57v-7.74ZM102.38,168.19c0,.58.18.79.54,1.08.36.27.92.4,1.3.4,1.48,0,2.34-1.37,2.34-3.24,0-1.44-.81-2.9-2.43-2.9-.77,0-1.33.29-1.53.5-.16.2-.22.47-.22,1.06v3.1Z"/>
      <path class="cls-3" d="M119.77,165.38c0-1.22-.54-1.86-1.67-1.86-.68,0-1.24.31-1.49.63-.22.27-.27.45-.27,1.08v2.75c0,1.3.04,1.48.68,1.57l.38.05c.13.09.09.4-.04.45-.54-.04-1.06-.05-1.69-.05s-1.13.02-1.64.05c-.13-.05-.16-.36-.04-.45l.32-.05c.67-.11.68-.27.68-1.57v-2.61c0-1.21-.54-1.86-1.66-1.86-.74,0-1.24.32-1.51.65-.18.22-.27.45-.27,1.03v2.79c0,1.3.04,1.46.68,1.57l.32.05c.13.09.09.4-.04.45-.49-.04-1.01-.05-1.64-.05s-1.19.02-1.75.05c-.13-.05-.16-.36-.04-.45l.43-.05c.67-.09.68-.27.68-1.57v-3.15c0-.7,0-.79-.49-1.12l-.16-.11c-.07-.07-.07-.27.02-.32.41-.14,1.44-.61,1.8-.88.07,0,.16.04.2.13-.04.41-.04.68-.04.85,0,.11.07.2.2.2.68-.49,1.53-.92,2.39-.92s1.4.32,1.91,1.06c.16.04.29-.04.45-.14.72-.5,1.6-.92,2.45-.92,1.44,0,2.14.99,2.14,2.23v3.1c0,1.3.04,1.48.68,1.57l.43.05c.13.09.09.4-.04.45-.59-.04-1.12-.05-1.75-.05s-1.13.02-1.64.05c-.13-.05-.16-.36-.04-.45l.32-.05c.67-.11.68-.27.68-1.57v-2.61Z"/>
      <path class="cls-3" d="M124.79,165.4c-.47,0-.49.04-.49.49,0,1.82,1.06,3.37,2.99,3.37.59,0,1.1-.18,1.66-.88.18-.05.31.05.32.22-.59,1.22-1.89,1.67-2.83,1.67-1.17,0-2.09-.5-2.61-1.19-.54-.7-.76-1.55-.76-2.34,0-2.21,1.46-4.07,3.62-4.07,1.55,0,2.56,1.06,2.56,2.14,0,.25-.04.4-.07.47-.05.11-.31.13-1.06.13h-3.33ZM125.9,164.86c1.33,0,1.73-.07,1.87-.18.05-.04.11-.11.11-.34,0-.5-.34-1.13-1.39-1.13s-1.98.97-2,1.57c0,.04,0,.09.13.09h1.28Z"/>
      <path class="cls-3" d="M131.16,164.84c0-.7,0-.79-.49-1.12l-.16-.11c-.07-.07-.07-.27.02-.32.41-.14,1.44-.61,1.8-.88.07,0,.16.04.2.13-.04.41-.04.68-.04.85,0,.11.07.2.2.2.76-.47,1.6-.92,2.52-.92,1.5,0,2.11,1.03,2.11,2.23v3.1c0,1.3.04,1.48.68,1.57l.4.05c.13.09.09.4-.04.45-.54-.04-1.06-.05-1.69-.05s-1.19.02-1.67.05c-.13-.05-.16-.36-.04-.45l.34-.05c.67-.11.68-.27.68-1.57v-2.68c0-1.03-.47-1.78-1.69-1.78-.68,0-1.28.29-1.53.63-.23.31-.27.56-.27,1.08v2.75c0,1.3.04,1.46.68,1.57l.32.05c.13.09.09.4-.04.45-.49-.04-1.01-.05-1.64-.05s-1.19.02-1.69.05c-.13-.05-.16-.36-.04-.45l.38-.05c.67-.09.68-.27.68-1.57v-3.15Z"/>
      <path class="cls-3" d="M141.91,163.67c-.31,0-.32.05-.32.43v3.37c0,1.04.13,2,1.31,2,.18,0,.34-.04.49-.09.16-.05.4-.25.45-.25.14,0,.22.2.18.31-.32.38-.97.83-1.89.83-1.55,0-1.87-.86-1.87-1.94v-4.12c0-.49-.02-.52-.38-.52h-.5c-.11-.07-.13-.27-.05-.38.52-.16.97-.4,1.15-.56.23-.22.58-.7.76-1.06.09-.04.31-.04.38.09v.81c0,.32.02.34.32.34h2c.22.16.18.65.02.76h-2.03Z"/>
    </g>
    <rect class="cls-2" width="195.74" height="198.33"/>
  </g>
  <g>
    <rect class="cls-3" x="60.83" y="116.28" width="74.71" height=".88"/>
    <path class="cls-3" d="M62.6,84.12c0-1.52-.11-1.93-1.13-2.01l-.71-.05c-.12-.09-.08-.5.02-.51,1.23-.11,2.78-.16,4.91-.16,1.44,0,2.81.1,3.83.57.98.43,1.73,1.25,1.73,2.57,0,1.48-.96,2.24-2.33,2.81,0,.21.18.27.43.31,1.23.2,3.06,1.23,3.06,3.43,0,2.38-1.96,3.99-6.07,3.99-.66,0-1.78-.06-2.74-.06-1,0-1.78.04-2.62.06-.14-.06-.18-.39-.05-.51l.41-.06c1.21-.18,1.25-.41,1.25-2.57v-7.81ZM64.47,86.85c0,.58.02.62,1.19.58,2.33-.08,3.58-.7,3.58-2.63s-1.67-2.77-3.4-2.77c-.5,0-.84.04-1.05.12-.23.06-.32.16-.32.53v4.17ZM64.47,91.62c0,.74.05,1.79.48,2.24.43.47,1.12.58,1.8.58,2.03,0,3.58-.83,3.58-2.88,0-1.62-.91-3.51-4.54-3.51-1.23,0-1.32.12-1.32.53v3.04Z"/>
    <path class="cls-3" d="M88.27,86.14c0-1.86-.04-2.16-1.19-2.25l-.49-.03c-.12-.07-.08-.39.04-.44.98.04,1.64.06,2.46.06s1.44-.02,2.41-.06c.12.06.16.37.04.44l-.49.03c-1.15.09-1.19.39-1.19,2.25v6.25c0,1.86.04,2.1,1.19,2.23l.49.05c.12.07.08.39-.04.44-.97-.04-1.64-.05-2.41-.05-.82,0-1.48.02-2.46.05-.12-.05-.16-.33-.04-.44l.49-.05c1.15-.12,1.19-.37,1.19-2.23v-6.25Z"/>
    <path class="cls-3" d="M99.08,92.43c0,1.84.04,2.1,1.1,2.19l.58.05c.11.07.07.39-.04.44-1.04-.04-1.66-.05-2.39-.05s-1.37.02-2.54.05c-.11-.05-.15-.35,0-.44l.66-.05c1.04-.09,1.13-.35,1.13-2.19v-7.85c0-.54,0-.56-.55-.56h-1c-.79,0-1.79.03-2.25.44-.44.39-.62.77-.82,1.21-.15.11-.4.02-.48-.12.29-.79.57-1.91.69-2.62.05-.03.29-.05.35,0,.11.56.71.55,1.55.55h7.39c.99,0,1.15-.04,1.42-.49.09-.04.29-.02.33.05-.2.72-.33,2.14-.27,2.67-.07.14-.38.14-.47.03-.05-.44-.18-1.09-.46-1.28-.42-.3-1.11-.44-2.12-.44h-1.3c-.55,0-.53.02-.53.6v7.81Z"/>
    <path class="cls-3" d="M106.9,86.14c0-1.86-.04-2.16-1.19-2.25l-.49-.03c-.12-.07-.08-.39.04-.44.97.04,1.64.06,2.45.06s1.44-.02,2.42-.06c.12.06.16.37.04.44l-.49.03c-1.15.09-1.19.39-1.19,2.25v6.25c0,1.86.04,2.1,1.19,2.23l.49.05c.12.07.08.39-.04.44-.97-.04-1.64-.05-2.42-.05-.82,0-1.48.02-2.45.05-.12-.05-.16-.33-.04-.44l.49-.05c1.15-.12,1.19-.37,1.19-2.23v-6.25Z"/>
    <path class="cls-3" d="M115.63,95.3c-1.74,0-2.84-.46-3.23-.65-.25-.39-.52-1.63-.56-2.46.1-.12.41-.16.5-.05.31.9,1.16,2.61,3.56,2.61,1.74,0,2.59-.96,2.59-2.02,0-.77-.19-1.63-1.7-2.46l-1.97-1.09c-1.04-.58-2.24-1.58-2.24-3.02,0-1.67,1.53-3.02,4.23-3.02.64,0,1.39.11,1.93.23.27.07.56.11.73.11.19.42.37,1.4.37,2.14-.08.1-.42.16-.52.05-.27-.84-.83-1.98-2.82-1.98s-2.46,1.14-2.46,1.95c0,1.02.99,1.76,1.76,2.16l1.66.88c1.3.68,2.59,1.7,2.59,3.37,0,1.93-1.72,3.25-4.41,3.25Z"/>
    <path class="cls-3" d="M126.06,89.39c-.91,0-.95.04-.95.56v2.48c0,1.84.09,2.09,1.15,2.19l.55.05c.11.07.08.39-.04.44-1.02-.04-1.66-.05-2.4-.05-.81,0-1.46.04-2.19.05-.11-.05-.15-.33-.04-.44l.32-.05c1.06-.18,1.09-.35,1.09-2.19v-6.32c0-1.84-.13-2.14-1.11-2.21l-.49-.03c-.11-.07-.08-.39.04-.44.93.02,1.57.06,2.38.06.74,0,1.38-.02,2.19-.06.11.06.15.37.04.44l-.36.03c-1.09.11-1.13.37-1.13,2.21v2.02c0,.54.04.56.95.56h5.4c.91,0,.95-.02.95-.56v-2.02c0-1.84-.04-2.11-1.15-2.21l-.36-.03c-.11-.07-.08-.39.04-.44.87.04,1.51.06,2.29.06s1.38-.02,2.23-.06c.11.06.15.37.04.44l-.4.03c-1.1.11-1.13.37-1.13,2.21v6.32c0,1.84.04,2.07,1.13,2.19l.45.05c.11.07.08.39-.04.44-.91-.04-1.55-.05-2.29-.05-.77,0-1.45.02-2.29.05-.12-.05-.15-.33-.04-.44l.36-.05c1.15-.18,1.15-.35,1.15-2.19v-2.48c0-.53-.04-.56-.95-.56h-5.4Z"/>
    <path class="cls-3" d="M51.79,98.97c1.55-1.21,3.53-1.8,5.74-1.8,1.15,0,2.77.23,3.76.51.26.06.4.11.6.09.02.49.13,1.82.3,3.12-.11.15-.42.17-.57.04-.32-1.44-1.28-3.09-4.36-3.09-3.25,0-6.02,2.06-6.02,6.44s2.83,6.91,6.32,6.91c2.75,0,3.96-1.78,4.45-3.03.15-.11.47-.06.55.09-.15,1.1-.7,2.5-1.02,2.9-.26.04-.51.12-.74.21-.47.17-2,.49-3.36.49-1.91,0-3.74-.38-5.3-1.42-1.7-1.16-3.02-3.09-3.02-5.83,0-2.35,1.06-4.37,2.68-5.62Z"/>
    <path class="cls-3" d="M63.42,105.83c0-3.51,2.76-6.2,6.56-6.2,4.26,0,6.4,2.93,6.4,6.02,0,3.55-2.84,6.13-6.4,6.13-4.09,0-6.56-2.79-6.56-5.95ZM74.54,106.2c0-2.9-1.34-6.02-4.87-6.02-1.92,0-4.41,1.25-4.41,5.09,0,2.6,1.33,5.97,4.96,5.97,2.21,0,4.31-1.58,4.31-5.04Z"/>
    <path class="cls-3" d="M97.18,104.32c0-1.09-.04-3.11-.35-3.63-.13-.21-.46-.33-.93-.37l-.46-.04c-.11-.12-.07-.35.04-.42.71.03,1.39.05,2.12.05.78,0,1.28-.02,1.95-.05.15.09.13.31.04.42l-.45.04c-.46.04-.82.19-.93.42-.26.58-.26,2.6-.26,3.58v1.98c0,1.53-.26,3.14-1.3,4.2-.8.82-2.18,1.28-3.55,1.28-1.28,0-2.57-.23-3.48-.97-.99-.77-1.45-2.05-1.45-4.14v-4.14c0-1.82-.04-2.12-1.12-2.21l-.46-.04c-.11-.07-.07-.37.04-.42.93.03,1.56.05,2.31.05s1.38-.02,2.29-.05c.11.05.15.35.04.42l-.45.04c-1.08.09-1.12.39-1.12,2.21v3.79c0,2.83.93,4.69,3.78,4.69,2.7,0,3.72-2,3.72-4.67v-2.02Z"/>
    <path class="cls-3" d="M118.81,102.13c0-1.31-.08-1.65-1.01-1.72l-.66-.06c-.08-.07-.12-.42.02-.43,1.11-.08,2.51-.14,4.42-.14,1.29,0,2.53.09,3.46.49.88.37,1.56,1.08,1.56,2.22,0,1.28-.86,1.93-2.1,2.43,0,.18.16.23.39.27,1.11.18,2.76,1.06,2.76,2.96,0,2.06-1.77,3.44-5.47,3.44-.59,0-1.6-.06-2.47-.06s-1.6.04-2.37.06c-.12-.06-.17-.34-.04-.44l.37-.05c1.09-.16,1.13-.36,1.13-2.22v-6.74ZM120.49,104.48c0,.5.02.53,1.07.5,2.1-.07,3.23-.6,3.23-2.27s-1.5-2.39-3.07-2.39c-.45,0-.76.04-.95.11-.2.05-.29.14-.29.46v3.6ZM120.49,108.6c0,.64.04,1.54.43,1.93.39.41,1.01.5,1.62.5,1.83,0,3.23-.71,3.23-2.48,0-1.4-.82-3.03-4.09-3.03-1.11,0-1.19.11-1.19.46v2.62Z"/>
    <path class="cls-3" d="M85.29,94.67l-.49-.04c-.1,0-.19-.02-.27-.04-.71-.13-1-.76-1.34-1.35l-1.68-2.93c-.29-.49-.6-1.15-1.27-1.24,1.73-.21,3.29-1.2,3.29-2.92,0-1.98-1.96-2.86-3.93-2.86-1.19,0-2.27.03-3.47.03-.67,0-1.46-.03-2.12-.03-.37,0-.37.08-.37.28,0,.31.13.22.52.24,1.41.08,1.35.34,1.35,1.55v7.7c0,1.1.1,1.43-1.06,1.53,0,0-.18.02-.28.03l-.49.05c-.12.11-.08.38.04.44.26,0,.72-.03.72-.03.64-.02,1.28-.07,1.92-.07s1.26.05,1.89.07h0c.23,0,.46.02.72.03.12-.05.16-.33.04-.44l-.49-.05c-.1,0-.27-.03-.27-.03-1.17-.08-1.1-.41-1.1-1.54v-2.9c0-.17-.02-.62.1-.75.1-.11.29-.09.46-.09,1.58,0,1.56.15,2.31,1.47l2.04,3.67c.17.28.29.64.71.64h1.77c.22,0,.46.02.72.02.12-.05.16-.33.04-.44ZM78.19,88.91c-.36,0-1.06.13-1.06-.34v-3.37c0-1.32.04-1.5,1.62-1.5,1.85,0,3,.94,3,2.67,0,.75-.27,1.45-.96,1.92-.79.54-1.64.62-2.6.62Z"/>
    <g>
      <path class="cls-3" d="M78.57,102.59c0-1.84-.04-2.12-1.25-2.21l-.48-.04c-.12-.07-.08-.38.04-.44,1.08.04,1.74.05,2.51.05s1.41-.02,2.38-.05c.12.05.15.37.04.44l-.46.04c-1.14.09-1.18.37-1.18,2.21v6.11c0,1.11.06,1.56.4,1.9.21.19.58.4,2.11.4,1.64,0,2.05-.07,2.36-.23.39-.21.89-.84,1.28-1.74.12-.09.48-.02.48.11,0,.19-.54,1.98-.81,2.46-.98-.04-2.82-.05-4.81-.05h-1.78c-.81,0-1.43.02-2.51.05-.12-.05-.15-.33-.04-.44l.58-.05c1.12-.11,1.16-.35,1.16-2.2v-6.32Z"/>
      <path class="cls-3" d="M130.3,102.62c0-1.86-.04-2.16-1.16-2.25l-.47-.04c-.11-.07-.08-.38.04-.44.95.04,1.59.05,2.39.05s1.4-.02,2.35-.05c.11.05.15.37.04.44l-.47.04c-1.12.09-1.16.39-1.16,2.25v6.25c0,1.86.04,2.11,1.16,2.23l.47.05c.11.07.08.38-.04.44-.95-.04-1.59-.05-2.35-.05-.8,0-1.44.02-2.39.05-.12-.05-.15-.33-.04-.44l.47-.05c1.12-.12,1.16-.37,1.16-2.23v-6.25Z"/>
      <path class="cls-3" d="M115.15,111.1c-.1-.01-.28-.03-.28-.03-.2-.02-.38-.05-.52-.2-.25-.26-.23-1.01-.23-1.3v-7.69c0-.34-.08-1.06.16-1.32.12-.14.38-.16.61-.17h0c.14-.01.14-.01.26-.02l.49-.04c.12-.07.08-.39-.04-.44-.26,0-.5,0-.72.01h-2.07c-.22,0-.43,0-.55.24l-4.22,8.79-3.73-8.49c-.12-.3-.14-.54-.53-.54h-2.16c-.23,0-.47,0-.73-.01-.12.05-.16.37-.04.44l.49.04c.1,0,.28.02.28.02.81.05.86.23.79,1.08l-.63,8.25c-.06.83-.1,1.27-.97,1.35,0,0-.18.02-.29.03l-.49.05c-.12.1-.08.38.04.44.26,0,.71-.02.71-.02.44-.02.89-.06,1.34-.06.48,0,.97.05,1.45.06h0c.22,0,.46.02.72.03.12-.05.16-.33.04-.44l-.49-.05c-.13,0-.27-.02-.27-.02-1.25-.09-1.22-.97-1.15-2.05l.59-7.68h.14l4.04,9.45c.04.13.1.35.31.35.19,0,.25-.21.31-.34l4.55-9.69h.14v8.44c0,.33.04,1.03-.31,1.29-.18.13-.77.22-.77.22-.08.01-.17.02-.26.04l-.49.05c-.12.1-.08.38.04.44.26,0,.71-.02.71-.02.66-.02,1.33-.07,2-.07.48,0,1.43.05,1.43.05.22,0,.48.03.74.04.12-.05.16-.34.04-.44l-.49-.05Z"/>
      <path class="cls-3" d="M146.81,111.15l-.07-.05c-.1,0-.18-.02-.26-.04-.76-.17-1.06-1.08-1.34-1.73l-3.91-9.25c-.04-.11-.12-.35-.27-.35-.21,0-.27.26-.33.4l-3.73,9.23c-.14.35-.48,1.2-.74,1.46-.19.2-.44.24-.71.26,0,0-.21.02-.31.03l-.46.05c-.12.1-.08.38.04.44.26,0,.72-.03.72-.03.51,0,1.02-.07,1.53-.07.43,0,.86.05,1.29.07,0,0,.46.02.72.03.12-.05.16-.33.04-.44l-.49-.05c-.1,0-.26-.03-.26-.03-.45-.05-1.01-.13-1.01-.62,0-.33.16-.72.27-1.02l.58-1.38c.29-.66.18-.74.95-.74h2.63c.93,0,.79,0,1.2.94l.62,1.4c.1.24.27.64.27.9,0,.46-.51.49-.98.53,0,0-.16.01-.29.02l-.47.04c-.12.11-.08.38.04.44.26,0,.72-.03.72-.03.55-.02,1.1-.06,1.63-.06.68,0,1.35.05,2.03.07h0c.22,0,.03.02.29.02.12-.05.16-.33.04-.44ZM141.69,106.8h-2.28c-.08,0-.71.07-.71-.11,0-.05.04-.17.06-.22l1.37-3.39c.04-.09.18-.56.34-.56.12,0,.28.49.32.56l1.35,3.16s.14.34.14.41c0,.2-.46.15-.57.15Z"/>
    </g>
    <g>
      <path class="cls-1" d="M89.42,48.49l-7.97-15.89.47-.21,6.59,12.63-5.54-13.09.5-.22,6.37,14.33-5.37-14.73.51-.19,5.1,13.27-4.03-13.66.48-.18,5.31,16.94v.04s0,0,0,0c.35-.12.71-.22,1.07-.32-.4-8.14-1.61-15.1-1.61-15.1,0,0,1.49,6.9,4.16,14.59.37-.05.75-.08,1.12-.11v-.02s.04,0,.04,0l-.03-.04-1.43-17.7.52-.02,1.38,14.18-.24-14.21.54-.02.54,15.67.54-15.67.54.02-.24,14.21,1.38-14.18.52.02-1.43,17.7-.03.04h0,0s.02,0,.02,0c.37.02.74.06,1.1.1,2.67-7.69,4.16-14.58,4.16-14.58,0,0-1.2,6.94-1.61,15.06.36.1.72.2,1.08.32l5.29-16.88.48.18-4.03,13.66,5.1-13.27.51.19-5.37,14.73,6.37-14.33.5.22-5.54,13.09,6.59-12.63.47.21-7.93,15.82h.01c.33.17.64.34.96.51,5.36-6.13,9.33-11.97,9.33-11.97,0,0-3.72,6-7.15,13.39.31.23.6.47.9.72l11.22-13.66.38.35-8.86,11.16,9.7-10.39.4.36-10.5,11.65,11.28-10.9.38.39-10.04,10.06,10.84-9.24.36.37-13.27,11.69h0c.23.27.45.53.67.8,7.28-3.68,13.17-7.63,13.17-7.63,0,0-5.72,4.18-11.67,9.77.16.27.43.74.58,1.02l15.52-8.45.22.47-12.39,7.03,12.89-6,.24.49-12,5.85.23.08,12.21-4.94.2.5-11.35,4.83.21.09,7.56-2.52,1.14-.8.38.29,2.49-.83.2.48-2.15.76,3.11,2.37-4.17-2.32-6.06,4.25-4.08-1.59c-1.38.7-9.89,6.39-9.89,6.39l-3.27-2.36-3.51-.69-4.67-3.4-5.36,3.68s-5.98,3.47-6.19,3.47-7.22-5.56-7.22-5.56l-3.23-3.4c-.55.35-2.75,1.36-2.75,1.36l-.11.03-2.13-.66-2.58-1.37-7.11,3.22,5.25-2.94-3.9-1.37.2-.48,4.4,1.47h.02s.58-.34.58-.34l.23-.14-4.79-2.04.2-.5,10.7,4.33.35-.15-10.61-5.17.24-.49,11.24,5.23.16-.08-10.9-6.18.22-.46,15.74,8.57c.13-.24.4-.67.54-.91-5.99-5.63-11.76-9.85-11.76-9.85,0,0,5.94,3.98,13.27,7.68.24-.3.44-.54.7-.83l-13.43-11.82.36-.37,10.84,9.24-10.04-10.06.38-.39,11.28,10.9-10.5-11.65.4-.36,9.7,10.39-8.85-11.16.38-.35,11.35,13.81c.29-.25.54-.44.84-.68-3.43-7.43-7.18-13.47-7.18-13.47,0,0,3.99,5.87,9.37,12.03.33-.18.62-.39.96-.56h0ZM122.07,57.29l1.48.62,3.29-2.3-4.78,1.68Z"/>
      <path class="cls-3" d="M59.47,63.47c.13-2.04.42-4.05.86-5.91,2.13-9.01,7-16.68,14.08-22.17,6.72-5.21,15.1-8.07,23.61-8.07s16.33,2.78,23.05,7.84c3.42,2.58,6.37,5.67,8.77,9.19,2.51,3.69,4.36,7.78,5.5,12.15h0c.74,3.09,1.15,6.46,1.15,9.51,0,2.47-.34,4.79-.64,6.53l-.06.31-.48.35-.3.22h0s-.46.3-.46.3l.05-.03c-5.13,3.37-10.34,4.5-17.63,5.31-7.66.85-13.03-.39-19.82-1.96l-6.4-1.47c-5.62-1.3-9.68-2.24-15.65-2.99-3.5-.44-7.97-.2-13.28.71h.02s-.54.12-.54.12l-.29.06-.77.17-.15-.78c-.49-2.6-.7-4.67-.7-6.94,0-.8.03-1.61.08-2.41v-.05ZM60.22,63.86c-.04.65-.06,1.34-.06,2.06,0,2.44.25,4.49.69,6.8,0,0,0,0,0,0,.33-.07.47-.11.85-.18,0,0,0,0,0,0,3.43-.59,8.86-1.3,13.5-.71,7.38.93,11.98,2.17,19.77,3.93,7.78,1.76,13.52,3.42,21.92,2.48,7.35-.81,12.39-1.96,17.29-5.19,0,0,0,0,0,0,0,0,.39-.26.39-.26.08-.06.42-.31.53-.39.36-2.1.63-4.19.63-6.4h0c0-2.96-.4-6.15-1.04-8.94h0c-.39-1.59-1-3.52-1.59-5.01-5.63-14.27-19.82-23.99-35.2-23.99-18.03,0-33.09,12.66-36.8,29.58h0s-.03.12-.04.21h0c-.23,1.1-.61,2.92-.79,5.3l-.05.71Z"/>
    </g>
  </g>
</svg>