<?xml version="1.0" encoding="UTF-8"?>
<svg id="Ministry" xmlns="http://www.w3.org/2000/svg" viewBox="0 0 619.75 244.63">
  <defs>
    <style>
      .cls-1 {
        fill-rule: evenodd;
      }

      .cls-1, .cls-2, .cls-3 {
        stroke-width: 0px;
      }

      .cls-1, .cls-3 {
        fill: #fff;
      }

      .cls-2 {
        fill: none;
      }
    </style>
  </defs>
  <g>
    <g>
      <path class="cls-3" d="M286.65,108.62c.89,1.81,1.73,3.58,2.66,5.27h.08c1.04-1.81,2-3.81,2.96-5.77l3.62-7.35c1.73-3.5,2.85-5.62,2.93-7.39,1.31.12,2.12.12,2.89.12.96,0,2.23-.04,3.43-.12.23.15.23.81.04.96l-.81.08c-2.43.23-2.73.96-2.69,3.66.08,4.08.12,11.2.42,16.75.12,1.92.08,2.96,1.89,3.12l1.23.12c.23.23.19.81-.08.96-1.58-.08-3.16-.12-4.54-.12s-3.08.04-4.66.12c-.27-.19-.31-.73-.08-.96l1.12-.12c1.89-.19,1.89-.81,1.89-3.27l-.12-16.05h-.08c-.27.42-1.73,3.5-2.5,5l-3.43,6.74c-1.73,3.39-3.46,7.01-4.16,8.78-.08.12-.23.15-.38.15-.08,0-.27-.04-.35-.15-.65-2.04-2.5-5.81-3.39-7.7l-3.46-7.43c-.81-1.77-1.62-3.77-2.46-5.54h-.08c-.15,2.39-.27,4.62-.38,6.85-.12,2.35-.27,5.77-.27,9.05,0,2.85.23,3.46,1.73,3.58l1.46.12c.27.23.23.85-.04.96-1.31-.08-2.81-.12-4.27-.12-1.23,0-2.62.04-3.93.12-.23-.19-.31-.77-.08-.96l.85-.12c1.62-.23,2.16-.46,2.39-3.16.23-2.54.42-4.66.65-8.47.19-3.2.35-6.47.42-8.59.08-2.43-.23-3-2.58-3.31l-.62-.08c-.19-.23-.15-.81.15-.96,1.16.08,2.08.12,3.04.12.89,0,1.92,0,3.2-.12-.15,1.5.81,3.89,2,6.35l4.39,8.89Z"/>
      <path class="cls-3" d="M309.71,107.85c0-1.5,0-1.69-1.04-2.39l-.35-.23c-.15-.15-.15-.58.04-.69.88-.31,3.08-1.31,3.96-1.89.19,0,.35.08.38.23-.08,1.35-.15,3.2-.15,4.77v6.93c0,2.77.08,3.16,1.46,3.35l.81.12c.27.19.19.85-.08.96-1.16-.08-2.27-.12-3.62-.12s-2.54.04-3.62.12c-.27-.12-.35-.77-.08-.96l.81-.12c1.42-.19,1.46-.58,1.46-3.35v-6.74ZM312.91,96.88c0,1.39-.96,2-2.04,2-1.19,0-1.96-.89-1.96-1.92,0-1.27.92-2.08,2.08-2.08s1.92.92,1.92,2Z"/>
      <path class="cls-3" d="M319.22,107.85c0-1.5,0-1.69-1.04-2.39l-.35-.23c-.15-.15-.15-.58.04-.69.88-.31,3.08-1.31,3.85-1.89.15,0,.35.08.42.27-.08.89-.08,1.46-.08,1.81,0,.23.15.42.42.42,1.62-1,3.43-1.96,5.39-1.96,3.2,0,4.5,2.19,4.5,4.77v6.62c0,2.77.08,3.16,1.46,3.35l.85.12c.27.19.19.85-.08.96-1.16-.08-2.27-.12-3.62-.12s-2.54.04-3.58.12c-.27-.12-.35-.77-.08-.96l.73-.12c1.42-.23,1.46-.58,1.46-3.35v-5.74c0-2.19-1-3.81-3.62-3.81-1.46,0-2.73.62-3.27,1.35-.5.65-.58,1.19-.58,2.31v5.89c0,2.77.08,3.12,1.46,3.35l.69.12c.27.19.19.85-.08.96-1.04-.08-2.16-.12-3.5-.12s-2.54.04-3.62.12c-.27-.12-.35-.77-.08-.96l.81-.12c1.42-.19,1.46-.58,1.46-3.35v-6.74Z"/>
      <path class="cls-3" d="M339.05,107.85c0-1.5,0-1.69-1.04-2.39l-.35-.23c-.15-.15-.15-.58.04-.69.88-.31,3.08-1.31,3.96-1.89.19,0,.35.08.38.23-.08,1.35-.15,3.2-.15,4.77v6.93c0,2.77.08,3.16,1.46,3.35l.81.12c.27.19.19.85-.08.96-1.16-.08-2.27-.12-3.62-.12s-2.54.04-3.62.12c-.27-.12-.35-.77-.08-.96l.81-.12c1.42-.19,1.46-.58,1.46-3.35v-6.74ZM342.24,96.88c0,1.39-.96,2-2.04,2-1.19,0-1.96-.89-1.96-1.92,0-1.27.92-2.08,2.08-2.08s1.92.92,1.92,2Z"/>
      <path class="cls-3" d="M355.33,103.89c.35.85.62,2.08.62,3.12-.15.27-.73.35-.92.12-.65-1.69-1.81-2.81-3.39-2.81s-2.46.96-2.46,2.35c0,1.58,1.62,2.42,2.96,3.2,2.04,1.16,3.93,2.46,3.93,5.2,0,2.93-2.7,4.39-5.54,4.39-1.81,0-3.16-.38-4.12-1.16-.31-.73-.54-2.62-.46-3.89.19-.23.69-.27.88-.04.66,2.12,1.89,3.97,4.08,3.97,1.39,0,2.58-.81,2.58-2.46,0-1.77-1.54-2.73-2.96-3.54-2.23-1.27-3.81-2.62-3.81-4.74,0-2.81,2.31-4.39,5.24-4.39,1.62,0,3.04.38,3.39.69Z"/>
      <path class="cls-3" d="M363.77,105.35c-.65,0-.69.12-.69.92v7.2c0,2.23.27,4.27,2.81,4.27.38,0,.73-.08,1.04-.19.35-.12.85-.54.96-.54.31,0,.46.42.38.65-.69.81-2.08,1.77-4.04,1.77-3.31,0-4-1.85-4-4.16v-8.82c0-1.04-.04-1.12-.81-1.12h-1.08c-.23-.15-.27-.58-.12-.81,1.12-.35,2.08-.85,2.46-1.19.5-.46,1.23-1.5,1.62-2.27.19-.08.65-.08.81.19v1.73c0,.69.04.73.69.73h4.27c.46.35.38,1.39.04,1.62h-4.35Z"/>
      <path class="cls-3" d="M372.04,107.85c0-1.5,0-1.69-1.04-2.39l-.35-.23c-.15-.15-.15-.58.04-.69.88-.31,2.93-1.31,3.89-1.89.19.04.31.12.31.27v2.23c0,.19.04.31.12.35,1.35-1.12,2.81-2.31,4.23-2.31.96,0,1.73.62,1.73,1.54,0,1.27-1.04,1.77-1.66,1.77-.38,0-.58-.12-.85-.27-.58-.38-1.16-.62-1.69-.62-.62,0-1.08.35-1.39.77-.38.54-.5,1.66-.5,2.96v5.24c0,2.77.08,3.23,1.54,3.35l1.39.12c.27.19.19.85-.08.96-1.81-.08-2.93-.12-4.27-.12s-2.54.04-3.54.12c-.27-.12-.35-.77-.08-.96l.73-.12c1.42-.23,1.46-.58,1.46-3.35v-6.74Z"/>
      <path class="cls-3" d="M382.28,126.83c0-1.04.69-1.54,1.54-1.54h.73c.62,0,1-.27,1.27-.69,1.12-1.73,1.89-3.35,2.23-4.27.12-.31.39-1.12.39-1.66,0-.77-.15-1.23-.66-2.66l-3-8.24c-.66-1.81-.92-2.73-2.27-3l-.96-.19c-.23-.19-.19-.85.12-.96,1.23.08,2.39.12,3.66.12,1.04,0,2.12-.04,3.35-.12.31.12.35.77.08.96l-.96.19c-.54.12-.85.23-.85.5,0,.46.89,2.96,1.12,3.62l1.23,3.54c.23.62.96,2.66,1.12,2.73.12-.08.73-1.27,1.42-2.85l1.31-3.04c.85-2,1.35-3.43,1.35-3.85,0-.27-.23-.54-.92-.65l-1.19-.19c-.27-.19-.23-.85.08-.96,1.23.08,2.39.12,3.39.12s1.85-.04,2.93-.12c.31.15.35.73.08.96l-.66.12c-1.27.23-1.96,1.35-3.27,4.08l-2.16,4.43c-1.27,2.58-4.43,9.28-6.31,13.47-.65,1.46-1.58,1.81-2.46,1.81-1.12,0-1.69-.69-1.69-1.66Z"/>
      <path class="cls-3" d="M424.44,111.16c0,4.81-3.31,8.28-8.12,8.28-4.43,0-7.89-3.12-7.89-7.93s3.66-8.32,8.2-8.32,7.81,3.23,7.81,7.97ZM416.16,104.35c-2.54,0-4.43,2.42-4.43,6.66,0,3.5,1.58,7.28,4.97,7.28s4.43-3.54,4.43-6.51c0-3.27-1.31-7.43-4.97-7.43Z"/>
      <path class="cls-3" d="M432.56,105.35c-.65,0-.65.08-.65,1.12v8.12c0,2.77.08,3.23,1.46,3.35l1.39.12c.27.19.19.85-.08.96-1.73-.08-2.85-.12-4.2-.12s-2.54.04-3.7.12c-.27-.12-.35-.77-.08-.96l.89-.12c1.42-.19,1.46-.58,1.46-3.35v-8.12c0-1.04,0-1.12-.77-1.12h-1.35c-.23-.15-.27-.5-.12-.73l1.66-.81c.31-.15.58-.39.58-.77,0-2.23.27-4.62,1.19-6.78.96-2.19,3.12-4.89,6.93-4.89,2.04,0,3.77.92,3.77,2.31,0,.77-.73,1.39-1.46,1.39-.42,0-.65-.15-.92-.46-.73-.85-1.81-1.69-3.08-1.69-1.19,0-2.16.73-2.73,2.12-.69,1.77-.85,4.58-.85,6.51v1.12c0,1.04,0,1.08.65,1.08h4.39c.42.38.15,1.46-.27,1.62h-4.12Z"/>
      <path class="cls-3" d="M278.22,134.65c2.81-2.19,6.39-3.27,10.39-3.27,2.08,0,5,.42,6.81.92.46.12.73.19,1.08.15.04.88.23,3.31.54,5.66-.19.27-.77.31-1.04.08-.58-2.62-2.31-5.62-7.89-5.62-5.89,0-10.89,3.73-10.89,11.7s5.12,12.55,11.43,12.55c4.97,0,7.16-3.23,8.05-5.51.27-.19.85-.12,1,.15-.27,2-1.27,4.54-1.85,5.27-.46.08-.92.23-1.35.38-.85.31-3.62.89-6.08.89-3.46,0-6.78-.69-9.59-2.58-3.08-2.12-5.47-5.62-5.47-10.59,0-4.27,1.92-7.93,4.85-10.2Z"/>
      <path class="cls-3" d="M301.47,135.69c0-2.27-.04-2.5-1.19-3.2l-.38-.23c-.19-.12-.19-.66,0-.77.96-.31,2.77-.89,4.16-1.62.15,0,.31.08.38.23-.04,1.16-.12,3.08-.12,4.77v8.08c0,.35.04.65.15.73,1.39-1.08,3.23-2,5.2-2,3.66,0,4.97,2.27,4.97,4.97v6.43c0,2.77.08,3.2,1.46,3.35l1.04.12c.27.19.19.85-.08.96-1.39-.08-2.5-.12-3.85-.12s-2.54.04-3.58.12c-.27-.12-.35-.77-.08-.96l.77-.12c1.42-.23,1.46-.58,1.46-3.35v-5.51c0-2.46-1.19-4.12-3.66-4.12-1.31,0-2.31.46-3,1.04-.69.58-.81.77-.81,2.12v6.47c0,2.77.08,3.16,1.46,3.35l.81.12c.27.15.19.85-.08.96-1.15-.08-2.27-.12-3.62-.12s-2.54.04-3.77.12c-.27-.12-.35-.77-.08-.96l.96-.12c1.42-.15,1.46-.58,1.46-3.35v-17.4Z"/>
      <path class="cls-3" d="M321.3,146.35c0-1.5,0-1.69-1.04-2.39l-.35-.23c-.15-.15-.15-.58.04-.69.88-.31,3.08-1.31,3.96-1.89.19,0,.35.08.38.23-.08,1.35-.15,3.2-.15,4.77v6.93c0,2.77.08,3.16,1.46,3.35l.81.12c.27.19.19.85-.08.96-1.16-.08-2.27-.12-3.62-.12s-2.54.04-3.62.12c-.27-.12-.35-.77-.08-.96l.81-.12c1.42-.19,1.46-.58,1.46-3.35v-6.74ZM324.5,135.38c0,1.39-.96,2-2.04,2-1.19,0-1.96-.89-1.96-1.92,0-1.27.92-2.08,2.08-2.08s1.92.92,1.92,2Z"/>
      <path class="cls-3" d="M333.27,153.09c0,2.77.08,3.16,1.46,3.35l.92.12c.27.19.19.85-.08.96-1.27-.08-2.39-.12-3.73-.12s-2.54.04-3.7.12c-.27-.12-.35-.77-.08-.96l.89-.12c1.42-.19,1.46-.58,1.46-3.35v-17.4c0-2.27-.04-2.5-1.19-3.2l-.38-.23c-.19-.12-.19-.66,0-.77.96-.31,2.77-.89,4.16-1.62.15,0,.31.08.39.23-.04,1.16-.12,3.08-.12,4.77v18.21Z"/>
      <path class="cls-3" d="M352.48,151.78c0,3.04.04,4.47,1.12,4.47.42,0,1.08-.19,1.66-.38.27.08.31,1.04-.04,1.23-1.62.23-4,.81-5.08,1.23-.23,0-.42-.12-.42-.31v-.65c0-.58,0-1.04-.08-1.19h-.15c-1.69,1.16-3,1.77-4.85,1.77-4.27,0-7.12-3.35-7.12-7.39,0-5.39,4.08-8.85,9.32-8.85,1.31,0,2.16.19,2.58.35.19,0,.23-.23.23-.54v-5.81c0-2.27-.04-2.5-1.19-3.2l-.39-.23c-.19-.12-.19-.66,0-.77.96-.31,2.77-.89,4.16-1.62.15,0,.31.08.38.23-.04,1.16-.12,3.08-.12,4.77v16.9ZM349.64,146c0-.77-.15-1.12-.42-1.5-.58-.81-1.73-1.62-3.23-1.62-3.5,0-5.31,3.04-5.31,6.39s1.96,6.81,5.74,6.81c1.04,0,2.35-.46,2.96-1.08.23-.23.27-.81.27-1.42v-7.58Z"/>
      <path class="cls-3" d="M359.15,146.35c0-1.5,0-1.69-1.04-2.39l-.35-.23c-.15-.15-.15-.58.04-.69.88-.31,2.93-1.31,3.89-1.89.19.04.31.12.31.27v2.23c0,.19.04.31.12.35,1.35-1.12,2.81-2.31,4.23-2.31.96,0,1.73.62,1.73,1.54,0,1.27-1.04,1.77-1.66,1.77-.38,0-.58-.12-.85-.27-.58-.38-1.16-.62-1.69-.62-.62,0-1.08.35-1.39.77-.38.54-.5,1.66-.5,2.96v5.24c0,2.77.08,3.23,1.54,3.35l1.39.12c.27.19.19.85-.08.96-1.81-.08-2.93-.12-4.27-.12s-2.54.04-3.54.12c-.27-.12-.35-.77-.08-.96l.73-.12c1.42-.23,1.46-.58,1.46-3.35v-6.74Z"/>
      <path class="cls-3" d="M372.39,147.54c-1,0-1.04.08-1.04,1.04,0,3.89,2.27,7.2,6.39,7.2,1.27,0,2.35-.38,3.54-1.89.39-.12.65.12.69.46-1.27,2.62-4.04,3.58-6.04,3.58-2.5,0-4.47-1.08-5.58-2.54-1.15-1.5-1.62-3.31-1.62-5,0-4.74,3.12-8.7,7.74-8.7,3.31,0,5.47,2.27,5.47,4.58,0,.54-.08.85-.15,1-.12.23-.65.27-2.27.27h-7.12ZM374.78,146.39c2.85,0,3.7-.15,4-.38.12-.08.23-.23.23-.73,0-1.08-.73-2.42-2.96-2.42s-4.23,2.08-4.27,3.35c0,.08,0,.19.27.19h2.73Z"/>
      <path class="cls-3" d="M386.02,146.35c0-1.5,0-1.69-1.04-2.39l-.35-.23c-.15-.15-.15-.58.04-.69.88-.31,3.08-1.31,3.85-1.89.15,0,.35.08.42.27-.08.89-.08,1.46-.08,1.81,0,.23.15.42.42.42,1.62-1,3.43-1.96,5.39-1.96,3.2,0,4.5,2.19,4.5,4.77v6.62c0,2.77.08,3.16,1.46,3.35l.85.12c.27.19.19.85-.08.96-1.16-.08-2.27-.12-3.62-.12s-2.54.04-3.58.12c-.27-.12-.35-.77-.08-.96l.73-.12c1.42-.23,1.46-.58,1.46-3.35v-5.74c0-2.19-1-3.81-3.62-3.81-1.46,0-2.73.62-3.27,1.35-.5.65-.58,1.19-.58,2.31v5.89c0,2.77.08,3.12,1.46,3.35l.69.12c.27.19.19.85-.08.96-1.04-.08-2.16-.12-3.5-.12s-2.54.04-3.62.12c-.27-.12-.35-.77-.08-.96l.81-.12c1.42-.19,1.46-.58,1.46-3.35v-6.74Z"/>
      <path class="cls-3" d="M420.44,149.43c.58-.19.65-.54.65-1.12l.04-1.77c.04-1.42-.42-3.35-2.81-3.35-1.08,0-2.39.54-2.46,1.73-.04.62-.08,1.08-.38,1.31-.58.46-1.62.73-2.19.73-.35,0-.54-.19-.54-.54,0-2,4.35-4.74,7.16-4.74s4.12,1.62,4,4.5l-.23,6.7c-.08,1.77.27,3.35,1.77,3.35.38,0,.73-.12.96-.23.19-.12.39-.27.5-.27.15,0,.27.23.27.5,0,.19-1.35,1.69-3.23,1.69-.92,0-1.85-.35-2.5-1.19-.15-.23-.38-.54-.62-.54-.27,0-.73.35-1.5.77-.85.46-1.69.96-2.77.96s-2.04-.31-2.69-.89c-.73-.65-1.19-1.62-1.19-2.69,0-1.5.73-2.39,3.2-3.27l4.58-1.66ZM418.05,156.21c.77,0,1.96-.58,2.35-.96.46-.46.46-1,.5-1.81l.08-2.27c0-.42-.15-.5-.38-.5s-.89.15-1.58.38c-2.27.77-3.39,1.35-3.39,2.85,0,.65.46,2.31,2.43,2.31Z"/>
      <path class="cls-3" d="M430.25,146.35c0-1.5,0-1.69-1.04-2.39l-.35-.23c-.15-.15-.15-.58.04-.69.88-.31,3.08-1.31,3.85-1.89.15,0,.35.08.42.27-.08.89-.08,1.46-.08,1.81,0,.23.15.42.42.42,1.62-1,3.43-1.96,5.39-1.96,3.2,0,4.5,2.19,4.5,4.77v6.62c0,2.77.08,3.16,1.46,3.35l.85.12c.27.19.19.85-.08.96-1.16-.08-2.27-.12-3.62-.12s-2.54.04-3.58.12c-.27-.12-.35-.77-.08-.96l.73-.12c1.42-.23,1.46-.58,1.46-3.35v-5.74c0-2.19-1-3.81-3.62-3.81-1.46,0-2.73.62-3.27,1.35-.5.65-.58,1.19-.58,2.31v5.89c0,2.77.08,3.12,1.46,3.35l.69.12c.27.19.19.85-.08.96-1.04-.08-2.16-.12-3.5-.12s-2.54.04-3.62.12c-.27-.12-.35-.77-.08-.96l.81-.12c1.42-.19,1.46-.58,1.46-3.35v-6.74Z"/>
      <path class="cls-3" d="M462.63,151.78c0,3.04.04,4.47,1.12,4.47.42,0,1.08-.19,1.66-.38.27.08.31,1.04-.04,1.23-1.62.23-4,.81-5.08,1.23-.23,0-.42-.12-.42-.31v-.65c0-.58,0-1.04-.08-1.19h-.15c-1.69,1.16-3,1.77-4.85,1.77-4.27,0-7.12-3.35-7.12-7.39,0-5.39,4.08-8.85,9.32-8.85,1.31,0,2.16.19,2.58.35.19,0,.23-.23.23-.54v-5.81c0-2.27-.04-2.5-1.19-3.2l-.39-.23c-.19-.12-.19-.66,0-.77.96-.31,2.77-.89,4.16-1.62.15,0,.31.08.38.23-.04,1.16-.12,3.08-.12,4.77v16.9ZM459.78,146c0-.77-.15-1.12-.42-1.5-.58-.81-1.73-1.62-3.23-1.62-3.5,0-5.31,3.04-5.31,6.39s1.96,6.81,5.74,6.81c1.04,0,2.35-.46,2.96-1.08.23-.23.27-.81.27-1.42v-7.58Z"/>
      <path class="cls-3" d="M482.84,142.85c0,1.04.12,1.04,1.27,1.04h2.62c1.58,0,2.81-.08,3.27-.23.42-.15.73-.35.96-1.35l.35-1.54c.19-.23.85-.23,1,0,0,.92-.15,2.46-.15,3.89s.15,2.85.15,3.73c-.15.23-.73.23-1,0l-.38-1.5c-.19-.69-.5-1.23-1.23-1.46-.54-.15-1.5-.19-2.96-.19h-2.62c-1.16,0-1.27.04-1.27,1.04v5.35c0,4.04.08,4.62,2.35,4.81l1.31.12c.23.15.15.85-.08.96-2.27-.08-3.58-.12-5.12-.12-1.69,0-3,.04-4.81.12-.23-.12-.31-.73-.08-.96l.96-.12c2.23-.27,2.31-.77,2.31-4.81v-13.86c0-4.04-.08-4.58-2.31-4.85l-.62-.08c-.23-.15-.15-.85.08-.96,1.62.08,2.93.12,4.47.12h7.08c2.46,0,4.7,0,5.2-.12,0,1.77.04,3.62.12,5.08-.12.23-.66.35-.92.12-.31-1.73-.77-3.16-2.69-3.66-.85-.23-2.12-.23-3.73-.23h-2.35c-1.15,0-1.15.08-1.15,1.54v8.12Z"/>
      <path class="cls-3" d="M502.36,149.43c.58-.19.65-.54.65-1.12l.04-1.77c.04-1.42-.42-3.35-2.81-3.35-1.08,0-2.39.54-2.46,1.73-.04.62-.08,1.08-.38,1.31-.58.46-1.62.73-2.19.73-.35,0-.54-.19-.54-.54,0-2,4.35-4.74,7.16-4.74s4.12,1.62,4,4.5l-.23,6.7c-.08,1.77.27,3.35,1.77,3.35.38,0,.73-.12.96-.23.19-.12.39-.27.5-.27.15,0,.27.23.27.5,0,.19-1.35,1.69-3.23,1.69-.92,0-1.85-.35-2.5-1.19-.15-.23-.38-.54-.62-.54-.27,0-.73.35-1.5.77-.85.46-1.69.96-2.77.96s-2.04-.31-2.69-.89c-.73-.65-1.19-1.62-1.19-2.69,0-1.5.73-2.39,3.2-3.27l4.58-1.66ZM499.98,156.21c.77,0,1.96-.58,2.35-.96.46-.46.46-1,.5-1.81l.08-2.27c0-.42-.15-.5-.38-.5s-.89.15-1.58.38c-2.27.77-3.39,1.35-3.39,2.85,0,.65.46,2.31,2.43,2.31Z"/>
      <path class="cls-3" d="M532.59,147.51c0-2.62-1.16-3.97-3.58-3.97-1.46,0-2.66.65-3.2,1.35-.46.58-.58.96-.58,2.31v5.89c0,2.77.08,3.16,1.46,3.35l.81.12c.27.19.19.85-.08.96-1.15-.08-2.27-.12-3.62-.12s-2.43.04-3.5.12c-.27-.12-.35-.77-.08-.96l.69-.12c1.42-.23,1.46-.58,1.46-3.35v-5.58c0-2.58-1.16-3.97-3.54-3.97-1.58,0-2.66.69-3.23,1.39-.38.46-.58.96-.58,2.19v5.97c0,2.77.08,3.12,1.46,3.35l.69.12c.27.19.19.85-.08.96-1.04-.08-2.16-.12-3.5-.12s-2.54.04-3.73.12c-.27-.12-.35-.77-.08-.96l.92-.12c1.42-.19,1.46-.58,1.46-3.35v-6.74c0-1.5,0-1.69-1.04-2.39l-.35-.23c-.15-.15-.15-.58.04-.69.88-.31,3.08-1.31,3.85-1.89.15,0,.35.08.42.27-.08.89-.08,1.46-.08,1.81,0,.23.15.42.42.42,1.46-1.04,3.27-1.96,5.12-1.96s3,.69,4.08,2.27c.35.08.62-.08.96-.31,1.54-1.08,3.43-1.96,5.24-1.96,3.08,0,4.58,2.12,4.58,4.77v6.62c0,2.77.08,3.16,1.46,3.35l.92.12c.27.19.19.85-.08.96-1.27-.08-2.39-.12-3.73-.12s-2.43.04-3.5.12c-.27-.12-.35-.77-.08-.96l.69-.12c1.42-.23,1.46-.58,1.46-3.35v-5.58Z"/>
      <path class="cls-3" d="M542.1,146.35c0-1.5,0-1.69-1.04-2.39l-.35-.23c-.15-.15-.15-.58.04-.69.88-.31,3.08-1.31,3.96-1.89.19,0,.35.08.38.23-.08,1.35-.15,3.2-.15,4.77v6.93c0,2.77.08,3.16,1.46,3.35l.81.12c.27.19.19.85-.08.96-1.16-.08-2.27-.12-3.62-.12s-2.54.04-3.62.12c-.27-.12-.35-.77-.08-.96l.81-.12c1.42-.19,1.46-.58,1.46-3.35v-6.74ZM545.29,135.38c0,1.39-.96,2-2.04,2-1.19,0-1.96-.89-1.96-1.92,0-1.27.92-2.08,2.08-2.08s1.92.92,1.92,2Z"/>
      <path class="cls-3" d="M554.07,153.09c0,2.77.08,3.16,1.46,3.35l.92.12c.27.19.19.85-.08.96-1.27-.08-2.39-.12-3.73-.12s-2.54.04-3.7.12c-.27-.12-.35-.77-.08-.96l.89-.12c1.42-.19,1.46-.58,1.46-3.35v-17.4c0-2.27-.04-2.5-1.19-3.2l-.38-.23c-.19-.12-.19-.66,0-.77.96-.31,2.77-.89,4.16-1.62.15,0,.31.08.39.23-.04,1.16-.12,3.08-.12,4.77v18.21Z"/>
      <path class="cls-3" d="M557.88,165.33c0-1.04.69-1.54,1.54-1.54h.73c.62,0,1-.27,1.27-.69,1.12-1.73,1.89-3.35,2.23-4.27.12-.31.39-1.12.39-1.66,0-.77-.15-1.23-.66-2.66l-3-8.24c-.66-1.81-.92-2.73-2.27-3l-.96-.19c-.23-.19-.19-.85.12-.96,1.23.08,2.39.12,3.66.12,1.04,0,2.12-.04,3.35-.12.31.12.35.77.08.96l-.96.19c-.54.12-.85.23-.85.5,0,.46.89,2.96,1.12,3.62l1.23,3.54c.23.62.96,2.66,1.12,2.73.12-.08.73-1.27,1.42-2.85l1.31-3.04c.85-2,1.35-3.43,1.35-3.85,0-.27-.23-.54-.92-.65l-1.19-.19c-.27-.19-.23-.85.08-.96,1.23.08,2.39.12,3.39.12s1.85-.04,2.93-.12c.31.15.35.73.08.96l-.66.12c-1.27.23-1.96,1.35-3.27,4.08l-2.16,4.43c-1.27,2.58-4.43,9.28-6.31,13.47-.65,1.46-1.58,1.81-2.46,1.81-1.12,0-1.69-.69-1.69-1.66Z"/>
      <path class="cls-3" d="M276.6,175.5c0-2.69-.19-3.5-1.81-3.73l-.85-.12c-.31-.19-.35-.81.04-.96,3.27-.19,6.39-.31,9.66-.31s5.97.23,8.47,1.16c5.2,1.89,7.81,6.28,7.81,11.36s-2.35,9.09-6.74,11.47c-2.5,1.35-5.66,1.85-8.62,1.85-2.46,0-4.93-.31-6.28-.31-1.62,0-3,.04-4.81.12-.23-.12-.31-.73-.08-.96l.89-.12c2.23-.31,2.31-.77,2.31-4.81v-14.63ZM279.76,189.24c0,2.04.12,3.27.77,4.2.85,1.19,2.31,1.58,4.74,1.58,7.47,0,10.82-4.89,10.82-12.05,0-4.23-2.04-11.4-12.13-11.4-2.27,0-3.5.31-3.81.54-.31.23-.39,1.19-.39,2.93v14.21Z"/>
      <path class="cls-3" d="M306.09,186.04c-1,0-1.04.08-1.04,1.04,0,3.89,2.27,7.2,6.39,7.2,1.27,0,2.35-.38,3.54-1.89.39-.12.65.12.69.46-1.27,2.62-4.04,3.58-6.04,3.58-2.5,0-4.47-1.08-5.58-2.54-1.15-1.5-1.62-3.31-1.62-5,0-4.74,3.12-8.7,7.74-8.7,3.31,0,5.47,2.27,5.47,4.58,0,.54-.08.85-.15,1-.12.23-.65.27-2.27.27h-7.12ZM308.48,184.89c2.85,0,3.7-.15,4-.38.12-.08.23-.23.23-.73,0-1.08-.73-2.42-2.96-2.42s-4.23,2.08-4.27,3.35c0,.08,0,.19.27.19h2.73Z"/>
      <path class="cls-3" d="M319.11,184.54c-.58-1.42-.92-2.66-2.31-2.85l-.77-.12c-.23-.31-.19-.85.12-.96.96.08,2.31.12,3.62.12,1.04,0,1.81-.04,3.12-.12.27.15.31.77.04.96l-.46.08c-1.19.19-1.23.38-.85,1.54.89,2.66,2,5.35,2.89,7.35.35.77.5,1.12.62,1.23.15-.12.42-.65.73-1.46.5-1.31,1.81-4.66,2.19-5.66.54-1.35.69-2.16.69-2.39,0-.35-.23-.5-.69-.58l-.88-.12c-.23-.27-.19-.81.08-.96,1.19.08,2.16.12,2.89.12.96,0,1.62-.04,2.7-.12.27.15.31.73.08.96l-.58.08c-1.35.19-1.69,1.19-2.81,3.35-.54,1.04-2.93,6.62-3.54,8.2-.39.96-.77,1.85-1.27,3.16-.08.12-.23.15-.38.15-.19,0-.39-.04-.5-.15-.31-1.08-.89-2.58-1.46-4l-3.23-7.81Z"/>
      <path class="cls-3" d="M336.97,186.04c-1,0-1.04.08-1.04,1.04,0,3.89,2.27,7.2,6.39,7.2,1.27,0,2.35-.38,3.54-1.89.39-.12.65.12.69.46-1.27,2.62-4.04,3.58-6.04,3.58-2.5,0-4.47-1.08-5.58-2.54-1.15-1.5-1.62-3.31-1.62-5,0-4.74,3.12-8.7,7.74-8.7,3.31,0,5.47,2.27,5.47,4.58,0,.54-.08.85-.15,1-.12.23-.65.27-2.27.27h-7.12ZM339.36,184.89c2.85,0,3.7-.15,4-.38.12-.08.23-.23.23-.73,0-1.08-.73-2.42-2.96-2.42s-4.23,2.08-4.27,3.35c0,.08,0,.19.27.19h2.73Z"/>
      <path class="cls-3" d="M353.06,191.59c0,2.77.08,3.16,1.46,3.35l.92.12c.27.19.19.85-.08.96-1.27-.08-2.39-.12-3.73-.12s-2.54.04-3.7.12c-.27-.12-.35-.77-.08-.96l.89-.12c1.42-.19,1.46-.58,1.46-3.35v-17.4c0-2.27-.04-2.5-1.19-3.2l-.38-.23c-.19-.12-.19-.66,0-.77.96-.31,2.77-.89,4.16-1.62.15,0,.31.08.39.23-.04,1.16-.12,3.08-.12,4.77v18.21Z"/>
      <path class="cls-3" d="M373.31,188.16c0,4.81-3.31,8.28-8.12,8.28-4.43,0-7.89-3.12-7.89-7.93s3.66-8.32,8.2-8.32,7.81,3.23,7.81,7.97ZM365.04,181.35c-2.54,0-4.43,2.42-4.43,6.66,0,3.5,1.58,7.28,4.97,7.28s4.43-3.54,4.43-6.51c0-3.27-1.31-7.43-4.97-7.43Z"/>
      <path class="cls-3" d="M377.55,184.85c0-1.5,0-1.69-1.04-2.39l-.35-.23c-.15-.15-.15-.58.04-.69,1-.42,2.81-1.35,3.81-2.08.23,0,.38.08.46.27-.08.69-.15,1.27-.15,1.77,0,.27.08.5.35.5.5-.23,2.93-1.81,5.39-1.81,3.89,0,6.39,3.16,6.39,7.04,0,5.35-3.93,9.2-9.39,9.2-.69,0-1.77-.08-2.12-.15-.35.08-.54.27-.54,1.08v4.04c0,2.73.08,3.08,1.46,3.27l1.5.19c.27.19.19.85-.08.96-1.85-.08-2.96-.12-4.31-.12s-2.54.04-3.62.12c-.27-.12-.35-.77-.08-.96l.81-.12c1.42-.19,1.46-.58,1.46-3.35v-16.55ZM380.4,192.01c0,1.23.38,1.69,1.16,2.31.77.58,1.96.85,2.77.85,3.16,0,5-2.93,5-6.93,0-3.08-1.73-6.2-5.2-6.2-1.66,0-2.85.62-3.27,1.08-.35.42-.46,1-.46,2.27v6.62Z"/>
      <path class="cls-3" d="M417.59,186.01c0-2.62-1.16-3.97-3.58-3.97-1.46,0-2.66.65-3.2,1.35-.46.58-.58.96-.58,2.31v5.89c0,2.77.08,3.16,1.46,3.35l.81.12c.27.19.19.85-.08.96-1.15-.08-2.27-.12-3.62-.12s-2.43.04-3.5.12c-.27-.12-.35-.77-.08-.96l.69-.12c1.42-.23,1.46-.58,1.46-3.35v-5.58c0-2.58-1.16-3.97-3.54-3.97-1.58,0-2.66.69-3.23,1.39-.38.46-.58.96-.58,2.19v5.97c0,2.77.08,3.12,1.46,3.35l.69.12c.27.19.19.85-.08.96-1.04-.08-2.16-.12-3.5-.12s-2.54.04-3.73.12c-.27-.12-.35-.77-.08-.96l.92-.12c1.42-.19,1.46-.58,1.46-3.35v-6.74c0-1.5,0-1.69-1.04-2.39l-.35-.23c-.15-.15-.15-.58.04-.69.88-.31,3.08-1.31,3.85-1.89.15,0,.35.08.42.27-.08.89-.08,1.46-.08,1.81,0,.23.15.42.42.42,1.46-1.04,3.27-1.96,5.12-1.96s3,.69,4.08,2.27c.35.08.62-.08.96-.31,1.54-1.08,3.43-1.96,5.24-1.96,3.08,0,4.58,2.12,4.58,4.77v6.62c0,2.77.08,3.16,1.46,3.35l.92.12c.27.19.19.85-.08.96-1.27-.08-2.39-.12-3.73-.12s-2.43.04-3.5.12c-.27-.12-.35-.77-.08-.96l.69-.12c1.42-.23,1.46-.58,1.46-3.35v-5.58Z"/>
      <path class="cls-3" d="M428.33,186.04c-1,0-1.04.08-1.04,1.04,0,3.89,2.27,7.2,6.39,7.2,1.27,0,2.35-.38,3.54-1.89.39-.12.65.12.69.46-1.27,2.62-4.04,3.58-6.04,3.58-2.5,0-4.47-1.08-5.58-2.54-1.15-1.5-1.62-3.31-1.62-5,0-4.74,3.12-8.7,7.74-8.7,3.31,0,5.47,2.27,5.47,4.58,0,.54-.08.85-.15,1-.12.23-.65.27-2.27.27h-7.12ZM430.72,184.89c2.85,0,3.7-.15,4-.38.12-.08.23-.23.23-.73,0-1.08-.73-2.42-2.96-2.42s-4.23,2.08-4.27,3.35c0,.08,0,.19.27.19h2.73Z"/>
      <path class="cls-3" d="M441.96,184.85c0-1.5,0-1.69-1.04-2.39l-.35-.23c-.15-.15-.15-.58.04-.69.88-.31,3.08-1.31,3.85-1.89.15,0,.35.08.42.27-.08.89-.08,1.46-.08,1.81,0,.23.15.42.42.42,1.62-1,3.43-1.96,5.39-1.96,3.2,0,4.5,2.19,4.5,4.77v6.62c0,2.77.08,3.16,1.46,3.35l.85.12c.27.19.19.85-.08.96-1.16-.08-2.27-.12-3.62-.12s-2.54.04-3.58.12c-.27-.12-.35-.77-.08-.96l.73-.12c1.42-.23,1.46-.58,1.46-3.35v-5.74c0-2.19-1-3.81-3.62-3.81-1.46,0-2.73.62-3.27,1.35-.5.65-.58,1.19-.58,2.31v5.89c0,2.77.08,3.12,1.46,3.35l.69.12c.27.19.19.85-.08.96-1.04-.08-2.16-.12-3.5-.12s-2.54.04-3.62.12c-.27-.12-.35-.77-.08-.96l.81-.12c1.42-.19,1.46-.58,1.46-3.35v-6.74Z"/>
      <path class="cls-3" d="M464.94,182.35c-.65,0-.69.12-.69.92v7.2c0,2.23.27,4.27,2.81,4.27.38,0,.73-.08,1.04-.19.35-.12.85-.54.96-.54.31,0,.46.42.38.65-.69.81-2.08,1.77-4.04,1.77-3.31,0-4-1.85-4-4.16v-8.82c0-1.04-.04-1.12-.81-1.12h-1.08c-.23-.15-.27-.58-.12-.81,1.12-.35,2.08-.85,2.46-1.19.5-.46,1.23-1.5,1.62-2.27.19-.08.65-.08.81.19v1.73c0,.69.04.73.69.73h4.27c.46.35.38,1.39.04,1.62h-4.35Z"/>
    </g>
    <rect class="cls-2" width="619.75" height="244.63"/>
  </g>
  <rect class="cls-3" x="247.15" y="49.34" width="1.55" height="147.13"/>
  <path class="cls-3" d="M73.87,148.19c0-2.66-.19-3.37-1.98-3.51l-1.25-.09c-.2-.16-.15-.88.04-.9,2.15-.19,4.87-.29,8.58-.29,2.51,0,4.91.18,6.7,1.01,1.72.76,3.03,2.19,3.03,4.49,0,2.59-1.68,3.92-4.07,4.92,0,.36.32.47.76.54,2.15.36,5.35,2.16,5.35,6,0,4.17-3.43,6.98-10.62,6.98-1.16,0-3.11-.11-4.79-.11s-3.11.07-4.59.11c-.24-.11-.32-.68-.08-.9l.72-.11c2.11-.32,2.19-.72,2.19-4.49v-13.66ZM77.14,152.97c0,1.01.04,1.08,2.08,1.01,4.07-.15,6.27-1.22,6.27-4.6s-2.91-4.85-5.95-4.85c-.88,0-1.48.07-1.84.22-.4.11-.56.29-.56.93v7.3ZM77.14,161.32c0,1.29.08,3.13.84,3.92.76.83,1.96,1.01,3.15,1.01,3.55,0,6.26-1.44,6.26-5.04,0-2.84-1.6-6.15-7.94-6.15-2.15,0-2.31.22-2.31.93v5.32Z"/>
  <path class="cls-3" d="M118.77,151.73c0-3.26-.07-3.78-2.08-3.93l-.85-.06c-.2-.12-.14-.67.07-.77,1.71.06,2.86.1,4.29.1s2.52-.03,4.23-.1c.21.1.27.65.07.77l-.85.06c-2.01.15-2.08.67-2.08,3.93v10.93c0,3.25.07,3.69,2.08,3.9l.85.09c.2.12.14.67-.07.77-1.7-.06-2.86-.09-4.23-.09-1.43,0-2.59.03-4.29.09-.2-.09-.27-.58-.07-.77l.85-.09c2.01-.21,2.08-.65,2.08-3.9v-10.93Z"/>
  <path class="cls-3" d="M137.68,162.73c0,3.22.06,3.68,1.92,3.84l1.02.09c.19.12.13.67-.06.77-1.82-.06-2.91-.09-4.18-.09s-2.39.03-4.44.09c-.19-.09-.26-.61,0-.77l1.15-.09c1.82-.16,1.98-.62,1.98-3.84v-13.73c0-.95,0-.98-.96-.98h-1.76c-1.37,0-3.13.06-3.93.77-.77.67-1.09,1.35-1.44,2.12-.26.18-.7.03-.83-.21.51-1.38.99-3.35,1.21-4.58.1-.06.51-.09.61,0,.19.98,1.25.95,2.71.95h12.93c1.72,0,2.01-.06,2.49-.86.16-.06.51-.03.57.09-.35,1.26-.57,3.75-.48,4.67-.13.25-.67.25-.83.06-.1-.77-.32-1.9-.8-2.24-.74-.52-1.95-.77-3.71-.77h-2.27c-.96,0-.93.03-.93,1.04v13.67Z"/>
  <path class="cls-3" d="M151.37,151.73c0-3.26-.07-3.78-2.08-3.93l-.85-.06c-.21-.12-.14-.67.07-.77,1.7.06,2.86.1,4.3.1s2.52-.03,4.23-.1c.2.1.27.65.07.77l-.85.06c-2.01.15-2.08.67-2.08,3.93v10.93c0,3.25.07,3.69,2.08,3.9l.85.09c.2.12.14.67-.07.77-1.7-.06-2.86-.09-4.23-.09-1.43,0-2.59.03-4.3.09-.2-.09-.27-.58-.07-.77l.85-.09c2.01-.21,2.08-.65,2.08-3.9v-10.93Z"/>
  <path class="cls-3" d="M166.64,167.74c-3.04,0-4.96-.8-5.65-1.14-.44-.68-.91-2.86-.98-4.3.18-.21.72-.27.87-.09.54,1.57,2.03,4.57,6.23,4.57,3.04,0,4.53-1.69,4.53-3.53,0-1.35-.33-2.86-2.97-4.3l-3.44-1.91c-1.81-1.01-3.92-2.76-3.92-5.28,0-2.92,2.68-5.28,7.39-5.28,1.12,0,2.43.18,3.37.4.47.12.98.18,1.27.18.33.74.65,2.46.65,3.75-.15.18-.73.28-.91.09-.47-1.48-1.45-3.47-4.93-3.47s-4.31,2-4.31,3.41c0,1.78,1.74,3.07,3.08,3.78l2.9,1.54c2.28,1.2,4.53,2.98,4.53,5.9,0,3.38-3.01,5.68-7.72,5.68Z"/>
  <path class="cls-3" d="M184.88,157.41c-1.59,0-1.65.06-1.65.98v4.33c0,3.22.17,3.65,2.02,3.84l.96.09c.2.12.13.67-.06.77-1.79-.06-2.91-.09-4.2-.09-1.42,0-2.55.06-3.83.09-.2-.09-.26-.58-.07-.77l.56-.09c1.85-.31,1.92-.62,1.92-3.84v-11.05c0-3.22-.23-3.75-1.95-3.87l-.86-.06c-.2-.12-.13-.67.07-.77,1.62.03,2.74.1,4.16.1,1.29,0,2.41-.03,3.83-.1.2.1.27.65.07.77l-.63.06c-1.92.19-1.98.65-1.98,3.87v3.53c0,.95.07.98,1.65.98h9.45c1.58,0,1.65-.03,1.65-.98v-3.53c0-3.22-.07-3.68-2.02-3.87l-.63-.06c-.2-.12-.13-.67.07-.77,1.52.06,2.64.1,4,.1s2.41-.03,3.9-.1c.2.1.26.65.07.77l-.69.06c-1.92.19-1.98.65-1.98,3.87v11.05c0,3.22.07,3.62,1.98,3.84l.79.09c.2.12.13.67-.07.77-1.59-.06-2.71-.09-4-.09-1.35,0-2.54.03-4,.09-.2-.09-.27-.58-.07-.77l.63-.09c2.02-.31,2.02-.62,2.02-3.84v-4.33c0-.92-.07-.98-1.65-.98h-9.45Z"/>
  <path class="cls-3" d="M54.96,174.17c2.72-2.11,6.18-3.15,10.05-3.15,2.01,0,4.84.41,6.59.89.45.11.71.19,1.04.15.04.85.22,3.19.52,5.45-.19.26-.74.3-1,.07-.56-2.52-2.23-5.41-7.63-5.41-5.69,0-10.53,3.6-10.53,11.27s4.95,12.09,11.05,12.09c4.8,0,6.92-3.12,7.78-5.3.26-.18.82-.11.97.15-.26,1.93-1.23,4.38-1.79,5.08-.45.07-.89.22-1.3.37-.82.3-3.5.86-5.88.86-3.35,0-6.55-.67-9.26-2.49-2.98-2.04-5.28-5.41-5.28-10.19,0-4.12,1.86-7.64,4.69-9.83Z"/>
  <path class="cls-3" d="M75.31,186.17c0-6.14,4.84-10.84,11.48-10.84,7.45,0,11.19,5.13,11.19,10.53,0,6.2-4.96,10.72-11.19,10.72-7.16,0-11.48-4.89-11.48-10.41ZM94.75,186.81c0-5.07-2.35-10.53-8.51-10.53-3.35,0-7.71,2.18-7.71,8.91,0,4.54,2.32,10.44,8.67,10.44,3.87,0,7.55-2.76,7.55-8.81Z"/>
  <path class="cls-3" d="M134.35,183.52c0-1.9-.07-5.43-.62-6.36-.23-.37-.81-.58-1.63-.65l-.81-.06c-.2-.21-.13-.61.06-.74,1.24.06,2.44.09,3.71.09,1.37,0,2.25-.03,3.42-.09.26.16.23.55.06.74l-.78.06c-.81.06-1.43.34-1.63.74-.46,1.01-.46,4.54-.46,6.26v3.47c0,2.67-.46,5.5-2.28,7.34-1.4,1.44-3.81,2.24-6.22,2.24-2.25,0-4.49-.4-6.09-1.69-1.73-1.35-2.54-3.59-2.54-7.25v-7.25c0-3.19-.07-3.71-1.95-3.87l-.81-.06c-.19-.12-.13-.64.07-.74,1.63.06,2.73.09,4.04.09s2.41-.03,4-.09c.2.09.26.61.07.74l-.78.06c-1.89.15-1.95.68-1.95,3.87v6.63c0,4.95,1.63,8.2,6.61,8.2,4.72,0,6.51-3.5,6.51-8.17v-3.53Z"/>
  <path class="cls-3" d="M172.19,179.69c0-2.3-.14-2.89-1.76-3.01l-1.15-.11c-.13-.12-.2-.74.04-.76,1.94-.14,4.39-.25,7.74-.25,2.27,0,4.42.15,6.04.87,1.55.65,2.73,1.89,2.73,3.88,0,2.23-1.51,3.38-3.67,4.25,0,.31.29.4.68.47,1.94.31,4.82,1.86,4.82,5.18,0,3.6-3.09,6.02-9.57,6.02-1.04,0-2.81-.1-4.32-.1s-2.8.06-4.14.1c-.21-.1-.29-.59-.07-.78l.65-.09c1.91-.28,1.98-.62,1.98-3.88v-11.79ZM175.14,183.81c0,.87.04.93,1.87.87,3.67-.12,5.65-1.05,5.65-3.97s-2.63-4.19-5.36-4.19c-.79,0-1.33.06-1.66.19-.36.09-.5.25-.5.81v6.3ZM175.14,191.01c0,1.12.07,2.7.76,3.38.68.71,1.76.87,2.84.87,3.2,0,5.65-1.24,5.65-4.34,0-2.45-1.44-5.3-7.16-5.3-1.94,0-2.09.19-2.09.8v4.59Z"/>
  <path class="cls-3" d="M113.56,166.66l-.85-.07c-.17-.02-.33-.04-.47-.06-1.25-.22-1.75-1.33-2.33-2.36l-2.95-5.13c-.51-.86-1.06-2.01-2.22-2.17,3.02-.36,5.75-2.11,5.75-5.1,0-3.46-3.42-5-6.88-5-2.07,0-3.97.06-6.08.06-1.16,0-2.55-.06-3.71-.06-.65,0-.65.13-.65.49,0,.54.23.39.91.42,2.46.14,2.36.6,2.36,2.7v13.46c0,1.93.17,2.5-1.86,2.68,0,0-.31.03-.49.05l-.86.09c-.2.18-.14.67.07.77.46-.02,1.26-.05,1.26-.05,1.12-.03,2.24-.12,3.36-.12s2.2.09,3.31.12h0c.39.01.81.03,1.26.04.21-.09.27-.58.07-.77l-.86-.08c-.18-.02-.48-.05-.48-.05-2.04-.14-1.92-.71-1.92-2.69v-5.07c0-.3-.04-1.09.18-1.32.18-.2.51-.17.8-.17,2.77,0,2.73.26,4.04,2.57l3.57,6.42c.29.49.51,1.12,1.24,1.12h3.1c.39.01.8.03,1.25.04.2-.09.27-.58.07-.77ZM101.14,156.57c-.62,0-1.86.23-1.86-.59v-5.89c0-2.3.07-2.63,2.84-2.63,3.24,0,5.24,1.65,5.24,4.67,0,1.32-.47,2.53-1.68,3.36-1.38.96-2.88,1.09-4.55,1.09Z"/>
  <g>
    <path class="cls-3" d="M101.8,180.5c0-3.22-.07-3.72-2.19-3.87l-.84-.06c-.2-.12-.14-.67.07-.77,1.89.06,3.04.09,4.39.09s2.47-.03,4.16-.09c.2.09.27.64.07.77l-.81.06c-1.99.15-2.06.65-2.06,3.87v10.69c0,1.94.1,2.73.71,3.32.37.34,1.01.71,3.68.71,2.87,0,3.58-.12,4.12-.4.68-.37,1.55-1.47,2.23-3.04.2-.15.85-.03.85.18,0,.34-.95,3.47-1.42,4.3-1.72-.06-4.93-.09-8.41-.09h-3.11c-1.42,0-2.5.03-4.39.09-.2-.09-.27-.58-.07-.77l1.01-.09c1.96-.19,2.03-.62,2.03-3.84v-11.06Z"/>
    <path class="cls-3" d="M192.3,180.56c0-3.25-.07-3.78-2.02-3.93l-.83-.06c-.2-.12-.13-.67.07-.77,1.66.06,2.79.09,4.18.09s2.45-.03,4.11-.09c.2.09.26.64.07.77l-.83.06c-1.96.15-2.02.67-2.02,3.93v10.93c0,3.25.07,3.69,2.02,3.9l.83.09c.2.12.13.68-.07.77-1.66-.06-2.79-.09-4.11-.09-1.39,0-2.52.03-4.18.09-.2-.09-.27-.58-.07-.77l.83-.09c1.96-.21,2.02-.65,2.02-3.9v-10.93Z"/>
    <path class="cls-3" d="M165.8,195.39c-.17-.02-.49-.04-.49-.04-.35-.03-.66-.08-.91-.36-.43-.46-.4-1.76-.4-2.28v-13.46c0-.59-.14-1.86.29-2.31.22-.24.66-.28,1.06-.3h0c.24-.02.25-.02.46-.03l.85-.06c.2-.12.14-.68-.07-.77-.45.02-.87.01-1.26.02h-3.62c-.39,0-.75,0-.97.43l-7.38,15.38-6.52-14.86c-.22-.52-.25-.95-.93-.95h-3.77c-.39-.01-.83,0-1.28-.02-.2.09-.27.65-.07.77l.85.06c.18.02.5.04.5.04,1.41.09,1.5.41,1.37,1.9l-1.11,14.43c-.1,1.45-.18,2.21-1.69,2.36,0,0-.32.04-.5.06l-.85.09c-.2.18-.14.68.07.77.45-.02,1.25-.04,1.25-.04.77-.04,1.55-.11,2.34-.11.84,0,1.69.08,2.54.11h0c.39.01.81.03,1.26.04.21-.09.27-.58.07-.77l-.85-.09c-.22-.02-.48-.04-.48-.04-2.19-.15-2.14-1.7-2.01-3.59l1.04-13.42h.25l7.06,16.52c.07.23.18.62.54.62.32,0,.43-.36.54-.59l7.96-16.94h.25v14.76c0,.59.07,1.79-.54,2.25-.32.24-1.35.38-1.35.38-.14.02-.29.04-.46.06l-.85.09c-.21.18-.14.68.07.77.45-.01,1.25-.04,1.25-.04,1.15-.03,2.33-.12,3.5-.12.84,0,2.5.08,2.5.08.39.01.84.05,1.3.07.21-.09.27-.58.07-.77l-.85-.09Z"/>
    <path class="cls-3" d="M221.18,195.47l-.11-.09c-.17-.02-.32-.04-.46-.06-1.33-.3-1.85-1.9-2.34-3.04l-6.83-16.18c-.07-.19-.2-.61-.47-.61-.37,0-.47.45-.58.71l-6.53,16.14c-.24.61-.85,2.09-1.29,2.54-.34.34-.78.41-1.24.46,0,0-.37.04-.54.05l-.8.08c-.2.18-.14.68.07.77.46-.01,1.26-.04,1.26-.04.89-.01,1.79-.12,2.68-.12.75,0,1.5.08,2.26.11,0,0,.81.03,1.26.05.21-.09.27-.58.07-.77l-.85-.09c-.17-.02-.46-.05-.46-.05-.79-.09-1.76-.23-1.76-1.09,0-.58.27-1.26.47-1.77l1.01-2.41c.51-1.16.31-1.29,1.66-1.29h4.6c1.62,0,1.39,0,2.1,1.65l1.08,2.45c.17.42.47,1.13.47,1.58,0,.81-.88.87-1.71.93,0,0-.27.02-.51.04l-.82.06c-.21.18-.14.68.07.77.45-.02,1.26-.05,1.26-.05.96-.04,1.93-.11,2.86-.11,1.19,0,2.37.08,3.56.11h0c.39.01.06.03.51.04.2-.09.27-.58.07-.77ZM212.23,187.87h-3.99c-.14,0-1.25.13-1.25-.2,0-.1.07-.29.1-.39l2.39-5.93c.07-.16.31-.98.59-.98.21,0,.49.85.55.98l2.36,5.54c0,.06.24.58.24.72,0,.36-.8.26-1,.26Z"/>
  </g>
  <g>
    <path class="cls-1" d="M120.79,85.88l-13.95-27.79.83-.36,11.53,22.09-9.7-22.89.87-.38,11.15,25.06-9.39-25.77.89-.32,8.93,23.21-7.05-23.9.85-.31,9.28,29.64-.02.08h.02c.62-.22,1.24-.4,1.88-.57-.71-14.24-2.81-26.41-2.81-26.41,0,0,2.61,12.07,7.28,25.53.65-.08,1.31-.15,1.97-.19l-.02-.03h.08l-.05-.07-2.5-30.96.9-.03,2.41,24.8-.41-24.86.95-.03.95,27.41.95-27.41.95.03-.41,24.86,2.41-24.8.9.03-2.5,30.96-.05.07h.01,0s.04,0,.04,0c.65.04,1.29.11,1.92.18,4.67-13.45,7.27-25.5,7.27-25.5,0,0-2.1,12.14-2.81,26.35.64.17,1.27.35,1.89.56l9.25-29.54.85.31-7.05,23.9,8.93-23.21.89.32-9.39,25.77,11.15-25.06.86.38-9.7,22.89,11.53-22.09.83.36-13.86,27.67h.02c.57.29,1.13.59,1.68.89,9.38-10.73,16.32-20.94,16.32-20.94,0,0-6.51,10.5-12.5,23.43.54.4,1.06.82,1.57,1.25l19.62-23.9.67.61-15.49,19.52,16.97-18.17.7.63-18.36,20.38,19.72-19.06.66.68-17.57,17.59,18.96-16.16.63.65-23.21,20.45h.01c.41.47.8.93,1.18,1.4,12.74-6.44,23.04-13.34,23.04-13.34,0,0-10.01,7.32-20.42,17.09.28.48.75,1.29,1.01,1.78l27.15-14.78.39.81-21.67,12.29,22.54-10.49.41.85-21,10.23.4.14,21.36-8.64.36.88-19.86,8.45.37.15,13.23-4.41,2-1.39.66.51,4.35-1.45.34.84-3.77,1.33,5.44,4.15-7.29-4.07-10.6,7.43-7.13-2.78c-2.41,1.22-17.31,11.18-17.31,11.18l-5.72-4.14-6.13-1.21-8.18-5.95-9.38,6.44s-10.47,6.08-10.82,6.08-12.63-9.72-12.63-9.72l-5.65-5.95c-.96.61-4.81,2.37-4.81,2.37l-.2.05-3.72-1.15-4.52-2.4-12.43,5.63,9.18-5.15-6.83-2.4.34-.84,7.69,2.56.03-.02,1.01-.58.4-.25-8.39-3.57.35-.88,18.71,7.57.62-.25-18.56-9.05.41-.85,19.67,9.15.27-.14-19.07-10.82.39-.81,27.54,14.98c.23-.42.7-1.18.94-1.58-10.47-9.85-20.58-17.24-20.58-17.24,0,0,10.39,6.96,23.22,13.43.42-.53.77-.95,1.22-1.45l-23.5-20.68.63-.65,18.96,16.16-17.57-17.59.66-.68,19.72,19.06-18.36-20.38.7-.63,16.97,18.17-15.49-19.52.67-.61,19.85,24.16c.51-.44.94-.78,1.48-1.19-6.01-13-12.56-23.57-12.56-23.57,0,0,6.98,10.27,16.4,21.04.58-.32,1.09-.68,1.69-.97h0ZM177.91,101.26l2.6,1.08,5.76-4.02-8.36,2.94Z"/>
    <path class="cls-3" d="M68.4,112.07c.23-3.58.73-7.09,1.5-10.33,3.73-15.77,12.25-29.18,24.63-38.77,11.75-9.11,26.42-14.13,41.31-14.13s28.57,4.87,40.32,13.71c5.99,4.51,11.15,9.92,15.34,16.07,4.4,6.46,7.63,13.61,9.62,21.26v.02c1.3,5.38,2.02,11.28,2.02,16.61,0,4.32-.6,8.37-1.12,11.42l-.1.54-.84.62-.53.39h0s-.81.53-.81.53l.09-.05c-8.97,5.9-18.1,7.88-30.84,9.29-13.4,1.49-22.79-.68-34.68-3.43l-11.2-2.57c-9.83-2.27-16.93-3.91-27.37-5.23-6.12-.77-13.94-.36-23.23,1.24h.04s-.95.2-.95.2l-.51.11-1.35.29-.26-1.36c-.86-4.54-1.23-8.18-1.23-12.14,0-1.41.05-2.81.14-4.21v-.08ZM69.71,112.75c-.06,1.14-.1,2.34-.1,3.61,0,4.26.44,7.85,1.2,11.89,0,0,0,0,0,0,.59-.13.83-.19,1.48-.32,0,0,0,0,0,0,6-1.03,15.5-2.27,23.62-1.25,12.9,1.63,20.96,3.8,34.58,6.88,13.62,3.08,23.65,5.98,38.34,4.35,12.86-1.43,21.67-3.43,30.25-9.08,0,0,0,0,0,0,0,0,.69-.45.69-.45.15-.1.73-.54.92-.67.63-3.68,1.1-7.34,1.1-11.19h0c0-5.17-.7-10.76-1.82-15.65h-.01c-.69-2.77-1.75-6.15-2.77-8.77-9.84-24.96-34.66-41.97-61.57-41.97-31.53,0-57.89,22.15-64.37,51.74h0s-.04.2-.07.36h.01c-.41,1.93-1.06,5.11-1.38,9.28l-.08,1.24Z"/>
  </g>
</svg>